<svg xmlns="http://www.w3.org/2000/svg" xmlns:xlink="http://www.w3.org/1999/xlink" version="1.1" width="256" height="256" viewBox="0 0 256 256" xml:space="preserve">
<g style="stroke: none; stroke-width: 0; stroke-dasharray: none; stroke-linecap: butt; stroke-linejoin: miter; stroke-miterlimit: 10; fill: none; fill-rule: nonzero; opacity: 1;" transform="translate(1.4065934065934016 1.4065934065934016) scale(2.81 2.81)">
	<circle cx="45" cy="45" r="44" style="stroke: none; stroke-width: 1; stroke-dasharray: none; stroke-linecap: butt; stroke-linejoin: miter; stroke-miterlimit: 10; fill: rgb(0,190,249); fill-rule: nonzero; opacity: 1;" transform="  matrix(1 0 0 1 0 0) "/>
	<path d="M 30.552 46.777 h -2.12 c -0.552 0 -1 -0.447 -1 -1 c 0 -0.552 0.448 -1 1 -1 h 2.12 c 1.524 0 2.765 -1.24 2.765 -2.765 s -1.24 -2.765 -2.765 -2.765 h -3.765 c -0.552 0 -1 -0.448 -1 -1 s 0.448 -1 1 -1 h 3.765 c 2.627 0 4.765 2.137 4.765 4.765 S 33.179 46.777 30.552 46.777 z" style="stroke: none; stroke-width: 1; stroke-dasharray: none; stroke-linecap: butt; stroke-linejoin: miter; stroke-miterlimit: 10; fill: rgb(0,0,0); fill-rule: nonzero; opacity: 1;" transform=" matrix(1 0 0 1 0 0) " stroke-linecap="round"/>
	<path d="M 30.552 54.307 h -3.765 c -0.552 0 -1 -0.447 -1 -1 s 0.448 -1 1 -1 h 3.765 c 1.524 0 2.765 -1.24 2.765 -2.765 s -1.24 -2.765 -2.765 -2.765 h -2.12 c -0.552 0 -1 -0.447 -1 -1 c 0 -0.552 0.448 -1 1 -1 h 2.12 c 2.627 0 4.765 2.138 4.765 4.765 S 33.179 54.307 30.552 54.307 z" style="stroke: none; stroke-width: 1; stroke-dasharray: none; stroke-linecap: butt; stroke-linejoin: miter; stroke-miterlimit: 10; fill: rgb(0,0,0); fill-rule: nonzero; opacity: 1;" transform=" matrix(1 0 0 1 0 0) " stroke-linecap="round"/>
	<path d="M 42.961 54.307 c -2.627 0 -4.765 -2.138 -4.765 -4.765 s 2.137 -4.765 4.765 -4.765 s 4.765 2.138 4.765 4.765 S 45.588 54.307 42.961 54.307 z M 42.961 46.777 c -1.524 0 -2.765 1.24 -2.765 2.765 s 1.24 2.765 2.765 2.765 s 2.765 -1.24 2.765 -2.765 S 44.485 46.777 42.961 46.777 z" style="stroke: none; stroke-width: 1; stroke-dasharray: none; stroke-linecap: butt; stroke-linejoin: miter; stroke-miterlimit: 10; fill: rgb(0,0,0); fill-rule: nonzero; opacity: 1;" transform=" matrix(1 0 0 1 0 0) " stroke-linecap="round"/>
	<path d="M 39.648 48.752 c -0.128 0 -0.258 -0.024 -0.384 -0.077 c -0.51 -0.212 -0.751 -0.798 -0.538 -1.308 l 3.962 -9.504 c 0.212 -0.509 0.796 -0.753 1.308 -0.538 c 0.51 0.212 0.751 0.798 0.538 1.308 l -3.962 9.504 C 40.411 48.521 40.04 48.752 39.648 48.752 z" style="stroke: none; stroke-width: 1; stroke-dasharray: none; stroke-linecap: butt; stroke-linejoin: miter; stroke-miterlimit: 10; fill: rgb(0,0,0); fill-rule: nonzero; opacity: 1;" transform=" matrix(1 0 0 1 0 0) " stroke-linecap="round"/>
	<path d="M 55.336 54.307 c -2.627 0 -4.765 -2.138 -4.765 -4.765 v -7.529 c 0 -2.627 2.138 -4.765 4.765 -4.765 s 4.765 2.137 4.765 4.765 v 7.529 C 60.101 52.169 57.963 54.307 55.336 54.307 z M 55.336 39.248 c -1.524 0 -2.765 1.24 -2.765 2.765 v 7.529 c 0 1.524 1.24 2.765 2.765 2.765 s 2.765 -1.24 2.765 -2.765 v -7.529 C 58.101 40.488 56.86 39.248 55.336 39.248 z" style="stroke: none; stroke-width: 1; stroke-dasharray: none; stroke-linecap: butt; stroke-linejoin: miter; stroke-miterlimit: 10; fill: rgb(0,0,0); fill-rule: nonzero; opacity: 1;" transform=" matrix(1 0 0 1 0 0) " stroke-linecap="round"/>
	<path d="M 63.213 39.248 c -0.553 0 -1 -0.448 -1 -1 v -1.555 c 0 -0.552 0.447 -1 1 -1 s 1 0.448 1 1 v 1.555 C 64.213 38.8 63.766 39.248 63.213 39.248 z" style="stroke: none; stroke-width: 1; stroke-dasharray: none; stroke-linecap: butt; stroke-linejoin: miter; stroke-miterlimit: 10; fill: rgb(0,0,0); fill-rule: nonzero; opacity: 1;" transform=" matrix(1 0 0 1 0 0) " stroke-linecap="round"/>
	<path d="M 45 90 C 20.187 90 0 69.813 0 45 C 0 20.187 20.187 0 45 0 c 24.813 0 45 20.187 45 45 C 90 69.813 69.813 90 45 90 z M 45 2 C 21.29 2 2 21.29 2 45 c 0 23.71 19.29 43 43 43 c 23.71 0 43 -19.29 43 -43 C 88 21.29 68.71 2 45 2 z" style="stroke: none; stroke-width: 1; stroke-dasharray: none; stroke-linecap: butt; stroke-linejoin: miter; stroke-miterlimit: 10; fill: rgb(0,0,0); fill-rule: nonzero; opacity: 1;" transform=" matrix(1 0 0 1 0 0) " stroke-linecap="round"/>
	<path d="M 45 72.1 C 20.187 72.1 0 59.942 0 45 c 0 -14.943 20.187 -27.1 45 -27.1 c 24.813 0 45 12.157 45 27.1 C 90 59.942 69.813 72.1 45 72.1 z M 45 19.9 C 21.29 19.9 2 31.16 2 45 c 0 13.84 19.29 25.1 43 25.1 c 23.71 0 43 -11.26 43 -25.1 C 88 31.16 68.71 19.9 45 19.9 z" style="stroke: none; stroke-width: 1; stroke-dasharray: none; stroke-linecap: butt; stroke-linejoin: miter; stroke-miterlimit: 10; fill: rgb(0,0,0); fill-rule: nonzero; opacity: 1;" transform=" matrix(1 0 0 1 0 0) " stroke-linecap="round"/>
	<path d="M 45 90 c -14.943 0 -27.1 -20.187 -27.1 -45 C 17.9 20.187 30.057 0 45 0 c 14.942 0 27.1 20.187 27.1 45 C 72.1 69.813 59.942 90 45 90 z M 45 2 C 31.16 2 19.9 21.29 19.9 45 c 0 23.71 11.26 43 25.1 43 c 13.84 0 25.1 -19.29 25.1 -43 C 70.1 21.29 58.84 2 45 2 z" style="stroke: none; stroke-width: 1; stroke-dasharray: none; stroke-linecap: butt; stroke-linejoin: miter; stroke-miterlimit: 10; fill: rgb(0,0,0); fill-rule: nonzero; opacity: 1;" transform=" matrix(1 0 0 1 0 0) " stroke-linecap="round"/>
</g>
</svg>