<svg xmlns="http://www.w3.org/2000/svg" viewBox="0 0 150 150">
<!-- SVG created with Arrow, by QuiverAI (https://quiver.ai) -->
  <style type="text/css">.cls-0 {fill:#27160D;}
.cls-1 {fill:none;stroke:#48291B;stroke-width:0.9622;stroke-miterlimit:10;}
.cls-2 {fill:url(#SVGID_1_);}
.cls-3 {fill:#171314;}
.cls-4 {fill:#FCE9CF;}
.cls-5 {fill:#C8AF93;}
.cls-6 {fill:url(#SVGID_2_);}
.cls-7 {fill:#8E7A63;}
.cls-8 {fill:url(#SVGID_3_);}
.cls-9 {fill:url(#SVGID_4_);}
.cls-10 {fill:#1D1C1A;}
.cls-11 {fill:#FFFFFF;}
.cls-12 {fill:#FFBE17;}
.cls-13 {fill:#00358E;}
.cls-14 {fill:#CD2027;}
.cls-15 {fill:#FFE6BF;}
.cls-16 {fill:#1C1916;}
.cls-17 {fill:#FDC70C;}
.cls-18 {fill:#092E75;}
.cls-19 {fill:#AE1E22;}
.cls-20 {fill:#CCAB8E;}
.cls-21 {fill:none;stroke:#BD9F81;stroke-width:0.3343;stroke-linecap:round;stroke-miterlimit:10;}
.cls-22 {fill:#0F0F0F;}
.cls-23 {fill:#FCEFD9;}
.cls-24 {fill:url(#SVGID_5_);}
.cls-25 {fill:none;stroke:#FCEED8;stroke-width:0.5014;stroke-linecap:round;stroke-miterlimit:10;}
.cls-26 {fill:url(#SVGID_6_);}
.cls-27 {fill:none;stroke:#BDA383;stroke-width:0.351;}
.cls-28 {fill:url(#SVGID_7_);}
.cls-29 {fill:url(#SVGID_8_);}
.cls-30 {fill:url(#SVGID_9_);}
.cls-31 {fill:#DBAE7E;}
.cls-32 {fill:#FFC50B;}
.cls-33 {fill:url(#SVGID_10_);}</style>
  <path class="cls-0" d="m125 86c-6-2.3-7-6.3-7-6.3 2.8-2.4 11-11.8 0.5-22.3l-1.5-6.3c-1-4.1-3.4-11.1-5.5-13.1l-36.5-1.9-37.9 4.4c-2.5 3.2-4 9.1-5.4 14.5-10.5 10.5-3.1 19.9-2.9 20.9-0.2 2.3-1.2 4.9-5.7 7.5-4.3 2.3-9.1 6-7.6 11.6-3.8 6.1-1.7 14.2 7.1 18.4 1.2 3.8-2.3 6.4-4.9 5.2-2.2-0.9-2.4-2.8-2-3.4-1.9 2.1-0.7 7.6 5 7.6 4 0 4.8-1.9 9.7-2.5 4-0.5 6.6-0.9 10-0.5h68.7c6.5-0.8 12.9-2.9 16.9-1.6l2.6 0.6c-0.9-0.9-0.9-3.4 0.6-4.7 10.7-6.4 9-16.2-2.5-24.1-2.2-1.4-5.6-4.4-6.4-5.6 1 1 2.8 2.3 5.7 3.2 8.3 2.6 7.5 9.1 7.5 9.1s2.6-7.1-8.5-10.7zm1.7 31.6-1 0.5v-0.6l1 0.1z"/>
  <path class="cls-1" d="m23.6 122.2c4.2-1.9 6.6-5.3 3.1-9.3"/>
  <path class="cls-1" d="m29.1 75.6c0.4 10.1-8.4 9.7-12.3 14.9-1.3 1.9-1.3 4-1.1 4.5"/>
  <path class="cls-1" d="m29.1 75.6c-5.5-8.7-2.1-15.7 2.8-20.2"/>
  <linearGradient id="SVGID_1_" x1="27.7" x2="75.4" y1="100.2" y2="100.2" gradientTransform="matrix(1 0 0 -1 0 152)" gradientUnits="userSpaceOnUse">
    <stop stop-color="#452918" offset="0"/>
    <stop stop-color="#27160D" offset="1"/>
  </linearGradient>
  <path class="cls-2" d="m69.8 45.4c-8.3 7.3-22.1 12-28.7 15.1-6.8 2.9-10.9 8.7-9.2 16-5.5-7.6-4.1-16.6 2.1-22.1 4.7-4.3 12.3-12.1 12.3-12.1l23.5 3.1z"/>
  <radialGradient id="SVGID_2_" cx="-231.8" cy="53" r="7.968" gradientTransform="matrix(-1 0 0 -1 -190.8 152)" gradientUnits="userSpaceOnUse">
    <stop stop-color="#FCE9CF" offset=".4213"/>
    <stop stop-color="#CAA988" offset="1"/>
  </radialGradient>
  <path class="cls-6" d="m42.1 112.4c0.4-1.3 0.6-1 2-1l8.7 5.7-0.4 4.9-12.6-2.2 2.3-7.4z"/>
  <path class="cls-7" d="m43.3 111.5c-1.2 0.4 1.1 4.1 8.6 6.6l0.9-0.9c-3 0-10.7-4.6-10.3-5.8l0.8 0.1z"/>
  <linearGradient id="SVGID_3_" x1="48.04" x2="52.52" y1="32.93" y2="31.49" gradientTransform="matrix(1 0 0 -1 0 152)" gradientUnits="userSpaceOnUse">
    <stop stop-color="#998067" offset=".2258"/>
    <stop stop-color="#C8AD95" offset=".4888"/>
    <stop stop-color="#665649" offset=".9553"/>
  </linearGradient>
  <path class="cls-8" d="m52.8 117.2c1.2 0.4-0.7 4.8-0.7 4.8l-5.6-0.9 1-4.7 1-1 4.3 1.8z"/>
  <radialGradient id="SVGID_4_" cx="-294.1" cy="53" r="8.313" gradientTransform="matrix(-1 0 0 -1 -190.8 152)" gradientUnits="userSpaceOnUse">
    <stop stop-color="#FCE9CF" offset=".4213"/>
    <stop stop-color="#CAA988" offset="1"/>
  </radialGradient>
  <path class="cls-9" d="m107.9 111.5-10.5 6.2 1.2 6.4 11.5-3.6-2-8.8z"/>
  <path class="cls-7" d="m97.4 117.7c-0.3 0.8 7-1 10.5-5.1l-0.8-1.1-9.5 4.7-0.2 1.5z"/>
  <linearGradient id="SVGID_5_" x1="103.9" x2="106.1" y1="32.61" y2="31.92" gradientTransform="matrix(1 0 0 -1 0 152)" gradientUnits="userSpaceOnUse">
    <stop stop-color="#998067" offset=".2805"/>
    <stop stop-color="#FCE9CF" offset=".7521"/>
  </linearGradient>
  <path class="cls-24" d="m106.1 114.9 1.4 7.7 3-1.1-2.6-8.1z"/>
  <path class="cls-10" d="m53.1 117.7c1.3 0 3.6-11.5 3.6-11.5l-2.6-10.2c-5-0.3-7.6 4.2-7.6 4.2l2.6 14.2 4 3.3z"/>
  <path class="cls-22" d="m52.1 117.2c2.1 0.9 5.4-10.7 5-17-0.4-3.1-1.5-3.5-2.5-3.5-2.7 0.7-5.9 13.6-2.5 20.5z"/>
  <path class="cls-4" d="m83.6 92.4c2.3 0 8.8 2.3 9.3 4.1 3.8 9.5 6.5 19.7 0.6 29.7l-14.9 6.2-23-9.4c-4.5-8.5-2.2-16.3 1.1-26.3 1-2.2 7.7-4.3 9.7-4.3h17.2z"/>
  <path class="cls-22" d="m97.4 117.6 3.7-1.1 5.4-3.5 1-2.1-4-14-9.4-0.9-1.2 0.7 4.2 15.9z"/>
  <ellipse class="cls-10" cx="75" cy="89.4" rx="7.7" ry="1.9"/>
  <path class="cls-4" d="m93.9 45 9 8.7 1.1 1.1c1.1 3.2 0.9 16.6-3 23.7-4.3 7.6-13.6 10.6-26 10.4-13.1-0.4-22.6-2.7-26.5-11.3-2.6-5.6-3.7-18.5-2.2-19l13.7-4.9c4-1.7 7.1-3.7 10.5-7.6l23.4-1.1z"/>
  <path class="cls-5" d="m52.5 57.5c-3.3 2.2-6.9 3.4-6.4 6.9l1.9 12.3c2.9 7.9 10.3 11.7 27 12.4-9.4-2.4-18-4.1-22-9.5-3.9-5.6-6.3-15.9-0.5-22.1z"/>
  <linearGradient id="SVGID_6_" x1="74.77" x2="74.77" y1="62.01" y2="70.01" gradientTransform="matrix(1 0 0 -1 0 152)" gradientUnits="userSpaceOnUse">
    <stop stop-color="#D8C0A2" offset="0"/>
    <stop stop-color="#FCE9CF" offset="1"/>
  </linearGradient>
  <path class="cls-26" d="m75 89.1c18.5 0 28.5-5.2 28.5-21.7-1 5.5-1.8 13.1-13.5 14.6-7 1.1-17.9 1.7-28.1 0-6.3-1.1-11.9-3.6-12.4-14.6 0 12.2 5.1 21.7 25.5 21.7z"/>
  <path class="cls-21" d="m65.9 92.6c-1.7 0-2.8 4.9 9.1 5 8.7 0 11.9-3.1 9.4-5"/>
  <linearGradient id="SVGID_7_" x1="74.7" x2="74.7" y1="62.6" y2="53.14" gradientTransform="matrix(1 0 0 -1 0 152)" gradientUnits="userSpaceOnUse">
    <stop stop-color="#CBAC8D" offset=".2258"/>
    <stop stop-color="#FDECDC" offset=".7043"/>
  </linearGradient>
  <path class="cls-28" d="m66.7 89.1c0.2 1.6 0 3.5-1.1 4.1-0.8 2.3 4.4 4.2 9.4 4.2 4.1 0 10.4-1.4 9.5-4.2-1.4-0.8-1.4-3-1.5-4.1-0.5 1.9-12 2.9-16.3 0z"/>
  <linearGradient id="SVGID_8_" x1="71.02" x2="71.62" y1="95.47" y2="96.97" gradientTransform="matrix(1 0 0 -1 0 152)" gradientUnits="userSpaceOnUse">
    <stop stop-color="#CBAE8C" offset="0"/>
    <stop stop-color="#FDFDFD" offset="1"/>
  </linearGradient>
  <path class="cls-29" d="m62.1 52.7c2.3-0.3 12.8-2 28.5-0.1l6.4-3.2-26.6-3.3-8.3 6.6z"/>
  <linearGradient id="SVGID_9_" x1="97.9" x2="104" y1="95.95" y2="95.95" gradientTransform="matrix(1 0 0 -1 0 152)" gradientUnits="userSpaceOnUse">
    <stop stop-color="#C5AB91" offset="0"/>
    <stop stop-color="#FBEBDD" offset=".7043"/>
  </linearGradient>
  <path class="cls-30" d="m93.9 45.4c2.6 3.2 10 11 10.1 14.6 0.5-1.3 0.5-5.4-0.5-5.6l-9.6-9z"/>
  <path class="cls-5" d="m61.5 52.6c1.6-0.6 17.6-2 26.2-0.2-9.1-0.9-21.7-0.9-26.2 0.2z"/>
  <path class="cls-22" d="m75 52.6c-17.5 0.1-24.6 1.8-24.6 13 0.2 11 3.2 15.1 15.6 16 8 0.8 11.4 0.5 17.1 0 11.8-1.1 16.4-4 16.4-16.2 0-10.3-6.6-12.8-24.5-12.8z"/>
  <path class="cls-25" d="m50.9 61.6c-1.4 5.1-1.1 16.4 7.1 19 6.4 2.5 28.5 3.3 35.5-0.7 4.2-2 7-6.2 6.6-15.4"/>
  <path class="cls-4" d="m56.1 95.9c-2.1-2.2-12.6-0.8-14.8 10.8-0.6 2.9 8.2 8.4 10.8 9.2l1.3-1c-2.8-4.7-1.3-18.2 2.7-19z"/>
  <linearGradient id="SVGID_10_" x1="41.25" x2="52.99" y1="45.95" y2="45.95" gradientTransform="matrix(1 0 0 -1 0 152)" gradientUnits="userSpaceOnUse">
    <stop stop-color="#BC9C7E" offset="0"/>
    <stop stop-color="#F9E6D0" offset=".4624"/>
    <stop stop-color="#FAECDE" offset=".7742"/>
  </linearGradient>
  <path class="cls-33" d="m41.5 106.4c1-4.7 5-11.3 12.2-11-4.1 0.6-9.5 8.5-7 14.5l-0.6 2.5c-1.3-1.5-5-3.4-4.6-6z"/>
  <path class="cls-4" d="m93.9 96c1.5-1.6 10.7-2.4 14.3 9l0.3 2.9-11.4 7.2c2.4-4 1.5-18.2-3.2-19.1z"/>
  <path class="cls-21" d="m67 88.9c-0.5 2 12.8 3 15.5 0"/>
  <path class="cls-22" d="m97.4 115.6c1.2 0.3 6.1-8.7 0.2-18.7-1.2-1.5-3-1.9-4.1-0.5 1.5 0.7 4.4 11.5 3 17.7l0.9 1.5z"/>
  <path class="cls-4" d="m104.5 56.7c3 1 6.5 3 6.5 4.9 0.4 6.8-2.3 14.1-3.9 14.6-1.7 0.9-4.5 1.8-5.5 1.5 2.8-2.7 3.9-17.1 2.9-21z"/>
  <path class="cls-5" d="m105.4 60.4-0.4 17c1.2-0.3 2.1-0.8 2.1-1.3 1-0.4 2.5-6.9 2.9-8.7l-0.4-5.9-4.2-1.1z"/>
  <path class="cls-5" d="m45 59.7-4.6 2.2 0.9 13.2 2.8 1.5 3.4 1-1.4-8.2s-1.2-7.8-1.1-9.7z"/>
  <path class="cls-11" d="m84.5 107.5c0 2 1.6 4 3.4 4s3.4-1.9 3.4-3.7c-0.2-2.1-1.7-3.4-3.4-3.4-1.8 0-3.4 1.2-3.4 3.1z"/>
  <path class="cls-12" d="m53.4 115.1c-0.3 2-3.9-0.2-7.5-2.5-3.8-3.1-4.8-3.9-4.4-6.2l0.4-0.4c-0.4 2.1 8.5 8.6 11.1 9.1h0.4z"/>
  <path class="cls-12" d="m97.1 115.1c0.5 2.4 12.3-3.6 11.3-6.7l-0.2-1c-0.5 2.6-8.2 6.5-10.8 7.6l-0.3 0.1z"/>
  <path class="cls-32" d="m51.9 114c-2.8 0-9.8-5.4-10.4-7.9l-0.2 1.9c0.4 2.5 9.1 7.9 11.1 7.9 0.5 0 0.9-0.4 1-0.9l-1.5-1z"/>
  <path class="cls-32" d="m97.4 115c1.1 1.9 11.1-3.9 11-7.8l-0.3 0.8c-1.6 2.4-7.5 6-10.4 7h-0.3z"/>
  <linearGradient id="SVGID_11_" x1="47.67" x2="47.67" y1="90.1" y2="72.4" gradientTransform="matrix(1 0 0 -1 0 152)" gradientUnits="userSpaceOnUse">
    <stop stop-color="#0A0A0A" offset="0"/>
    <stop stop-color="#151515" offset="1"/>
  </linearGradient>
  <path d="m44.4 59.7c-0.8 4.4 1.5 18.3 3.5 17.8l1 0.1c-1.9-3.5-3.3-12-2.5-18.7l-2 0.8z" fill="url(#SVGID_11_)"/>
  <path class="cls-22" d="m103.5 54.9c1.5 4.2 0.2 20-2.5 23.1l1.1-0.3c2.3 0.2 4.6-11.7 3-21.2l-1.6-1.6z"/>
  <path class="cls-12" d="m52.8 115.1c-1.7-4.5-2.7-14.1 1.8-18.5l1.5-0.7c-3 0.2-6.5 12.3-2.7 18.7l-0.6 0.5z"/>
  <linearGradient id="SVGID_12_" x1="50.7" x2="55.6" y1="45.55" y2="45.55" gradientTransform="matrix(1 0 0 -1 0 152)" gradientUnits="userSpaceOnUse">
    <stop stop-color="#FFCA38" offset="0"/>
    <stop stop-color="#CE7A00" offset="1"/>
  </linearGradient>
  <path d="m51.4 105.6c-0.8 4.4 0.3 7.6 1.4 9.5l0.6-0.5c-3-5.6-0.4-18.2 2.2-18-1.6-0.6-3.6 3.4-4.2 9z" fill="url(#SVGID_12_)"/>
  <linearGradient id="SVGID_13_" x1="107" x2="111.3" y1="84.1" y2="84.7" gradientTransform="matrix(1 0 0 -1 0 152)" gradientUnits="userSpaceOnUse">
    <stop stop-color="#E09924" offset="0"/>
    <stop stop-color="#FFBB03" offset=".4418"/>
    <stop stop-color="#FE9B00" offset=".7473"/>
  </linearGradient>
  <path d="m106.9 75.9c2.7-0.9 4.6-3.9 4.5-10.2 0-2.8-0.4-5-2.4-6.3 1 2.3 0 13.7-2.1 16.5z" fill="url(#SVGID_13_)"/>
  <path class="cls-12" d="m42.9 75.6c-2.9-1.6-4.8-7.5-3.8-12.7l1.5-0.9c-0.8 3 1.1 11.6 2.3 13.6z"/>
  <linearGradient id="SVGID_14_" x1="38.67" x2="42.85" y1="82.95" y2="82.95" gradientTransform="matrix(1 0 0 -1 0 152)" gradientUnits="userSpaceOnUse">
    <stop stop-color="#B96A00" offset="0"/>
    <stop stop-color="#CE7A00" offset="1"/>
  </linearGradient>
  <path d="m41.1 62-2 0.9c-1.6 4.7 0.7 11.7 3.7 12.7-1.4-1.2-3.3-8.9-1.7-13.6z" fill="url(#SVGID_14_)"/>
  <path class="cls-21" d="m99 105.6c2.9 1.3 3 1.1 4 6.5"/>
  <path class="cls-21" d="m46.7 111.4 1.3-3.8c0.4-0.9 1.6-1.2 3-2"/>
  <linearGradient id="SVGID_15_" x1="93.62" x2="98.2" y1="46.05" y2="46.05" gradientTransform="matrix(1 0 0 -1 0 152)" gradientUnits="userSpaceOnUse">
    <stop stop-color="#B08C66" offset="0"/>
    <stop stop-color="#F9E6D0" offset=".7043"/>
  </linearGradient>
  <path d="m97.5 96.5c-0.9-1-2.1-1.5-3.9-0.5 2.8 0 5.8 10.7 3.3 19 2.2-3 3.6-13.3 0.6-18.5z" fill="url(#SVGID_15_)"/>
  <path class="cls-4" d="m99.9 7.2c2 2 3.5 15.7 3.6 17.5-3.4 5.3-28.4 7.3-28.5 7.3s-24.1-2-27.5-7.4l2.3-14.6c1.6-6.4 9.3-8 25.3-8s22.6 1.6 24.8 5.2z"/>
  <radialGradient id="SVGID_16_" cx="75.58" cy="147.8" r="22.36" gradientTransform="matrix(1 0 0 -.2 0 35.52)" gradientUnits="userSpaceOnUse">
    <stop stop-color="#4D4845" offset="0"/>
    <stop stop-color="#1C1916" offset="1"/>
  </radialGradient>
  <path d="m75 1.7c-13 0-23.9 1.4-24 5.5 0 3.4 11.4 5.8 24 5.8s25-2 25-5.8-9.6-5.5-25-5.5z" fill="url(#SVGID_16_)"/>
  <path class="cls-15" d="m75.1 2c-8.2 0-22.1 1-22.1 4.4 1.4 3.6 15.1 4.6 22 4.6s21.9-1 22.7-4.6c0-2.8-4.3-4.4-22.6-4.4z"/>
  <path class="cls-16" d="m75.1 2.6c-11 0.2-18.1 0.5-18.1 3.1 0.7 2.4 11 3.4 18 3.4s18.4-1 18.9-3.4c-0.2-2.1-2.8-3.1-18.8-3.1z"/>
  <path class="cls-15" d="m75 2.6c-6.4 0-15.2 0.1-15.2 2.4 0.6 1.9 9.3 3 15.2 3s15.9-1.1 16-3c0-1.9-7.4-2.4-16-2.4z"/>
  <path class="cls-16" d="m75 3c-6.5 0.1-11.4 0.6-11.4 2 0.3 1.2 6.2 1.9 11.4 1.9s11.5-0.9 11.9-1.8c0-1.1-3.3-2.1-11.9-2.1z"/>
  <path class="cls-15" d="m75.1 3c-5.6 0-8.7 0.4-8.7 1.4 0.2 0.6 4.2 1.2 8.7 1.2s8.9-0.6 8.8-1.2c0-0.9-4-1.4-8.8-1.4z"/>
  <path class="cls-16" d="m75.1 3c-3.7 0-6.6 0.2-6.6 1 0.1 0.5 3 1 6.6 1s6.9-0.5 6.5-1c0-0.5-2.6-1-6.5-1z"/>
  <path class="cls-20" d="m75.1 2.9c-3 0-6.1 0.3-6.1 1 0 0.5 3 0.7 6.1 0.7s6.3-0.2 6.3-0.7c0.2-0.5-2.8-1-6.3-1z"/>
  <path class="cls-15" d="m54 10.9c-0.6 3.2-2.5 12.7-2.6 13.6l-3.9-3.4 2.3-10.7 0.7-2.8 3.5 3.3z"/>
  <path class="cls-15" d="m97.1 10.9c0.6 3.2 2.5 12 2.5 12.8l3.4-1.8-2-14.3-3.9 3.3z"/>
  <path class="cls-16" d="m50.5 8.6c-0.5 0.4-0.5 1.4 0.5 2.4 0.4 0.5 1.1 0 2.4 0l-2.5 12.7 0.3 0.3 2.4-13.1-3.1-1.3v-1z"/>
  <path class="cls-16" d="m52.9 11c-1.5 0.4-2.3 0.9-2.9 1.5-0.9 1.1-1.6 8.9-1.1 9.5l0.6 0.6 0.5-6.2 2-5 0.9-0.4z"/>
  <path class="cls-16" d="m49.5 14.5 2.4 2.4-2.4 1.2 0.6 4.8 1.3-5.2 0.7-1-1.1-3.8z"/>
  <path class="cls-16" d="m49.1 19.4 1.4 2.6-2.8-1.1 3.8-3.5"/>
  <path class="cls-16" d="m98 10.9 1.9 13h0.5l-2-12.3c0.7-0.2 1.2-0.7 2-0.6 0.5 0 0.6-1.8 0.2-1.8l-0.2-0.2-2.4 1.9z"/>
  <path class="cls-16" d="m99.9 13 0.7 4.6 1.9-2.1-0.4-1.5-1.1-1c-0.5-1-1.9-1.5-2.5-1.6l1.4 1.6z"/>
  <path class="cls-16" d="m99 17.4 3.4 4.5-2.4 1.1 1-5.3-1.5-0.6"/>
  <path class="cls-16" d="m100.4 21.9 2.5-2.5v1.1z"/>
  <path class="cls-15" d="m75.5 46.1c26.1 0 56.5-4.2 56.5-16.1 0-5-7-8.1-20-8-3 0-9 0.4-9 0.4l0.5 1.6c-2.6 5-28 7-28.5 7s-22.9-1-27.5-8.5l-0.8-0.1s-4.7-0.5-9.1-0.5c-10.6 0-19.6 2-19.6 7.7 0 7.6 16.4 16.5 57.5 16.5z"/>
  <path class="cls-3" d="m75.5 45.9c27 0 56.4-4.2 56.4-16.2-0.4-5.2-8-7.8-20-7.7-2.9 0-8.9 0.4-8.9 0.4l0.1 1s5.3-0.3 8-0.3c13.9 0.3 18 2.9 18 6.6 0 7.3-20 14.4-53.5 14.4-31.2 0-55.8-6-55.6-14.5 0-4.7 9-6.6 18.5-6.5l8.5-0.5-0.1-0.2s-4.8-0.5-8.9-0.5c-9 0-20 1.2-20 7.7-0.4 7.3 16 16.3 57.5 16.3z"/>
  <path class="cls-15" d="m75.5 44.1c29.6 0 53.5-6 53.5-14.1 0-5.1-10-7-19-6.6l-6.5 0.2v1.4c3.6 5.1-28 6-28.5 6s-25.1-1-27.6-6.5l0.1-0.5c-1-0.1-6.5-0.6-9.1-0.6-8.5 0-17.4 1.6-17.4 6.6 0 7 16.9 14.1 54.5 14.1z"/>
  <path class="cls-3" d="m47.1 24.6c-12.7-0.6-22.2 1.1-22.2 5.8 0 5.2 10.7 9.5 19.2 11.3-8.2-2.6-16-6.8-16-10.7 0.3-4.6 9.9-6 18.8-6l0.2-0.4z"/>
  <path class="cls-3" d="m103.4 24c12.2-0.6 21.6 1.4 21.6 6.5 0 5-12.1 9.2-19.6 11.2 5.7-1.3 16.2-5.7 16.7-10.1-0.5-5.6-9.2-6.6-18.5-6.6v-1h-0.2z"/>
  <path class="cls-16" d="m75 39.5c16.9 0 33.4-2.5 33.1-8.6-0.6-3-9.7-5.2-33-5.2-24.1 0-33.5 1.4-33.5 5.2 0 4.5 12 8.6 33.4 8.6z"/>
  <path class="cls-4" d="m47.4 26c-8 0.5-15 2-15 5.1 0 6.3 15 11.3 43.2 11.3 26.5 0 42-4.8 41.9-10.9-0.4-4-9-5.4-14-5.9l0.1 0.4c5.5 0.4 9.3 2.5 9.3 5.4 0 4.6-11.9 9.6-38.3 9.6-20 0-37.1-3.4-37.1-9.6 0-2.5 4.4-4.3 9.9-4.8v-0.6z"/>
  <path class="cls-20" d="m47 26.1c-4 0-12.9 1.5-12.9 5.3-0.1 5.5 14.4 10.2 40.9 10.6 16.7 0 41-3.1 40.9-10.3-0.5-3.6-8.2-5.6-12.4-5.6l0.1 0.4c6 0.4 10.3 2.5 9.4 5.5-1.9 5.6-15.9 8.9-37.9 9-22.2 0-36.7-3.4-37.6-9-0.6-3.4 5-5.1 9.5-5.5v-0.4z"/>
  <path class="cls-16" d="m75 38.9c14.9 0 29-2.9 29-8.3 0-3.2-12.1-4.6-29-4.6s-28.6 1.7-29 4.6c-0.4 4.8 12.1 8.3 29 8.3z"/>
  <path class="cls-17" d="m47.4 24.5-0.5 3.6 28.2 3.9 28.6-6.6-0.7-4c-4 5.6-20.6 6.7-28 6.7-7 0-24-0.5-27.6-7.2v3.6z"/>
  <path class="cls-18" d="m46.9 25.4-0.5 2.7c1.6 5.4 17 7.3 28.6 7.3 9.4 0 27.5-1.8 28.7-10.5l0.2 3.5c-2 4.6-14.4 7.1-28.9 6.5-12.9-0.4-27.5-3-28.5-6.5l0.4-3z"/>
  <path class="cls-19" d="m46.5 28.1-0.3 2.3c1.5 4.6 13.3 7.5 28.9 7.5 13 0 28.5-2.3 29-7.5l-0.2-2.3c-2 4.5-15.3 7.4-28.9 7.4-9.4-0.1-27-1.9-28.5-7.4z"/>
  <path class="cls-16" d="m57.7 12.4-1.8 13.3 7.2 1.4 1.3-13.6z"/>
  <path class="cls-15" d="m58.6 13 4.5 0.7-1 12.7-5-1z"/>
  <path class="cls-16" d="m57.5 25.4s2-2.5 4-2.5v2.7l0.9 0.4v-5.1l-2.9 2.1-2-2.9-0.4 5.4 0.4-0.1z"/>
  <path class="cls-16" d="m57.4 18.9 5 1.6 0.2-0.5-3.6-3.1h3.4l0.7-3.3-1.6 1.4c-0.1 0.4-1 0.9-1.5-0.6l-0.9-1.4-0.5 2.9h2l-3.2 2.5v0.5z"/>
  <path class="cls-16" d="m70 14-0.4 13.9h10.9l-0.4-13.8z"/>
  <path class="cls-15" d="m71.6 14.6h7v12.9h-7.5z"/>
  <path class="cls-16" d="m71.1 27.5 3.9-3.1-3.5-2.8v5.9l1-0.4v-4.1l1.5 1.1-2.9 3 1.9-0.1 2-1.6 2.7 2.1h1.8l-3.6-3 2.7-2.1v5.1l0.8-0.5-0.4-6-3.9 3-3.5-3h7 0.4l-4-3.3 3.5-2.8v5.5l1 0.1 0.4-6-0.9 0.4-3.5 2.7-3.4-3.1h-0.7v6l3.2-2.9-3-2.7"/>
  <path class="cls-16" d="m86.4 13.5 1.2 13.6 7-1.4-1.7-13.3z"/>
  <path class="cls-15" d="m87.6 13.7 4.8-0.7 1.1 12.6-5 0.9z"/>
  <path class="cls-16" d="m89.1 15.5-1.5-1.5 0.3 3.1 2.2-0.5-2.1 3.1 0.4 0.3 4.6-1-4.5-1.4 2.5-1 2 1.9-0.5-5.5s-1.5 2-1.6 3l-1.8-0.5z"/>
  <path class="cls-16" d="m88.4 26.9 2.6-3.5 2.7 2.2-0.7-5.5-2.1 2.9-2.8-2.1v5.5l0.5-0.4-0.1-3 1.5 0.4s-1.4 2-2.4 2.6l0.8 0.9z"/>
  <path class="cls-16" d="m55 6.5"/>
  <path class="cls-31" d="m55.6 11.4-2 13.6-0.7-0.1 2.1-13.9z"/>
  <path class="cls-31" d="m56.1 11.5-1.7 13.6h0.2l1.9-13.5z"/>
  <path class="cls-31" d="m66.6 13.5-0.7 14.4 1.1 0.1 0.5-14.4z"/>
  <path class="cls-31" d="m67.7 13.6-0.2 14.4h0.6l0.4-14.3z"/>
  <path class="cls-31" d="m82.6 13.6 0.5 14.4 1-0.1-0.7-14.4z"/>
  <path class="cls-31" d="m84.4 13.5 0.5 14.4h0.5l-0.8-14.4z"/>
  <path class="cls-31" d="m94.6 11 2.1 14-0.6 0.1-2-13.7z"/>
  <path class="cls-31" d="m95.5 11.5 2 13.1h0.1l-1.7-13.1z"/>
  <path class="cls-1" d="m129 113.9c4.5-5.5 3.7-13.7-0.6-18.5l-1.7-1.7"/>
  <path class="cls-1" d="m127.5 114.4c-2.9 1.8-2.5 3.7-1.4 4.1"/>
  <path class="cls-1" d="m125.1 113.4c5.5-2.8 6-10.2 1.6-15"/>
  <linearGradient id="SVGID_17_" x1="28.1" x2="69.1" y1="89.41" y2="89.41" gradientTransform="matrix(1 0 0 -1 0 152)" gradientUnits="userSpaceOnUse">
    <stop stop-color="#452918" offset="0"/>
    <stop stop-color="#27160D" offset="1"/>
  </linearGradient>
  <path d="m69.1 45.9-5.4 3.2c-12.5 6.6-20.6 9-24.1 10.6-5.2 2.2-8.9 6.4-9.7 11-2.4-9.2 9.1-15.3 15.2-17.7 3.8-1.4 12.5-5.8 14.4-7.9l9.6 0.8z" fill="url(#SVGID_17_)"/>
  <path class="cls-1" d="m118.9 57.9c1.5 3.7 4.2 10.7 1.1 21.1"/>
  <path class="cls-1" d="m119 77.6c2.4-7-0.1-13.9-5.4-17.6-4.7-3.4-6.6-3.6-11.9-7.3l-5.3-6.1"/>
  <path class="cls-12" d="m16.5 130.2c3-3.8 11.5-9.3 22.4-9.3 14.7 0 23.2 10.2 39.8 16.3-18.6 0-29.8-11.7-43.7-11.8-5.6 0-12.4 1.1-18.5 4.8z"/>
  <path class="cls-11" d="m24.1 122c17.3-7 29.3-1.3 37.9 1.7 15 5.9 22 5.9 34 0.8 9.4-4 23.6-9.6 33-5.5l-0.9 1.9c-8.7-1.9-19.1 1.1-28.1 5.1-11.9 4.9-19 7.4-30.5 4.5-9.5-2.5-19.4-9.6-31.1-9.4-4.9 0-9.9 0.6-14.3 2.5v-1.6z"/>
  <path class="cls-12" d="m78.6 137.2c16 0 25-8.7 37.8-13.1 6.1-2.1 14.6-2.4 20.1-0.1-2.4-2.3-9-4.5-15.1-4.3-9 0-17.5 3.9-24.9 7-11.4 4.9-20 6.2-31.6 1.9-8.8-3.1-18.2-8.4-28.4-7.5-5.5 0.3-13.5 2.1-18.5 6.9 2.7-1.3 8.4-2.6 16.4-2.6 15 0.2 25.6 11.5 44.2 11.8z"/>
  <path class="cls-13" d="m19.1 133.4c2.9-2.9 9.8-6 17.5-5.8 12.9 0.4 22.3 8 34.9 10.8 22.1 4 33.9-8.8 47-12.3 5-1.2 10.5-1.1 15.5 2.4-6.3-2-11.9-0.9-17.6 1.5-10.8 4-20 13.6-13.9 9-6.6 4.4-14.5 8.7-24.5 9.1-17.5 0.4-27.5-9.6-39.1-13.7-5-2-11.9-4.4-19.8-1z"/>
  <path class="cls-14" d="m26.7 131.5c17.3-1 23.3 4.1 34.7 8.1 6.3 2.4 12.2 3.9 18.6 3.8 13.4-0.4 23.7-8 33.4-11.9 5-2.4 9.8-3.6 13.6-3.8-10.3 0.9-16.9 6.9-24.9 11.9-6.1 3.8-13.4 8.1-24.1 8.5-15.3 0.3-24.5-7.5-34.3-11.7-6.2-2.8-11.3-5-17-4.9z"/>
  <path class="cls-12" d="m59.1 64.1c-0.5-0.2-1-0.6-1-1-0.4-1.1-1.4-0.5-1.1 0.4 0.4 0.6 0.6 1 1.4 1.4-0.3 0.2-0.4 0.5-0.5 0.8-0.4-0.1-0.9-0.2-1-0.6-0.9-0.6-1.4 0.5-0.5 1 0.3 0.3 0.7 0.5 1.2 0.5-0.1 0.4-0.1 0.8 0 1.4 0.4 0.6 1.4 0.6 1.5-0.4 0.4-2 2.3-3.2 3.9-3.2 1.9 0 3.5 1.2 3.7 3.2 0.2 1.1 1.7 1.1 1.4-0.7-0.5-1.9-2.6-4.2-5.4-4.2-1.2 0-2.6 0.7-3.3 1.4"/>
  <path class="cls-12" d="m91.2 64c0.5-0.3 0.9-0.6 1.2-1.1 0.3-0.9 1.3 0.1 0.7 0.8-0.2 0.4-0.7 0.9-1.2 1.2l0.6 0.7c0.5 0 0.6-0.1 1-0.5 0.9-0.6 1.1 0.5 0.4 1-0.4 0.4-0.8 0.5-1.3 0.6 0.1 0.4 0 0.7 0 1.2-0.1 0.8-1.4 0.8-1.4-0.2-0.3-1.8-2.2-3.2-4.2-3.2-1.9 0-3.8 1.6-3.9 3.2 0 0.9-1.6 1.2-1.5-0.3 0.3-2 2.1-4.5 5.5-4.7 1.4 0 2.8 0.7 3.8 1.4"/>
  <path class="cls-32" d="m74.9 76.4c2.1 0 3.7-0.8 4.2-1.8 0.9-0.9-0.4-2-1-1-0.6 0.8-2 1.4-3.2 1.4-1.3 0-2.8-0.5-3.3-1.4-0.6-0.7-2 0-1.1 1 0.6 0.9 2.1 1.8 4.1 1.8"/>
  <circle class="cls-23" cx="74.7" cy="114.9" r="6.2"/>
  <circle class="cls-16" cx="75" cy="114.6" r="6.1"/>
  <circle class="cls-12" cx="74.9" cy="114.6" r="4.9"/>
  <linearGradient id="SVGID_19_" x1="71" x2="78.9" y1="37.4" y2="37.4" gradientTransform="matrix(1 0 0 -1 0 152)" gradientUnits="userSpaceOnUse">
    <stop stop-color="#FAB517" offset="0"/>
    <stop stop-color="#EE9F15" offset="1"/>
  </linearGradient>
  <circle cx="74.9" cy="114.6" r="3.9" clip-rule="evenodd" fill="url(#SVGID_19_)" fill-rule="evenodd"/>
  <circle class="cls-22" cx="74.9" cy="114.6" r="3"/>
  <radialGradient id="SVGID_20_" cx="76.6" cy="37.4" r="1.6" gradientTransform="matrix(1 0 0 -1 0 152)" gradientUnits="userSpaceOnUse">
    <stop stop-color="#4D4D4D" offset=".01124"/>
    <stop stop-color="#1C1916" stop-opacity="0" offset="1"/>
  </radialGradient>
  <path d="m77.9 114.1c0.5-1-0.2-2.2-1.3-2.7-1-0.4-2.2 0.2-2.5 1.3l3.8 1.4z" clip-rule="evenodd" fill="url(#SVGID_20_)" fill-rule="evenodd"/>
  <radialGradient id="SVGID_21_" cx="102.4" cy="47.4" r="2.7" gradientTransform="matrix(1 0 0 -1 0 152)" gradientUnits="userSpaceOnUse">
    <stop stop-color="#fff" offset=".01124"/>
    <stop stop-color="#fff" stop-opacity="0" offset="1"/>
  </radialGradient>
  <path d="m104.4 104.4c1-0.8 0.7-2.4-0.4-3.4-1.3-1-2.6-1.3-3.6-0.5l4 3.9z" clip-rule="evenodd" fill="url(#SVGID_21_)" fill-rule="evenodd"/>
  <linearGradient id="SVGID_22_" x1="79.52" x2="78.77" y1="55.81" y2="57.57" gradientTransform="matrix(1 0 0 -1 0 152)" gradientUnits="userSpaceOnUse">
    <stop stop-color="#fff" offset=".01124"/>
    <stop stop-color="#fff" stop-opacity="0" offset="1"/>
  </linearGradient>
  <path d="m80.5 96.6c1-0.4 1.1-1.6 0.5-2.5-0.6-1-1.5-1.5-2.4-1l1.9 3.5z" clip-rule="evenodd" fill="url(#SVGID_22_)" fill-rule="evenodd"/>
</svg>