<svg xmlns="http://www.w3.org/2000/svg" viewBox="11.5 97 166 144">
<!-- SVG created with Arrow, by QuiverAI (https://quiver.ai) -->
  <path d="m148 174c-7.9-0.2-12.8 1.1-20.8 4.5l-1.7-9.1c-1.4-6.3-6.6-7.3-8.3-8.2-4.9-2.2-12.7-5.1-27.4-5.2s-25.7 2.8-28.8 5.1c-3.1 2.1-4.9 5.2-5.2 7.6l-1.8 10c-3.7-1-6.5-1.9-13.3-2-12.6-0.2-24.1 5.4-24.1 16.9s9.9 18.6 32.4 18.9c19.6 0.1 39-5.1 56.2-9.9 13.5-3.6 21.6-6.3 36.1-6 8.8 0.2 15.5 1.8 21.5 3.9 3.9-1.4 7.8-4.6 7.8-10.5 0.2-6.3-6-15.5-22.6-16z" fill="#000D1A"/>
  <path d="m23.4 210.7c1.2 1.6 2.9 3 3.6 3.7 15 6.2 29.1 6.2 48.4 3 23.2-3.9 54.2-15.5 87.7-8.2l2.4-3.2c-2.9-1.6-9.9-4.8-20-5.6-16.4-1.1-23.9-0.3-44.1 5.2-13.5 3.8-24.1 6.3-36.4 8.1-13 1.9-27 2.7-41.6-3z" fill="#FFCC03"/>
  <path d="m27 214.4c2.4 2.1 6.9 5.5 11.9 7.3 7.6 1.3 18.7 2.3 34.4 0.3 18.7-1.9 36.7-7.9 53.9-10.1 9.8-1.2 16.8-1.6 23.9 0 3.5 0.7 5.9 1.8 7.1 2.7 1.9-1.6 4.4-3.9 5.6-5.7-7-3.5-19.7-5.4-36.8-3.3-18.6 2.4-34.9 7.9-51.5 10.6-16.1 2.8-33.5 4.6-48.5-1.8z" fill="#034693"/>
  <path d="m38.9 221.7c7.4 2.9 14.4 4.7 23.2 5.7 23.6 0.1 46.7-7.5 69.2-9.6 8.5-0.6 14.5-0.4 18.8 1.4 3.5-1.8 5.4-3 7.7-4.8-0.7-0.9-5.2-2.7-11.6-3.4-7.7-1.1-17.7-0.2-26.4 1.1-17.6 2.6-33.5 7.8-48.6 9.3-12.2 1.4-20.7 1.7-32.3 0.3z" fill="#EB1420"/>
  <path d="m62.1 227.6c8.2 1.8 28.9 3.2 46.1 2 14.4-1.2 26.8-3.1 37.5-7.4 1.2-0.5 3.7-1.4 4.7-2.1-1.6-0.5-6.1-3-19.9-2.3-14.8 0.7-26.5 3.9-41.6 6.4-8.6 1.6-19.8 3.2-26.8 3.4z" fill="#000D1A"/>
  <path d="m46.3 173.5c3.1 0.2 7 1.2 8.6 2.1l1.4-8c-3.4-0.7-6.2 1.6-10 3.6v2.3z" fill="#EEEBE8"/>
  <linearGradient id="SVGID_1_" x1="135.6" x2="162" y1="147.4" y2="147.4" gradientUnits="userSpaceOnUse">
    <stop stop-color="#FFAB1B" offset="0"/>
    <stop stop-color="#FC6120" offset="1"/>
  </linearGradient>
  <path d="m135.6 148.3c2-1.2 15-8.4 23.6-9.9 1.4-0.5 3.2-0.3-1.7 5.1-3.4 4.2-13.7 12.3-15.3 14.1-0.5 0.4-0.7 0.5-1.4-0.7-2.3-3.6-4.6-6.6-5.1-7.2v-1.4h-0.1z" fill="url(#SVGID_1_)"/>
  <linearGradient id="SVGID_2_" x1="-67.19" x2="-44.41" y1="147.4" y2="147.4" gradientTransform="matrix(-1 0 0 1 -21.38 0)" gradientUnits="userSpaceOnUse">
    <stop stop-color="#FFAB1B" offset="0"/>
    <stop stop-color="#FC6120" offset="1"/>
  </linearGradient>
  <path d="m53.4 148.5c-3.5-2.3-18.2-9.5-24.5-10.4-1.6 0-2.3 0-1.2 1.9 3.9 5.6 15.1 14.2 18.6 17.6 0.5 0.2 0.3 0.4 1.2-1.2 2.6-4.3 5.4-7.6 5.9-8.1v0.2z" fill="url(#SVGID_2_)"/>
  <linearGradient id="SVGID_3_" x1="-97.05" x2="-82.67" y1="126.7" y2="126.7" gradientTransform="matrix(-1 0 0 1 -21.38 0)" gradientUnits="userSpaceOnUse">
    <stop stop-color="#FFAB1B" offset="0"/>
    <stop stop-color="#FC6120" offset="1"/>
  </linearGradient>
  <path d="m72.9 134c-1.4-2.3-12.1-15.2-16.3-17.1-1-0.4-1.5 0.2-0.8 2.8 1.2 5.2 6.4 16.8 7.7 18.6l0.7 0.2c2.8-1.8 5.6-3.4 8.7-4.5z" fill="url(#SVGID_3_)"/>
  <linearGradient id="SVGID_4_" x1="-195.4" x2="-170.1" y1="169.3" y2="169.3" gradientTransform="matrix(-1 0 0 1 -21.38 0)" gradientUnits="userSpaceOnUse">
    <stop stop-color="#FC6120" offset="0"/>
    <stop stop-color="#FFAB1B" offset="1"/>
  </linearGradient>
  <path d="m147.3 171.5c4-0.1 9.6 0.9 13.8 2.5 2.2-0.5 12.6-3.2 14-5 0.9-1.6-1.4-2.1-4.1-2.8-5.8-0.9-17.9-1.1-24 0l-0.2 0.3 0.5 5z" fill="url(#SVGID_4_)"/>
  <linearGradient id="SVGID_5_" x1="-50.54" x2="-24.42" y1="170.4" y2="170.4" gradientTransform="matrix(-1 0 0 1 -21.38 0)" gradientUnits="userSpaceOnUse">
    <stop stop-color="#FFC91F" offset="0"/>
    <stop stop-color="#FC6120" offset="1"/>
  </linearGradient>
  <path d="m42 166.2c-2.6-0.4-19.8-1.8-26.8 0.7-1.4 0.5-2.1 1.6-0.3 2.5 4 2.3 13 3.9 16.7 5.5 3.3-1.1 6.1-1.2 9.6-1.2l1.4-7.3-0.6-0.2z" fill="url(#SVGID_5_)"/>
  <linearGradient id="SVGID_6_" x1="94.5" x2="94.5" y1="130" y2="107.4" gradientTransform="translate(0 .5)" gradientUnits="userSpaceOnUse">
    <stop stop-color="#FF8E1F" offset="0"/>
    <stop stop-color="#FA5922" offset="1"/>
  </linearGradient>
  <path d="m89.8 130.5c3.6-0.2 6.8-0.2 9.5 0-0.6-6.1-2.1-22.6-4.6-22.6-2.5-0.5-4.6 17-4.9 22.6z" fill="url(#SVGID_6_)"/>
  <linearGradient id="SVGID_7_" x1="116.4" x2="134.2" y1="127.4" y2="120.2" gradientTransform="translate(0 .5)" gradientUnits="userSpaceOnUse">
    <stop stop-color="#FFAD24" offset="0"/>
    <stop stop-color="#FA5922" offset="1"/>
  </linearGradient>
  <path d="m116.1 133.7c3.1 1.4 6.5 3.2 9.3 5 1.2-0.9 8.4-17.9 8.7-20.8 0.2-0.5-0.3-1.4-0.8-1.2-2.8 1.2-11.8 10.2-17.4 17.3l0.2-0.3z" fill="url(#SVGID_7_)"/>
  <radialGradient id="SVGID_8_" cx="94.6" cy="147.4" r="36.9" gradientTransform="translate(0 .5)" gradientUnits="userSpaceOnUse">
    <stop stop-color="#FAAC1E" offset="0"/>
    <stop stop-color="#EF441C" offset="1"/>
  </radialGradient>
  <path d="m59 149.4c6.9-7 18-15.4 35.7-15.4 14.1 0 24.9 4.1 35.5 15.2-5 1.3-15.4 5.4-19.7 8-4.9-0.8-9.1-1.4-14.4-1.6-7 0-12 0-14.6 0.6-4.5-1.1-12.4-5.2-22.5-6.8z" fill="url(#SVGID_8_)"/>
  <linearGradient id="SVGID_9_" x1="74.5" x2="74.5" y1="161" y2="144.3" gradientUnits="userSpaceOnUse">
    <stop stop-color="#FFCA1D" offset="0"/>
    <stop stop-color="#FD8C1A" offset="1"/>
  </linearGradient>
  <path d="m81.5 156c-2.1-2.2-11-7-21.4-6.6l-1.1 0.2c-1.4 0.7-4.3 4.6-5 6 3 0 7 1.6 12.5 3.8 2.6-0.9 8.5-2.5 15-3.4z" fill="url(#SVGID_9_)"/>
  <linearGradient id="SVGID_10_" x1="123" x2="123" y1="160.7" y2="149.6" gradientUnits="userSpaceOnUse">
    <stop stop-color="#FFE176" offset="0"/>
    <stop stop-color="#FFAF24" offset="1"/>
  </linearGradient>
  <path d="m110.5 157.2c1.9-2.1 9.1-7.5 19.6-7.5 1.6 1.7 4 4.7 5.1 6.3-5.4 0.5-8.6 2-14.4 4.7-2.4-1.1-7.2-2.9-10.3-3.5z" fill="url(#SVGID_10_)"/>
  <linearGradient id="SVGID_11_" x1="134.6" x2="134.6" y1="174.7" y2="166.2" gradientUnits="userSpaceOnUse">
    <stop stop-color="#FFE76B" offset="0"/>
    <stop stop-color="#FFDB48" offset="1"/>
  </linearGradient>
  <path d="m128.9 168.5c1.6-1.1 6.3-3.1 12.3-1.6l1.5 4.5c-3.8 0.3-10.7 2.4-13.3 3.6l-0.5-6.5z" fill="url(#SVGID_11_)"/>
  <linearGradient id="SVGID_12_" x1="79.32" x2="75.31" y1="151.7" y2="141" gradientUnits="userSpaceOnUse">
    <stop stop-color="#FFBC1C" offset="0"/>
    <stop stop-color="#FE9115" offset="1"/>
  </linearGradient>
  <path d="m59 149.4c15.1-7.3 28.9-4.1 36.8 5.5l-14.3 0.9c-2.6-2.1-9.3-6.8-21.5-6.2l-1-0.2z" fill="url(#SVGID_12_)"/>
  <linearGradient id="SVGID_13_" x1="131.6" x2="131.6" y1="169" y2="159.7" gradientUnits="userSpaceOnUse">
    <stop stop-color="#FFC407" offset="0"/>
    <stop stop-color="#FEBA0A" offset="1"/>
  </linearGradient>
  <path d="m120.8 160.7c2.8-1.9 7.7-4.7 14.8-4.7l5.6 10.5c-4.3-0.7-7.6-0.7-12.8 2.2-0.6-1.5-1.8-5.6-7.6-8z" fill="url(#SVGID_13_)"/>
  <linearGradient id="SVGID_14_" x1="54.8" x2="54.8" y1="174.6" y2="155.7" gradientUnits="userSpaceOnUse">
    <stop stop-color="#FFCB05" offset="0"/>
    <stop stop-color="#FB9317" offset="1"/>
  </linearGradient>
  <path d="m46.1 171.7c1.8-7.1 4.5-12.3 7.9-16.3 3.6-0.7 8.2 1.7 12.5 3.8-6.6 2.3-9.5 5.9-10.4 8.9-3.7-0.2-6.7 1.8-10 3.6z" fill="url(#SVGID_14_)"/>
  <path d="m121.7 161.2c2.6-1.6 8.4-4 15.6-2l-1.7-3.2c-2.5 0-8.8-0.2-14.8 4.7l0.9 0.5z" fill="#F78917"/>
  <path d="m73.8 207.6c15.8-3 24.9-8 41.7-17.1 7.9-4.1 19.2-11.7 27.4-13.1 7.4-1.2 20.9 0 23.1 9.3l-3.1 2.3c0-6-7.9-11.6-18.6-10.7s-22.1 6.8-42.2 17.9c-6.7 3.7-18.1 8.9-28 10.9l-0.3 0.5z" fill="#FFFDF9"/>
  <path d="m56.8 181.4c-10.7-3.1-25.6-4-32.1 4.4-5.6 7-3.2 15.6 8.8 20.4 1 0.5 0.5-0.2 0-0.4-3.4-1.8-8.5-4.6-8.5-11.1 0.5-9.3 11.8-16.7 31.8-12.6v-0.7h0.2-0.2zm-0.3 2.6c-4.6-1.2-16.6-2.8-23.4 2.9-4.9 4.5-5.4 12.1 3.2 16.9 9.5 5.1 24.2 3.6 36.3-1-14.6 3-30.9 3-35.6-4.3-4.1-7 7.9-13.4 18.9-11.8l0.6-2.7z" fill="#FCFBF7"/>
  <path d="m48.4 194-3.2 1.1c0.9 3.2 9.9 5.3 17.2 5.4-5.9 1.4-20.5-0.6-20-6.7 0.9-3.5 8.1-5.7 13.4-5l0.3-1.9c-12.6-1.8-21.9 5.2-16.2 11.1 5.2 4.8 16.7 6.4 32.7 2.4-8.8 0-20-1.5-24.2-6.4z" fill="#FAF8F4"/>
  <path d="m55.2 192.1-6.7 1.7c5.3 3.6 14.6 4.3 24.1 4.3-6-0.7-18.2-3.5-17.4-6z" fill="#CECBC9"/>
  <path d="m61.9 172.6-1.1 13.8c2.7 1.2 10.7 4.2 25 4.8h4.7c1.9 0 3.5-0.2 4.6-0.2-6.7 2.5-7.9 2.8-13.1 4.6-6.2 2.2-22.6-0.5-23.3-5l1.9-19.2c2.7 1 8.5 2.8 22.5 3.5l8.8 0.5c6.5 0.2 21.7-0.3 30.5-3.7 0.7 2.5 1.2 8.8 1.2 8.8l-25 10-0.2-7.2-13.9-0.3-0.2 7.6c-4.4 0-13.7-1-17.8-2.1l0.8-14.7-5.4-1.2z" fill="#fff" stroke="#000D1A" stroke-miterlimit="10" stroke-width=".15"/>
  <path d="m59.4 186.7c2 0.7 3.9 1.6 7.2 2.1l-0.3 3.3c-2.3-0.4-5.5-1.3-7.1-1.6l0.2-3.8z" fill="#CCC8C7"/>
  <path d="m62.1 166.2 2.4-0.4c0.4 0.7 3.5 2.3 4.6 2.3l-0.7 4c-1.4-0.2-4.6-0.7-6.5-1.3l0.2-4.6z" fill="#D6D3D1"/>
  <path d="m102 200.1c8.1-4.5 27.6-19.8 42.1-18.7 9.7 0.7 17.9 6 12.8 14h-1.7c2.3-6.5-3.5-13-15.3-10.8-9.8 1.6-19.6 6.9-29.8 12.3l-8.1 3.2z" fill="#FFFDF9"/>
  <path d="m104.8 200.1c3.4-2.7 8.8-6.1 12-7.5l1.7 0.2-8.5 4.1-5.2 2.1v1.1z" fill="#EEEAE7"/>
  <path d="m122.2 193.8c4.2-2.8 14.6-7.4 20.5-6 6.2 1 8.6 5.5 5.8 7.1l-1.7-0.3c-0.4-4.2-8.1-7-22.7-1.1l-1.4 0.3h-0.5z" fill="#FCFBFA"/>
  <linearGradient id="SVGID_15_" x1="138.9" x2="136.6" y1="188.8" y2="194.7" gradientUnits="userSpaceOnUse">
    <stop stop-color="#FBFAF8" offset="0"/>
    <stop stop-color="#D8D3CD" offset="1"/>
  </linearGradient>
  <path d="m124.3 193.3c5.5-3.4 16-7.3 21.8-5.2 4.2 1.5 5.1 4.7 2.7 6.5h-1.9c0.4-2.9-5.2-7.2-19.9-2.2l-2.7 0.9z" fill="url(#SVGID_15_)"/>
  <path d="m155.5 195.4c1.1-1.2 2.3-2.3 1.8-3.9l-1.2 1.8-0.7-0.5-0.4 2.6h0.5z" fill="#CFCCCC"/>
  <path d="m160.8 196.7c2.5-0.7 4.7-4.8 4-9.3l-2.1 2c0.6 1.4-0.8 5.7-2.4 7.3h0.5z" fill="#DEDBD7"/>
  <path d="m84.5 175.1-0.2 7.7 5.8 0.2h9l-0.4-7.9-6.1 0.3-8.1-0.3z" fill="#000D1A"/>
  <polygon points="85 175.8 89.8 179.2 84.7 182.8 86.6 182.8 91.2 179.7 95.4 182.6 97.3 182.4 92.6 179 96.8 175.8 95.1 175.8 91.4 178.5 87.3 175.8" fill="#fff"/>
  <polyline points="85.2 183.7 90.1 187.1 85.2 190.5 86.8 190.6 91.2 187.6 94.7 190.1 96.8 189.9 92.9 187.1 97 183.7 95.6 183.7 91.5 186.4 87.9 183.8" fill="#fff"/>
  <path d="m98.6 183 0.1 6.2 9.9-4.1-0.4-2.7-9.6 0.6z" fill="#000D1A"/>
  <path d="m84.3 183-9.3-0.9-0.2 6.9c3.1 0.7 7.1 1.3 9.5 1.3v-7.3z" fill="#000D1A"/>
  <path d="m67.3 173.5c2.5 0.3 5.8 1.1 8.1 1.4l-0.2 7.2-8.6-1.6 0.7-7z" fill="#000D1A"/>
  <path d="m67.2 180.8 7.6 1.1 0.2 0.7-3.3 2.1-3.7-3.7h-1.2l7 7.7 0.9 0.2 0.1-5.2v-0.6l0.4-0.5v-0.7l-8-8.1-0.2 0.7 6.8 6.9-6.8-1.1 0.2 0.5z" fill="#fff"/>
  <polygon points="74.8 179.6 74.8 177.4 73.3 178.1 74.8 176.9 75 176.9" fill="#fff"/>
  <path d="m107.3 174.9 0.7 7 7.4-8.4-7 0.5-1.1 0.9z" fill="#000D1A"/>
  <path d="m107.3 176.7 3.9 1.8 4-4.7h0.9l-5.8 7.6-1.2 0.1 2.1-3-3.9-1.6v-0.2z" fill="#fff"/>
  <path d="m122.2 171.4 1.4 6.7-6.5 2.4-1-7 4.5-1.1 1.6-1z" fill="#000D1A"/>
  <path d="m122.6 172.1 0.8 5.5c-1.2-0.7-2.6-0.2-2.4-3 0.2-1.6 1.2-2.5 1.6-2.5z" fill="#fff"/>
  <path d="m61.7 172.4-0.7 6.1c1.4 0 3.2-3.4 0.7-6.1z" fill="#fff"/>
  <path d="m60.6 180.5-0.8 5.9c3-1.3 3.5-4 0.8-5.9z" fill="#fff"/>
  <path d="m93.3 158.1c-8.4 0-31.6 0.6-34.1 10.4-0.7 2.1-1.6 10.4-1.6 10.4l4.1-7.5c0-2.4 0.7-4.2 3.3-5.6 1.5 4.3 19 5.6 28.1 5.6 7.9 0 25.4-0.4 27.7-4.7 1.9 1.1 2.1 3.8 2.3 5.4l3-0.6c1.2-3.7-1.4-10.8-22.3-13-4.4-0.4-7.9-0.4-10.5-0.4z" fill="#000D1A"/>
  <path d="m62.1 171.4c3.8 1.2 11.5 3.3 27.5 3.7 9.1 0.3 21.2 0 33.1-3.7-0.1-2.4-0.5-3.5-1.9-4.7-1.6 2.9-10.8 4.8-26.8 5-8.4 0-22.6-0.3-28.8-5.7-1.7 0.5-3.1 2.1-3.1 5.4z" fill="#fff"/>
  <path d="m72.4 162.8c1.7 3.4 16.3 3.9 20.7 3.9 3.7 0 19 0 21-3.4 1.6 0.2 5.5 2.7-2.7 4.1-9.2 2-29.5 2.2-39.2-0.9-3.8-1.4-3-3.4 0.2-3.7z" fill="#fff"/>
  <path d="m78 162.1c4.1 2.3 14.8 2.3 17.2 2.3 3 0 11.4-0.2 11.6-1.6 1.4-2.2-16.5-2.7-28.8-0.7z" fill="#fff"/>
  <path d="m84.7 161.7c1.1 1.1 6.1 0.9 8.7 1.1 1.5 0 8.5 0 8.5-0.7 0.2-1.1-7.9-1.5-17.2-0.4z" fill="#000D1A"/>
  <path d="m75 181.9c5.6 1.2 16.9 2.3 33.2 0.5-4.4 1.1-25.4 2.3-33.2-0.5z" fill="#000D1A"/>
  <path d="m60 186.4c5.6 2.5 17 4.6 26.1 4.8h7.9l2.8-0.7 1.8 0.1-4.3 1.1c-8.9 0.2-21.4-0.9-25.1-2l-3.8-0.7-5.4-1.9v-0.7z" fill="#000D1A"/>
  <path d="m108 182.4c4.1-0.7 10.9-2.1 15.6-4.1l0.3 1.6c-4.3 1.6-11.5 3.4-15.9 3.8v-1.3z" fill="#000D1A"/>
</svg>