<svg xmlns="http://www.w3.org/2000/svg" xmlns:xlink="http://www.w3.org/1999/xlink" version="1.1" width="256" height="256" viewBox="0 0 256 256" xml:space="preserve">
<g style="stroke: none; stroke-width: 0; stroke-dasharray: none; stroke-linecap: butt; stroke-linejoin: miter; stroke-miterlimit: 10; fill: none; fill-rule: nonzero; opacity: 1;" transform="translate(1.4065934065934016 1.4065934065934016) scale(2.81 2.81)">
	<path d="M 11.93 25.59 C 5.131 27.579 1 30.184 1 33.039 v 30.992 c 0 -2.855 4.131 -5.46 10.93 -7.449 V 25.59 z" style="stroke: none; stroke-width: 1; stroke-dasharray: none; stroke-linecap: butt; stroke-linejoin: miter; stroke-miterlimit: 10; fill: rgb(117,176,225); fill-rule: nonzero; opacity: 1;" transform=" matrix(1 0 0 1 0 0) " stroke-linecap="round"/>
	<path d="M 78.07 25.59 v 30.992 C 84.869 58.57 89 61.176 89 64.031 V 33.039 C 89 30.184 84.869 27.579 78.07 25.59 z" style="stroke: none; stroke-width: 1; stroke-dasharray: none; stroke-linecap: butt; stroke-linejoin: miter; stroke-miterlimit: 10; fill: rgb(117,176,225); fill-rule: nonzero; opacity: 1;" transform=" matrix(1 0 0 1 0 0) " stroke-linecap="round"/>
	<path d="M 1 32.739 c 0 6.241 19.699 11.299 44 11.299 s 44 -5.059 44 -11.299 l 0 0 v 30.992 c 0 6.241 -19.699 11.299 -44 11.299 S 1 69.972 1 63.731 L 1 32.739 L 1 32.739 z" style="stroke: none; stroke-width: 1; stroke-dasharray: none; stroke-linecap: butt; stroke-linejoin: miter; stroke-miterlimit: 10; fill: rgb(139,198,248); fill-rule: nonzero; opacity: 1;" transform=" matrix(1 0 0 1 0 0) " stroke-linecap="round"/>
	<path d="M 29.239 26.488 h -2.455 c -0.552 0 -1 -0.448 -1 -1 s 0.448 -1 1 -1 h 2.455 c 1.853 0 3.359 -1.507 3.359 -3.359 s -1.507 -3.359 -3.359 -3.359 H 24.88 c -0.552 0 -1 -0.448 -1 -1 s 0.448 -1 1 -1 h 4.359 c 2.955 0 5.359 2.404 5.359 5.359 S 32.194 26.488 29.239 26.488 z" style="stroke: none; stroke-width: 1; stroke-dasharray: none; stroke-linecap: butt; stroke-linejoin: miter; stroke-miterlimit: 10; fill: rgb(0,0,0); fill-rule: nonzero; opacity: 1;" transform=" matrix(1 0 0 1 0 0) " stroke-linecap="round"/>
	<path d="M 29.239 35.206 H 24.88 c -0.552 0 -1 -0.448 -1 -1 s 0.448 -1 1 -1 h 4.359 c 1.853 0 3.359 -1.507 3.359 -3.359 s -1.507 -3.359 -3.359 -3.359 h -2.455 c -0.552 0 -1 -0.448 -1 -1 s 0.448 -1 1 -1 h 2.455 c 2.955 0 5.359 2.404 5.359 5.359 S 32.194 35.206 29.239 35.206 z" style="stroke: none; stroke-width: 1; stroke-dasharray: none; stroke-linecap: butt; stroke-linejoin: miter; stroke-miterlimit: 10; fill: rgb(0,0,0); fill-rule: nonzero; opacity: 1;" transform=" matrix(1 0 0 1 0 0) " stroke-linecap="round"/>
	<path d="M 43.607 35.206 c -2.955 0 -5.359 -2.404 -5.359 -5.359 s 2.404 -5.359 5.359 -5.359 s 5.358 2.404 5.358 5.359 S 46.563 35.206 43.607 35.206 z M 43.607 26.488 c -1.852 0 -3.359 1.507 -3.359 3.359 s 1.507 3.359 3.359 3.359 s 3.358 -1.507 3.358 -3.359 S 45.459 26.488 43.607 26.488 z" style="stroke: none; stroke-width: 1; stroke-dasharray: none; stroke-linecap: butt; stroke-linejoin: miter; stroke-miterlimit: 10; fill: rgb(0,0,0); fill-rule: nonzero; opacity: 1;" transform=" matrix(1 0 0 1 0 0) " stroke-linecap="round"/>
	<path d="M 15.55 72.126 c 7.798 1.805 18.124 2.904 29.45 2.904 c 8.585 0 16.596 -0.631 23.367 -1.723 l 0 -0.001 L 50.865 54.89 l -12.567 9.943 l -5.938 -6.076 L 15.55 72.126 L 15.55 72.126 z" style="stroke: none; stroke-width: 1; stroke-dasharray: none; stroke-linecap: butt; stroke-linejoin: miter; stroke-miterlimit: 10; fill: rgb(179,229,159); fill-rule: nonzero; opacity: 1;" transform=" matrix(1 0 0 1 0 0) " stroke-linecap="round"/>
	<path d="M 76.88 71.516 l -10.547 -11.24 l -5.911 4.669 l 7.946 8.362 c 3.098 -0.5 5.937 -1.096 8.453 -1.772 L 76.88 71.516 z" style="stroke: none; stroke-width: 1; stroke-dasharray: none; stroke-linecap: butt; stroke-linejoin: miter; stroke-miterlimit: 10; fill: rgb(148,216,121); fill-rule: nonzero; opacity: 1;" transform=" matrix(1 0 0 1 0 0) " stroke-linecap="round"/>
	<circle cx="38.073" cy="51.863" r="3.503" style="stroke: none; stroke-width: 1; stroke-dasharray: none; stroke-linecap: butt; stroke-linejoin: miter; stroke-miterlimit: 10; fill: rgb(255,219,78); fill-rule: nonzero; opacity: 1;" transform="  matrix(1 0 0 1 0 0) "/>
	<path d="M 39.771 28.774 c -0.128 0 -0.258 -0.025 -0.384 -0.078 c -0.51 -0.212 -0.751 -0.798 -0.538 -1.308 l 4.587 -11.003 c 0.212 -0.51 0.797 -0.752 1.308 -0.538 c 0.51 0.212 0.751 0.798 0.538 1.308 l -4.587 11.003 C 40.535 28.542 40.163 28.774 39.771 28.774 z" style="stroke: none; stroke-width: 1; stroke-dasharray: none; stroke-linecap: butt; stroke-linejoin: miter; stroke-miterlimit: 10; fill: rgb(0,0,0); fill-rule: nonzero; opacity: 1;" transform=" matrix(1 0 0 1 0 0) " stroke-linecap="round"/>
	<path d="M 57.936 35.206 c -2.955 0 -5.358 -2.404 -5.358 -5.359 v -8.718 c 0 -2.955 2.403 -5.359 5.358 -5.359 s 5.359 2.404 5.359 5.359 v 8.718 C 63.295 32.802 60.891 35.206 57.936 35.206 z M 57.936 17.77 c -1.852 0 -3.358 1.507 -3.358 3.359 v 8.718 c 0 1.852 1.507 3.359 3.358 3.359 c 1.853 0 3.359 -1.507 3.359 -3.359 v -8.718 C 61.295 19.277 59.788 17.77 57.936 17.77 z" style="stroke: none; stroke-width: 1; stroke-dasharray: none; stroke-linecap: butt; stroke-linejoin: miter; stroke-miterlimit: 10; fill: rgb(0,0,0); fill-rule: nonzero; opacity: 1;" transform=" matrix(1 0 0 1 0 0) " stroke-linecap="round"/>
	<path d="M 67.057 17.77 c -0.553 0 -1 -0.448 -1 -1 v -1.801 c 0 -0.552 0.447 -1 1 -1 s 1 0.448 1 1 v 1.801 C 68.057 17.322 67.609 17.77 67.057 17.77 z" style="stroke: none; stroke-width: 1; stroke-dasharray: none; stroke-linecap: butt; stroke-linejoin: miter; stroke-miterlimit: 10; fill: rgb(0,0,0); fill-rule: nonzero; opacity: 1;" transform=" matrix(1 0 0 1 0 0) " stroke-linecap="round"/>
	<path d="M 45 76.03 c -21.815 0 -45 -4.311 -45 -12.299 V 32.739 c 0 -0.552 0.448 -1 1 -1 s 1 0.448 1 1 v 30.992 C 2 68.603 19.66 74.03 45 74.03 c 25.341 0 43 -5.428 43 -10.299 V 32.739 c 0 -0.552 0.447 -1 1 -1 s 1 0.448 1 1 v 30.992 C 90 71.72 66.814 76.03 45 76.03 z" style="stroke: none; stroke-width: 1; stroke-dasharray: none; stroke-linecap: butt; stroke-linejoin: miter; stroke-miterlimit: 10; fill: rgb(0,0,0); fill-rule: nonzero; opacity: 1;" transform=" matrix(1 0 0 1 0 0) " stroke-linecap="round"/>
	<path d="M 45 45.039 c -21.815 0 -45 -4.311 -45 -12.299 c 0 -3.263 4.008 -6.165 11.59 -8.391 c 0.529 -0.159 1.085 0.147 1.241 0.678 c 0.156 0.53 -0.148 1.085 -0.678 1.241 C 5.796 28.134 2 30.553 2 32.739 c 0 4.872 17.66 10.299 43 10.299 c 25.341 0 43 -5.428 43 -10.299 c 0 -2.186 -3.796 -4.605 -10.153 -6.472 c -0.53 -0.156 -0.834 -0.711 -0.679 -1.241 c 0.155 -0.529 0.71 -0.835 1.241 -0.678 C 85.992 26.574 90 29.476 90 32.739 C 90 40.728 66.814 45.039 45 45.039 z" style="stroke: none; stroke-width: 1; stroke-dasharray: none; stroke-linecap: butt; stroke-linejoin: miter; stroke-miterlimit: 10; fill: rgb(0,0,0); fill-rule: nonzero; opacity: 1;" transform=" matrix(1 0 0 1 0 0) " stroke-linecap="round"/>
	<path d="M 68.367 74.306 c -0.265 0 -0.528 -0.104 -0.725 -0.312 L 50.77 56.241 l -11.851 9.376 c -0.402 0.318 -0.979 0.28 -1.336 -0.085 l -5.307 -5.431 L 16.173 72.908 c -0.432 0.344 -1.061 0.273 -1.405 -0.16 c -0.344 -0.432 -0.272 -1.061 0.16 -1.404 l 16.81 -13.369 c 0.402 -0.321 0.98 -0.283 1.338 0.083 l 5.309 5.433 l 11.861 -9.384 c 0.403 -0.32 0.987 -0.281 1.345 0.096 l 17.502 18.415 c 0.381 0.399 0.364 1.033 -0.036 1.413 C 68.862 74.215 68.615 74.306 68.367 74.306 z" style="stroke: none; stroke-width: 1; stroke-dasharray: none; stroke-linecap: butt; stroke-linejoin: miter; stroke-miterlimit: 10; fill: rgb(0,0,0); fill-rule: nonzero; opacity: 1;" transform=" matrix(1 0 0 1 0 0) " stroke-linecap="round"/>
	<path d="M 76.88 72.517 c -0.267 0 -0.532 -0.105 -0.729 -0.315 L 66.231 61.63 l -5.189 4.101 c -0.433 0.343 -1.062 0.268 -1.405 -0.165 c -0.342 -0.434 -0.269 -1.063 0.165 -1.405 l 5.91 -4.669 c 0.407 -0.32 0.993 -0.278 1.35 0.101 l 10.548 11.24 c 0.378 0.403 0.357 1.036 -0.045 1.414 C 77.371 72.427 77.125 72.517 76.88 72.517 z" style="stroke: none; stroke-width: 1; stroke-dasharray: none; stroke-linecap: butt; stroke-linejoin: miter; stroke-miterlimit: 10; fill: rgb(0,0,0); fill-rule: nonzero; opacity: 1;" transform=" matrix(1 0 0 1 0 0) " stroke-linecap="round"/>
	<path d="M 38.07 56.363 c -2.483 0 -4.503 -2.02 -4.503 -4.503 s 2.02 -4.504 4.503 -4.504 s 4.503 2.021 4.503 4.504 S 40.554 56.363 38.07 56.363 z M 38.07 49.356 c -1.38 0 -2.503 1.123 -2.503 2.504 c 0 1.38 1.123 2.503 2.503 2.503 s 2.503 -1.123 2.503 -2.503 C 40.574 50.479 39.451 49.356 38.07 49.356 z" style="stroke: none; stroke-width: 1; stroke-dasharray: none; stroke-linecap: butt; stroke-linejoin: miter; stroke-miterlimit: 10; fill: rgb(0,0,0); fill-rule: nonzero; opacity: 1;" transform=" matrix(1 0 0 1 0 0) " stroke-linecap="round"/>
	<path d="M 45 75.031" style="stroke: none; stroke-width: 1; stroke-dasharray: none; stroke-linecap: butt; stroke-linejoin: miter; stroke-miterlimit: 10; fill: rgb(0,0,0); fill-rule: nonzero; opacity: 1;" transform=" matrix(1 0 0 1 0 0) " stroke-linecap="round"/>
</g>
</svg>