<?xml version="1.0" ?>

<!DOCTYPE svg  PUBLIC '-//W3C//DTD SVG 1.1//EN'  'http://www.w3.org/Graphics/SVG/1.1/DTD/svg11.dtd'>

<!-- Uploaded to: SVG Repo, www.svgrepo.com, Generator: SVG Repo Mixer Tools -->
<svg fill="currentColor" fill="currentColor" width="800px" height="800px" viewBox="0 0 512 512" version="1.1" xml:space="preserve" xmlns="http://www.w3.org/2000/svg" xmlns:xlink="http://www.w3.org/1999/xlink">

<g id="_x33_84_x2C__monetization_x2C__finance_x2C__money_x2C__transfer_x2C__value">

<g>

<path d="M142.707,355.561c-1.973,0-3.594-1.605-3.594-3.592    s1.621-3.593,3.594-3.593h14.515v-14.515c0-1.986,1.621-3.592,3.59-3.592c1.986,0,3.594,1.605,3.594,3.592v14.515h14.515    c1.986,0,3.59,1.606,3.59,3.593s-1.604,3.592-3.59,3.592h-14.515v14.515c0,1.987-1.607,3.593-3.594,3.593    c-1.969,0-3.59-1.605-3.59-3.593v-14.515H142.707z M306.256,74.986h56.717c1.664,0,3.064,1.139,3.475,2.657l41.911,119.1h41.047    c1.986,0,3.59,1.605,3.59,3.592c0,1.956-1.604,3.562-3.59,3.562h-43.588c-1.478,0-2.864-0.934-3.376-2.394L360.446,82.17h-54.19    c-0.775,5.023-3.141,9.521-6.573,12.939c-4.232,4.233-10.09,6.862-16.544,6.862s-12.312-2.629-16.544-6.862    c-4.222-4.236-6.851-10.076-6.851-16.531c0-6.454,2.629-12.324,6.851-16.56c4.232-4.206,10.09-6.834,16.544-6.834    s12.312,2.628,16.544,6.834C303.101,65.465,305.48,69.963,306.256,74.986z M306.256,149.168h56.906    c1.636,0,3.021,1.109,3.461,2.628l22.503,58.439h82.417c1.986,0,3.59,1.606,3.59,3.592c0,1.986-1.604,3.592-3.59,3.592h-84.856    c-1.432-0.028-2.79-0.876-3.345-2.307l-22.633-58.761h-54.453c-0.775,5.022-3.141,9.521-6.573,12.967    c-4.232,4.235-10.09,6.834-16.544,6.834s-12.312-2.629-16.544-6.834c-4.222-4.234-6.851-10.104-6.851-16.559    c0-6.455,2.629-12.296,6.851-16.53c4.232-4.235,10.09-6.864,16.544-6.864s12.312,2.629,16.544,6.864    C303.115,139.646,305.48,144.145,306.256,149.168z M306.256,371.77h54.176l42.01-120.471c0.512-1.461,1.898-2.396,3.376-2.396    h43.588c1.986,0,3.59,1.607,3.59,3.593c0,1.956-1.604,3.592-3.59,3.592h-41.047l-41.911,120.181    c-0.41,1.547-1.811,2.688-3.475,2.688h-56.717c-0.775,5.022-3.155,9.52-6.573,12.938c-4.232,4.234-10.09,6.862-16.544,6.862    s-12.312-2.628-16.544-6.862l-0.175-0.146c-4.12-4.235-6.676-10.018-6.676-16.385c0-6.455,2.629-12.295,6.851-16.53    c4.232-4.234,10.09-6.862,16.544-6.862s12.312,2.628,16.544,6.862C303.115,362.248,305.48,366.746,306.256,371.77z     M306.256,297.559h54.453l22.633-58.731c0.555-1.431,1.913-2.278,3.345-2.278l84.856-0.029c1.986,0,3.59,1.606,3.59,3.592    c0,1.986-1.604,3.594-3.59,3.594h-82.417l-22.503,58.438c-0.439,1.49-1.825,2.6-3.461,2.6h-56.906    c-0.775,5.023-3.141,9.521-6.573,12.967c-4.232,4.235-10.09,6.835-16.544,6.835s-12.312-2.6-16.544-6.835    c-4.222-4.233-6.851-10.075-6.851-16.56c0-6.453,2.629-12.295,6.851-16.529c4.232-4.234,10.09-6.863,16.544-6.863    s12.312,2.629,16.544,6.863C303.115,288.038,305.48,292.535,306.256,297.559z M66.494,448.025c-1.986,0-3.59-1.607-3.59-3.594    c0-1.985,1.604-3.593,3.59-3.593h245.791c1.973,0,3.58,1.607,3.58,3.593c0,1.986-1.607,3.594-3.58,3.594H66.494z M210.418,462.978    c-1.986,0-3.594-1.606-3.594-3.593s1.607-3.592,3.594-3.592h170.078c1.986,0,3.59,1.605,3.59,3.592s-1.604,3.593-3.59,3.593    H210.418z M397.917,462.978c-1.986,0-3.594-1.606-3.594-3.593s1.607-3.592,3.594-3.592h21.261c1.973,0,3.59,1.605,3.59,3.592    s-1.617,3.593-3.59,3.593H397.917z M56.812,462.511c-1.983,0-3.59-1.606-3.59-3.564c0-1.985,1.607-3.592,3.59-3.592h80.592    c1.973,0,3.594,1.606,3.594,3.592c0,1.958-1.621,3.564-3.594,3.564H56.812z M140.429,115.406c-1.986,0-3.594-1.607-3.594-3.592    c0-1.986,1.607-3.592,3.594-3.592h40.931c1.986,0,3.59,1.605,3.59,3.592c0,1.984-1.604,3.592-3.59,3.592H140.429z M205.863,67.685    c-11.521-11.536-27.455-18.661-45.051-18.661s-33.526,7.125-45.034,18.633c-11.536,11.535-18.66,27.453-18.66,45.063    c0,17.582,7.139,33.527,18.66,45.035c10.732,10.747,25.293,17.669,41.444,18.545v47.078H58.857v-76.049    c2.744-0.673,5.197-2.074,7.128-4.031c2.744-2.716,4.436-6.513,4.436-10.689c0-4.176-1.691-7.973-4.436-10.718    c-2.734-2.745-6.528-4.439-10.704-4.439c-4.194,0-7.974,1.694-10.718,4.439c-2.734,2.745-4.439,6.542-4.439,10.718    c0,4.177,1.706,7.974,4.439,10.689c1.927,1.957,4.38,3.358,7.125,4.031v76.049H29.595c-1.986,0-3.594,1.607-3.594,3.594    c0,1.984,1.607,3.592,3.594,3.592h22.092v76.051c-2.745,0.671-5.198,2.072-7.125,4c-2.734,2.745-4.439,6.543-4.439,10.719    s1.706,7.974,4.439,10.718c2.745,2.746,6.524,4.439,10.718,4.439c4.176,0,7.97-1.693,10.704-4.439    c2.744-2.744,4.436-6.542,4.436-10.718s-1.691-7.974-4.436-10.719c-1.931-1.928-4.384-3.329-7.128-4v-76.051h98.364v57.797    c-16.165,0.905-30.726,7.827-41.444,18.545c-11.536,11.535-18.66,27.453-18.66,45.064c0,17.581,7.139,33.527,18.66,45.034    c11.522,11.536,27.455,18.663,45.034,18.663c17.597,0,33.53-7.127,45.065-18.635c11.507-11.535,18.632-27.481,18.632-45.063    c0-17.582-7.125-33.529-18.646-45.035c-10.735-10.747-25.293-17.669-41.458-18.574v-57.797h91.763    c1.941,0,3.534-1.578,3.576-3.504c0.032,6.424,2.643,12.235,6.851,16.441c4.232,4.234,10.09,6.863,16.544,6.863    s12.312-2.629,16.544-6.863c3.433-3.416,5.798-7.914,6.573-12.938h176.149c1.986,0,3.594-1.607,3.594-3.592    c0-1.986-1.607-3.594-3.594-3.594H306.256c-0.775-5.022-3.141-9.52-6.573-12.938c-4.232-4.234-10.09-6.863-16.544-6.863    s-12.312,2.629-16.544,6.863c-4.208,4.205-6.818,10.018-6.851,16.443c-0.042-1.957-1.635-3.506-3.576-3.506h-91.763v-47.078    c16.165-0.876,30.722-7.798,41.472-18.516c11.507-11.537,18.632-27.482,18.632-45.064    C224.509,95.138,217.385,79.191,205.863,67.685z" style="fill-rule:evenodd;clip-rule:evenodd;"/>

</g>

</g>

<g id="Layer_1"/>

</svg>