<svg fill="currentColor" xmlns="http://www.w3.org/2000/svg" viewBox="14 57.9 168.2 131">
<!-- SVG created with Arrow, by QuiverAI (https://quiver.ai) -->
  <path d="m111 108.5-8.7-25.5s4.9 25.1 7.7 25.5z" fill="currentColor"/>
  <path d="m101.8 111.5-12.7-24c0.1-0.1 14 22.6 12.7 24z" fill="currentColor"/>
  <path d="m96 116.2-4.6-4.6s-0.8 0.5 0.1 1.2l4.1 3.2s0.7 0.9 0.4 0.2z" fill="currentColor"/>
  <path d="m92.9 120.3-10.5-5.6-0.4-0.3v0.6c-0.1 0.8 13.5 7.3 10.9 5.3z" fill="currentColor"/>
  <path d="m90.2 127.4c-3.7-0.7-16.8-2.9-17.2-2.3l16.2 2.9c1.1 0.1 1.9-0.2 1-0.6z" fill="currentColor"/>
  <path d="m115.6 107.6h0.4c0.7-2.2 1.6-24.2 1.1-24.2-0.6 6.7-2.5 23.5-1.5 24.2z" fill="currentColor"/>
  <path d="m123.5 109.2c0.5 1.9 1.9-2.6 9.3-21.5l-8.6 18.3c-0.1 0.6-0.9 2.5-0.7 3.2z" fill="currentColor"/>
  <path d="m130.6 113.2 0.4 0.4c0.5 0.6 13-14.6 14.9-17.4-3.8 3.5-15.9 15.7-15.3 17z" fill="currentColor"/>
  <path d="m135.9 120c0 1.8 12.2-6.4 16.7-10.4-5.5 2.8-17.5 9.3-16.4 10.1h-0.3z" fill="currentColor"/>
  <path d="m139 127 0.2 0.6c0.2 0.4 7.5-1.5 9.8-1.6l0.6-1c-0.4-0.2-10.7 1.7-10.6 2z" fill="currentColor"/>
  <radialGradient id="SVGID_1_" cx="-283.5" cy="-44.69" r="22.3" gradientTransform="matrix(1 0 0 1.242 388 172.6)" gradientUnits="userSpaceOnUse">
    <stop stop-color="#FFF3CA" offset="0"/>
    <stop stop-color="#FCB626" offset="1"/>
  </radialGradient>
  <path d="m136.9 137.9c3.8-12.8-6.6-27.1-21.7-27.2s-24.2 12.3-22.5 25.5c13.3 3.8 26.9 8.9 44.2 1.7z" fill="url(#SVGID_1_)"/>
  <linearGradient id="SVGID_2_" x1="46.7" x2="96" y1="162.6" y2="162.6" gradientTransform="matrix(1 0 0 -1 0 248)" gradientUnits="userSpaceOnUse">
    <stop stop-color="#4B6E30" offset="0"/>
    <stop stop-color="#6D8933" offset="1"/>
  </linearGradient>
  <path d="m46.7 162.9c6.1 2.1 11.5 4.2 22.9 4.5 10.4-0.3 17.4-1.8 26.4-4.7l-21.2-5.7c-3.8-0.4-6.6-0.3-8.7-0.1-3.6 0.5-12.4 3.2-19.4 5.5v0.5z" fill="url(#SVGID_2_)"/>
  <path d="m55.4 148.3c6.7 0.3 10 0.3 20 3.8-6-0.6-9.8-1.5-18.8 0.5 14.4 1.9 22.3 4.7 25.9 5.5l30.9-0.7 18.2-8.8-18.2-6.1c-4.2-1.1-11.6-3.5-19.2-6.3-2.1-0.7-4.8-1.3-8.6-0.1-6.6 2-22.6 8.5-23.6 8.9l-6.6 3v0.3z" fill="url(#SVGID_3_)"/>
  <linearGradient id="SVGID_3_" x1="92.2" x2="146" y1="145" y2="145" gradientTransform="matrix(1 0 0 -1 0 248)" gradientUnits="userSpaceOnUse">
    <stop stop-color="#618031" offset=".1388"/>
    <stop stop-color="#4D6C28" offset=".595"/>
    <stop stop-color="#46621F" offset="1"/>
  </linearGradient>
  <path d="m92.7 150.9c4.4-1.2 16.7-6.9 25.7-9.8 7.5-2.5 13.5-4 19.6-3.5 5.1 0.4 14 2 22.5 6.5l15.4 10.8c-10-3.8-22.4-7-38.2-6.8-13.7 0.1-24.6 5.5-40.6 11.5l-4.4-8.7z" fill="url(#SVGID_3_)"/>
  <linearGradient id="SVGID_4_" x1="68.69" x2="101.6" y1="144.5" y2="144.5" gradientTransform="matrix(1 0 0 -1 0 248)" gradientUnits="userSpaceOnUse">
    <stop stop-color="#374E21" offset="0"/>
    <stop stop-color="#365123" offset="1"/>
  </linearGradient>
  <path d="m68.7 147.6c8.2-0.6 18.4 1 22.8 2.6l10.1 4.3-20.2 3.9-6.7-1.3 2.7-0.1c1.8-0.4 19.2-3.8 20.2-3.9-4.7-1-14.6 2.5-20.9 1-2.7-0.7-3.3-1.6-8-3l6.9 1.3c-2.1-2-7.1-3.8-6.9-4.8z" fill="url(#SVGID_4_)"/>
  <linearGradient id="SVGID_5_" x1="63.5" x2="95.54" y1="139.5" y2="139.5" gradientTransform="matrix(1 0 0 -1 0 248)" gradientUnits="userSpaceOnUse">
    <stop stop-color="#45682C" offset="0"/>
    <stop stop-color="#36471E" offset="1"/>
  </linearGradient>
  <path d="m63.5 165c3-1.1 7-3.1 10.5-3.5l5.4-1.4c6.5 0 11.6 1 16.1 2.6l-11.6 3-5.9-1.7h-2.8l3.2-1.3-4.4-1.2-2.8 0.2-7.7 3.3z" fill="url(#SVGID_5_)"/>
  <linearGradient id="SVGID_6_" x1="125" x2="143.1" y1="148.2" y2="148.2" gradientTransform="matrix(1 0 0 -1 0 248)" gradientUnits="userSpaceOnUse">
    <stop stop-color="#546D2B" offset="0"/>
    <stop stop-color="#58752C" offset="1"/>
  </linearGradient>
  <path d="m125 145.5c3.1-2.1 8.6-5.9 8.7-7.5 1.5-0.3 7.2-0.3 9.4 0.6l0.4 5.4c-3.3-0.4-6.4 2.5-13.1 4.6l-5.4-3.1z" fill="url(#SVGID_6_)"/>
  <path d="m84.4 144.1 2-1.1c2.7-3.6 3-5.5 2.7-7.6l3.4 0.7 6 7.4-7.8-5.4 3 4.8-4-0.9-5.3 2.1z" fill="currentColor" opacity=".6"/>
  <path d="m95.4 138.5 14.7 5.6-9.9 3.4-1.5-4.3 1.3 0.4-4.6-5.1z" fill="currentColor" opacity=".46"/>
  <linearGradient id="SVGID_7_" x1="68.9" x2="99.9" y1="141.4" y2="141.4" gradientTransform="matrix(1 0 0 -1 0 248)" gradientUnits="userSpaceOnUse">
    <stop stop-color="#375123" offset="0"/>
    <stop stop-color="#3D5524" offset="1"/>
  </linearGradient>
  <path d="m69 147.1 7-2.2c1.9-0.7 4.7-1.4 8.4-1.3l-0.3 0.5 2.9-0.2 8.1 1.2 4.8 1.9-8.4 4.2-6.3 1.2c-5.5 1.7-8.7 1.7-11.2 0.7l-5.1-2.2 6.2 0.8-6.1-4.6z" fill="url(#SVGID_7_)"/>
  <linearGradient id="SVGID_8_" x1="85.6" x2="126.6" y1="141.6" y2="141.6" gradientTransform="matrix(1 0 0 -1 0 248)" gradientUnits="userSpaceOnUse">
    <stop stop-color="#3E5926" offset="0"/>
    <stop stop-color="#607C31" offset="1"/>
  </linearGradient>
  <path d="m93.4 150.5 4.5-1.9 10.1-3.6 6.2-2.1 17.4 5.5-7.4 2.2-16.6 5.2-7.6-2.6-6.6-2.7z" fill="url(#SVGID_8_)"/>
  <linearGradient id="SVGID_9_" x1="81.6" x2="123.9" y1="136.8" y2="136.8" gradientTransform="matrix(1 0 0 -1 0 248)" gradientUnits="userSpaceOnUse">
    <stop stop-color="#364C21" offset="0"/>
    <stop stop-color="#283E19" offset="1"/>
  </linearGradient>
  <path d="m81.6 158.5 15.8-4.5c5.7 0.4 9.2 2.6 14.1 1.9l-15.6 6.5c-5.2-1.4-8.5-2.5-14.3-3.9z" fill="url(#SVGID_9_)"/>
  <linearGradient id="SVGID_10_" x1="93.4" x2="123.9" y1="139.3" y2="139.3" gradientTransform="matrix(1 0 0 -1 0 248)" gradientUnits="userSpaceOnUse">
    <stop stop-color="#34481D" offset="0"/>
    <stop stop-color="#263A18" offset="1"/>
  </linearGradient>
  <path d="m93.4 150.5c7.7-3.1 14.5 3.5 20 3h4.2l6.3-2.4c-4.5-0.9-6-3-8.9-2.7l-21.6 2.1z" fill="url(#SVGID_10_)"/>
  <linearGradient id="SVGID_11_" x1="42.7" x2="171.7" y1="124.9" y2="124.9" gradientTransform="matrix(1 0 0 -1 0 248)" gradientUnits="userSpaceOnUse">
    <stop stop-color="#FBB81E" offset=".006723"/>
    <stop stop-color="#FDC526" offset=".4612"/>
    <stop stop-color="#FBBD2D" offset=".5545"/>
    <stop stop-color="#EFAD37" offset=".7016"/>
    <stop stop-color="#DD9737" offset=".8842"/>
    <stop stop-color="#CE8837" offset="1"/>
  </linearGradient>
  <path d="m42.7 164.9c1-0.3 8.9 4.7 23.7 5.1 22.6 0.4 36.3-6.8 48.5-11.5 12.5-4.6 19.1-8 31.7-7.9 11.4 0.3 19.8 4.5 25.1 10.5-30.1-13.2-42.7-2.7-66.8 5.9-20.2 8.6-43.8 12.9-62.2-2.1z" fill="url(#SVGID_11_)"/>
  <linearGradient id="SVGID_12_" x1="37.41" x2="157.5" y1="114.8" y2="121.3" gradientTransform="matrix(1 0 0 -1 0 248)" gradientUnits="userSpaceOnUse">
    <stop stop-color="#073478" offset="0"/>
    <stop stop-color="#045AAE" offset=".4831"/>
    <stop stop-color="#073E8B" offset=".8539"/>
    <stop stop-color="#073478" offset="1"/>
  </linearGradient>
  <path d="m45.6 171c6.3 3.5 19.1 7.6 31.5 6.7 19.4-0.8 30.8-8.3 46.1-14.7 10.5-3.5 16.4-6 26.4-5.4 7.5 0.4 12.1 2.8 16.9 6.6-21-4.8-32.5 0.8-45.6 6.7-14.9 6.1-22.9 9.2-36.9 10-11.5 0.6-18.3-0.4-28-4.5-3.6-1.4-7.9-3.8-10.4-5.4z" fill="url(#SVGID_12_)"/>
  <linearGradient id="SVGID_13_" x1="67.59" x2="165.6" y1="113.1" y2="113.1" gradientTransform="matrix(1 0 0 -1 0 248)" gradientUnits="userSpaceOnUse">
    <stop stop-color="#AF1E24" offset="0"/>
    <stop stop-color="#DB1F30" offset=".5225"/>
    <stop stop-color="#DA1F26" offset="1"/>
  </linearGradient>
  <path d="m67.6 182c8 2.6 22.1 5.1 34 3.9 18.8-2.3 27.4-9 37.4-12.9 6.6-3 10.9-4 15.5-4.1 4 0 8.6 0.5 11.1 1.7-4.4-5-9.6-7-17.2-7-12.5 0-24.2 6.8-31.7 9.8-12.3 5.2-22 9.5-37.3 9.6l-11.8-1z" fill="url(#SVGID_13_)"/>
  <path d="m144.2 144.6c-1.2-5.1-1.2-9.6-1.7-9.6l-1.6 2.6c-1.7-2.1-1.7-3.1 0.7-4.5-1.9 0.3-2.9 0.9-3.6 1.9-0.1-2 2.2-3.6 3.4-3.1-0.2-1-2-1.4-2.5-1 1.3-2.7 3.8-0.7 3.5 0.7 0.7-2.2 2.7-3.4 3.5-2.5l-2 2.6c1.8-1.2 4.1-1.2 4.5 2.3-0.5-1-2.8-1.8-4.5-1.1 1.7 0 3.7 1.5 2.7 4.1l-3-2.6 1.3 10c3.1-0.3 6.2 0.5 11.5 1.1 2.2-0.4 5.8 0.2 7.6 0.5l10.7 8.4c-15.3-4.9-26.3-6.4-39.3-6.4 1.5-1 4.2-2.6 8.8-3.4z" fill="currentColor"/>
  <path d="m164 146.5c0.4-2.5 3.9-9.8 5-9.9 0.4 2.4 0.4 5 0.4 5 2.2-2 2.2-4.6 0.3-5.1 2 0.1 3.3 2.9 2.9 4 1.8-2.6 0.6-4.5-1-5.5 1.6-0.4 3.1 1.2 3.5 2 0.3-3-2.2-3.6-3.9-3.4 1.5-1.5 2.9-1.5 3.5-0.9-1.2-2.8-3.7-2-4.8-0.1-0.3-2.5-2.5-3.5-3.9-2.5l2.1 3.1c-1.6-1.5-4.4-0.8-4.5 1.4 0.5-1.1 2.9-0.5 4.1-0.1-3 0.1-4 3.2-3.2 4.4 0.2-1.5 2.6-2.4 4-2.3-1.8 2.5-4.4 9.8-4.4 9.8l-0.1 0.1z" fill="currentColor"/>
  <path d="m156 143.4c0.5-5 0.1-13.2-0.3-13.8-1.5 2.1-2.7 4.3-3 6.8-1.7-1.8-2-6.2 1.4-8.4-2.6 1.6-5.2 2.9-6.1 5.1-0.4-3.7 1.6-6.5 5-6.5-1-1-5.1-1-6 0.1 0.7-3 4.4-3.3 7.1-1.6l-1.6-1.6c-1-1.4-1.9-1.6-3.1-1.4 1.5-2.1 5-1.5 6.8 1.9 1.2-4 4.8-5.4 6.9-3-1.4-0.3-3.1 0.9-4.6 3.4 3.4-1.3 6.9-0.7 7.6 3.6-0.9-1.3-3.4-2.5-7-1.4 2.6 0.3 5.4 3 5.3 6.5l-4.3-4.5c2 1.9 2.9 5.4 1.8 7.4-0.3-2.5-3.3-6.4-4.3-6.5 0.8 4.6 1.4 10.7 1 14.9l-2.6-1z" fill="currentColor"/>
  <linearGradient id="SVGID_14_" x1="15.7" x2="46" y1="155.6" y2="155.6" gradientTransform="matrix(1 0 0 -1 0 248)" gradientUnits="userSpaceOnUse">
    <stop stop-color="#132A63" offset="0"/>
    <stop stop-color="#0853A0" offset=".5506"/>
    <stop stop-color="#13275C" offset="1"/>
  </linearGradient>
  <path d="m46 129.7-22.5 30.5-7.3 10.8c-0.2 1.6 6.8-3.6 7.8-4.4 10-8.7 19.2-20.6 22-26v-10.9z" fill="url(#SVGID_14_)"/>
  <linearGradient id="SVGID_15_" x1="22.3" x2="56.7" y1="156.6" y2="156.6" gradientTransform="matrix(1 0 0 -1 0 248)" gradientUnits="userSpaceOnUse">
    <stop stop-color="#181630" offset="0"/>
    <stop stop-color="#124A8E" offset=".5054"/>
    <stop stop-color="#15234A" offset="1"/>
  </linearGradient>
  <path d="m54.1 127.5-12.6 18.4c-2 3.8-6.4 13-6.3 14 6.9-3.5 15.7-20.8 21.5-31.9l-2.6-0.5z" fill="url(#SVGID_15_)"/>
  <linearGradient id="SVGID_16_" x1="46.4" x2="57.25" y1="157.9" y2="157.9" gradientTransform="matrix(1 0 0 -1 0 248)" gradientUnits="userSpaceOnUse">
    <stop stop-color="#181630" offset="0"/>
    <stop stop-color="#124A8E" offset=".5884"/>
    <stop stop-color="#15234A" offset="1"/>
  </linearGradient>
  <path d="m56.5 128.2c-3.3 9.7-10.6 23.2-10.1 23.9 2.7 0.9 9.2-17.5 10.8-22.2l-0.7-1.7z" fill="url(#SVGID_16_)"/>
  <linearGradient id="SVGID_17_" x1="54.4" x2="60.4" y1="161" y2="161" gradientTransform="matrix(1 0 0 -1 0 248)" gradientUnits="userSpaceOnUse">
    <stop stop-color="#151936" offset="0"/>
    <stop stop-color="#122C62" offset=".3488"/>
    <stop stop-color="#11306A" offset="1"/>
  </linearGradient>
  <path d="m59.4 126.2c0 4.3-5.3 15-5 18.3 1.8 2 6.3-12.9 6-20.5l-1 2.2z" fill="url(#SVGID_17_)"/>
  <linearGradient id="SVGID_18_" x1="23.2" x2="45.7" y1="152.9" y2="152.9" gradientTransform="matrix(1 0 0 -1 0 248)" gradientUnits="userSpaceOnUse">
    <stop stop-color="#771422" offset="0"/>
    <stop stop-color="#BF202F" offset=".5112"/>
    <stop stop-color="#961A1D" offset="1"/>
  </linearGradient>
  <path d="m45.7 128.7c-5.2 6.7-22.1 25.9-23.7 28.4 0.9 1 22.4-15.9 23.7-22.4v-6z" fill="url(#SVGID_18_)"/>
  <linearGradient id="SVGID_19_" x1="23.14" x2="48.64" y1="159.4" y2="159.4" gradientTransform="matrix(1 0 0 -1 0 248)" gradientUnits="userSpaceOnUse">
    <stop stop-color="#67131D" offset="0"/>
    <stop stop-color="#AC2028" offset=".4725"/>
    <stop stop-color="#771422" offset="1"/>
  </linearGradient>
  <path d="m49.7 121.5c-5 3.5-26 10-24.8 10.4 7.1 0.8 15-2.4 17.8-4l5.9-2.3c-5.6 5.1-25.6 17-25.5 17.3 3.1 0.2 14.1-6 20.9-11.5l4.6-3.4 1.1-6.5z" fill="url(#SVGID_19_)"/>
  <linearGradient id="SVGID_20_" x1="26" x2="54" y1="162.6" y2="162.6" gradientTransform="matrix(1 0 0 -1 0 248)" gradientUnits="userSpaceOnUse">
    <stop stop-color="#5E1320" offset="0"/>
    <stop stop-color="#11234A" offset=".5112"/>
    <stop stop-color="#0A1228" offset="1"/>
  </linearGradient>
  <path d="m54 117.7c-7.8 4.9-27.4 12.8-28 13.4 6.9-0.6 14.4-2.7 19.7-5.4l5.2-3.3 3.1-4.7z" fill="url(#SVGID_20_)"/>
  <linearGradient id="SVGID_21_" x1="35.44" x2="59.56" y1="204.9" y2="181.9" gradientTransform="matrix(1 0 0 -1 0 248)" gradientUnits="userSpaceOnUse">
    <stop stop-color="#152B58" offset="0"/>
    <stop stop-color="#08539F" offset=".4725"/>
    <stop stop-color="#162657" offset="1"/>
  </linearGradient>
  <path d="m57.4 77.4c-4-5.7-9.9-18-12-19.5-1.4 0.7-0.5 7.7 5.5 17-4.9-4.3-11.4-13.4-13-13.4-1.5 3 4.8 13.1 13.6 19.7l-15.5-11c-2.9-0.2 1 8.8 10.7 13.3-4.2-1.3-8.7-4.5-11.1-4.5-0.5 2.5 2.9 5.6 6.1 7-2.2-1-4.7-1.6-5.2-1.6-0.9 1.6 1.4 3.8 3.6 4.8l-2.6-0.1c-0.6 1.9 1 3.3 3 3.8-0.8 0-2.1-0.2-2.5 0.1-0.3 1.9 2 3.7 4.1 3" fill="url(#SVGID_21_)" stroke-miterlimit="10" style=""/>
  <linearGradient id="SVGID_22_" x1="51.3" x2="60.4" y1="198.8" y2="198.8" gradientTransform="matrix(1 0 0 -1 0 248)" gradientUnits="userSpaceOnUse">
    <stop stop-color="#132654" offset="0"/>
    <stop stop-color="#084688" offset=".4444"/>
    <stop stop-color="#1B2045" offset="1"/>
  </linearGradient>
  <path d="m60.4 83c-3.2-4.1-10.2-22.8-8-22.6 1.1 0.5 2.8 10.6 8 19.6v3z" fill="url(#SVGID_22_)"/>
  <linearGradient id="SVGID_23_" x1="45.59" x2="66.48" y1="172.6" y2="174.3" gradientTransform="matrix(1 0 0 -1 0 248)" gradientUnits="userSpaceOnUse">
    <stop stop-color="#0C4890" offset="0"/>
    <stop stop-color="#064389" offset=".4332"/>
    <stop stop-color="#0F2146" offset="1"/>
  </linearGradient>
  <path d="m51.4 117.5c3.6 0.2 6.6-2.5 9.2-4.9l6.9-3.5 0.6-9.5-6.9-19.5-5.7-11.4 3.7 10.4-9.6 8.9 2.8 21.6-1 7.9z" fill="url(#SVGID_23_)"/>
  <path d="m51 119.4c3 0.5 9-5 10.6-7.2l-2.5-2.1-8.9 8.5 0.8 0.8z" fill="currentColor"/>
  <linearGradient id="SVGID_24_" x1="41.76" x2="58.62" y1="180.1" y2="180.9" gradientTransform="matrix(1 0 0 -1 0 248)" gradientUnits="userSpaceOnUse">
    <stop stop-color="#134184" offset="0"/>
    <stop stop-color="#0754A1" offset=".4664"/>
    <stop stop-color="#102248" offset="1"/>
  </linearGradient>
  <path d="m43.9 103.1c-1.7 0.5-2.8 3.8 1.1 4-2 1.5-1.5 2.8 0.9 3.5-1.4 1.9 0.1 2.9 1.6 2.5-1.9 1.8 0.4 2.6 2.4 2.3-2 1.7 0.2 0.7 3.6-1.3l6.2-7.1-3.2-11.3-4.6-5.1-9.7 5.6 1.7 6.9z" fill="url(#SVGID_24_)"/>
  <path d="m45.4 131.1-0.3 3c2.5 0.8 7.8-2 9.9-3.7l0.1-2-9.7 2.7z" fill="currentColor"/>
  <linearGradient id="SVGID_25_" x1="37.77" x2="55.16" y1="188" y2="188.5" gradientTransform="matrix(1 0 0 -1 0 248)" gradientUnits="userSpaceOnUse">
    <stop stop-color="#162453" offset="0"/>
    <stop stop-color="#084690" offset=".4664"/>
    <stop stop-color="#172145" offset="1"/>
  </linearGradient>
  <path d="m42 96.6c-2.6 0.3-3.4 3.3 0.2 3.4-2.6 1.7-1.7 3.5 1.8 3.5l10.1-2.8 0.5-6v-1.8l-11-1.5-1.6 5.2z" fill="url(#SVGID_25_)"/>
  <linearGradient id="SVGID_26_" x1="38.18" x2="55.44" y1="191.5" y2="191.5" gradientTransform="matrix(1 0 0 -1 0 248)" gradientUnits="userSpaceOnUse">
    <stop stop-color="#101E44" offset="0"/>
    <stop stop-color="#084388" offset=".4167"/>
    <stop stop-color="#172145" offset="1"/>
  </linearGradient>
  <path d="m41.1 92.1c-2 0-3.2 0.3-2.7 1.4 0.5 1.5 2.7 3 6.2 2.2l10.8-0.7-1.9-4.8-8.1-4.2-4.3 6.1z" fill="url(#SVGID_26_)"/>
  <linearGradient id="SVGID_27_" x1="36.9" x2="54.75" y1="196" y2="196.2" gradientTransform="matrix(1 0 0 -1 0 248)" gradientUnits="userSpaceOnUse">
    <stop stop-color="#112046" offset="0"/>
    <stop stop-color="#07438A" offset=".2692"/>
    <stop stop-color="#122C62" offset=".5388"/>
    <stop stop-color="#142349" offset="1"/>
  </linearGradient>
  <path d="m40.7 89-3.1-1.3c-1.4 0.8 0.1 3.7 3.3 4.5l13.7 1.3-0.2-3.5-9.9-5-3.8 4z" fill="url(#SVGID_27_)"/>
  <path d="m56.2 82.7-1.7 3.4c-0.3 0.4 1.7 10.6 2.1 9.3l3.4-8.8-3.8-3.9z" fill="currentColor"/>
  <path d="m59.2 79c-0.8 1.9 1.7 6.2 1.4 7.1l-1.2-1.5c-0.5 1 0.3 2.5 0.6 3.4-1.1 0.7-1.1 2.2-0.8 3.4h-0.6l-0.2 1.6h-1l0.1 1.5-1.5 0.5 1.6 1.5-2.5 0.5 2.5 2-2.4 0.7 1.8 0.9-2.1 1.4 2.2 0.6-1.5 1 3 1.1-2.7 0.9 2.6 0.4-1.9 1.4 1.4 0.5-1.4 0.7 1.4 0.6-1.1 0.9 3-0.1-2.3 0.9 2.9 0.1-1.4 1.2 2-0.3-2.2 1 2.2-1-1.9 0.6c1.3 0.1 7.3-2 9.3-5.3l-1.3-9.2-1.5-8-5.2-9.6-1.3-1.4z" fill="currentColor"/>
  <linearGradient id="SVGID_28_" x1="57.2" x2="72.5" y1="187" y2="187" gradientTransform="matrix(1 0 0 -1 0 248)" gradientUnits="userSpaceOnUse">
    <stop stop-color="#CD1F27" offset="0"/>
    <stop stop-color="#DE2528" offset="1"/>
  </linearGradient>
  <path d="m61.1 82.1c0.3 1.9 0 5.9 0 5.9-2 5.1-2 7.1-1 10l-2.9 0.7 2.4 14.3c3.1-2.9 12.9-6.4 12.9-7-4.8-3.6-5.6-8.1-5.9-13.4-0.7-3.2-2.7-5.9-5.5-10.5z" fill="url(#SVGID_28_)"/>
  <path d="m72.2 104c3.3-0.9 5.7-4.1 8.9-5.3l1.4 2.3-3.8 5.5-4.3-1.6-2.2-0.9z" fill="currentColor"/>
  <linearGradient id="SVGID_29_" x1="51.5" x2="82.9" y1="173.6" y2="173.6" gradientTransform="matrix(1 0 0 -1 0 248)" gradientUnits="userSpaceOnUse">
    <stop stop-color="#CC1F27" offset="0"/>
    <stop stop-color="#CF2030" offset="1"/>
  </linearGradient>
  <path d="m51.5 119.5c8-4.8 19-12.5 19.6-13-2.7-1.5-4.6-4.9-5.5-10l-0.9-3.1-0.3 1.8-2.4-2.5 2.4 2.3 0.3 1.2-4.3-0.3c-0.8 4.1 2 12.8-1.4 16.6l1.6-0.3-1.6 0.7 1.5 0.1-0.8-0.9c-0.3 1.5 3.2-1.1 3.8-2.1-0.6 1.6-3.5 3.1-4.3 2.5-0.7 0.1-1.1 1.4 0.8 0.4-0.8 0.8-1.5 1 0.2 0l-5 4-3.7 2.6z" fill="url(#SVGID_29_)"/>
  <linearGradient id="SVGID_30_" x1="51.5" x2="83" y1="175" y2="175" gradientTransform="matrix(1 0 0 -1 0 248)" gradientUnits="userSpaceOnUse">
    <stop stop-color="#FDC41F" offset="0"/>
    <stop stop-color="#FAAE1A" offset="1"/>
  </linearGradient>
  <path d="m57.2 115.6c3-1.1 7.5-2.6 7.2-2.2l0.5 0.6c1.2-0.1 2.2-1.1 2.2-1.1l-0.7 1.5c1.1-0.2 1.3-0.7 1.6-0.7l-0.4 1.2 0.8-1.5c-0.8 1.1-3 2.5-2.5 3.5-0.7 0.6-0.3 1.2 1.1 0.6l-0.9 0.9 1.9-0.5-0.8 1.1c0.5 0.4 0.8-0.1 1.5-0.5l-1.2 1 2 0.6-0.8 0.6c0.8 0.3 1.5 0.2 2.4-0.3l-1.1 1.2 2.1-0.5-1.1 0.8 2-0.3c0.1 0-0.1 0.9 0.9-0.6 1 0.1-0.5 1.4-0.8 1.9v0.1c-0.7 0.6-8.4 3.6-12.4 3.6 0.9-1.2 3.5-2.4 4.5-3l-2.6 0.8 1-1.5-3.4 3.2 2.3-3.6c-1.6 1.5-3.9 2.1-4.8 2.1 0.3-2.1 2.7-3.7 3.3-4.1l-3 1.2 2.5-2.6-4.8 3c0.3-1 2.2-3.1 3.2-3.5l-4.7 1.3 2.7-2.5-5.4 2.6 0.5-0.9 5.2-3.5z" fill="url(#SVGID_30_)"/>
  <linearGradient id="SVGID_31_" x1="63.3" x2="92.25" y1="181" y2="181" gradientTransform="matrix(1 0 0 -1 0 248)" gradientUnits="userSpaceOnUse">
    <stop stop-color="#CD1F27" offset="0"/>
    <stop stop-color="#CB1F30" offset="1"/>
  </linearGradient>
  <path d="m72.2 104c2.5-0.5 4.9-3.8 8.9-5.5 3.9-1.5 11.8-1.6 11.1 2.7-2.2 2.4 0.7 3.4-1.6 8.8-3-2-5-0.1-8 4.9-2.1 3.1-4.1 5.1-9.5 8-0.1 0 1.4-1.8 0.8-2.3l-1.8 0.9-0.1-0.9-1.1 0.9h-1.5l0.6-1h-1.6l-1.3-0.9 0.9-1.2-1.1 0.1-0.9-0.8 0.1-1.1 0.1-0.9 1.8-2.8-2.9 1.3v-0.8l-1.6 0.5-0.4-0.5c-4.1 1.1-6.5 2-6.5 1.6l5-3.4 5.6-4.2 4-0.9c-1.7-0.9-3.7-3.4-4.5-5.5l3.3 2 2.2 1z" fill="url(#SVGID_31_)"/>
  <path d="m73 104c4.1-0.1 3.9-2.6 7-1.9-1.6-1-2.6-1.1-4-1.1l-3.6 2.6 0.6 0.4z" fill="currentColor"/>
  <path d="m84.4 110.6-1.9 2.6c-2.9 0.8-5.9-1.8-1.3-9.1l3.2 6.5z" fill="currentColor"/>
  <path d="m81 103-0.6-1.5c2.8-2.5 5.7-2.9 7.8-0.9l-0.2 3.4c-1.3 1.4-3.9 2.2-3.6 5.9-4.8-0.9-4.5-4.8-3.4-6.9z" fill="currentColor"/>
  <linearGradient id="SVGID_32_" x1="87.96" x2="83.92" y1="182.2" y2="175.2" gradientTransform="matrix(1 0 0 -1 0 248)" gradientUnits="userSpaceOnUse">
    <stop stop-color="#110C0D" offset="0"/>
    <stop stop-color="#050404" offset="1"/>
  </linearGradient>
  <path d="m84.4 110.6c2.6 1 5.6-0.2 6.6-1.2l-0.8-4.3-2.6-0.1c-2 0.9-4.7 3.9-3.2 5.6z" fill="url(#SVGID_32_)"/>
  <path d="m87.6 105.5 3.5 3.6c-1.7 0.4-4.1-3.4-3.5-3.6z" fill="currentColor"/>
  <path d="m91.6 101.4c2.1 2.6 2.1 7.5-1.6 11.2 1.6-4-2.3-6.5-0.6-9.4l2.2-1.8z" fill="currentColor"/>
  <linearGradient id="SVGID_33_" x1="88.4" x2="92.19" y1="183.1" gradientTransform="matrix(1 0 0 -1 0 248)" gradientUnits="userSpaceOnUse">
    <stop stop-color="#DEC3A2" offset="0"/>
    <stop stop-color="#F0DBBC" offset="1"/>
  </linearGradient>
  <path d="m91.1 101.5c1.8 2.5 2.3 5.9 0 8 0.6-1.6-3.2-3.5-2-6.4l2-1.6z" fill="url(#SVGID_33_)"/>
  <path d="m88.5 100 0.1-1c1.5-0.1 3.4 1 2.9 2.2-1.5-0.6-3 0.9-3.5 1.8v-2.6l0.5-0.4z" fill="currentColor"/>
  <path d="m88.9 98.9c0.6-0.2 1.1 0.6 1.1 1-0.6-0.8-1.3-0.3-1.1 0.2-0.5 0-0.7-1.1 0-1.2z" fill="currentColor"/>
  <path d="m80.9 104c2.1 1 6.1 0.9 7-0.1-1.3 0.7-6 1.1-7 0.1z" fill="currentColor"/>
  <path d="m81.2 103.5c1.8 1 5.9 0.5 6.3-0.4-0.9 0.8-5.1 1.1-6.3 0.4z" fill="currentColor"/>
  <path d="m83 103c1 0.6 4.2 0.1 4.7-0.6-0.5 0.3-3.3 1.5-4.7 0.6z" fill="currentColor"/>
  <ellipse cx="84.7" cy="101.5" rx="1.5" ry="1.1" fill="currentColor"/>
  <circle cx="84.7" cy="101.5" r="1" fill="currentColor"/>
  <circle cx="85" cy="101.6" r=".6" fill="currentColor"/>
  <circle cx="84.7" cy="101.5" r=".5" fill="currentColor"/>
  <circle cx="85.5" cy="101.5" r=".2" fill="currentColor"/>
  <linearGradient id="SVGID_34_" x1="72.9" x2="75.42" y1="178.9" y2="178.9" gradientTransform="matrix(1 0 0 -1 0 248)" gradientUnits="userSpaceOnUse">
    <stop stop-color="#581019" offset="0"/>
    <stop stop-color="#2F1417" offset="1"/>
  </linearGradient>
  <path d="m73 104c1.4-0.1 2.4 2.2 2.4 2.6-0.4-0.7-1.3-1.6-2.3-2.1l-0.1-0.5z" fill="url(#SVGID_34_)"/>
  <linearGradient id="SVGID_35_" x1="54.9" x2="65.9" y1="179.5" y2="179.5" gradientTransform="matrix(1 0 0 -1 0 248)" gradientUnits="userSpaceOnUse">
    <stop stop-color="#F4CD21" offset="0"/>
    <stop stop-color="#F9A820" offset="1"/>
  </linearGradient>
  <path d="m59.5 95.9c-4-1.9-5.4 0.8-0.5 1.7-4-0.9-5.8 2.3 0.5 1.4-4.5 0.4-6.6 3.4 0.1 2.5-3.6 1.1-4.9 3.4-0.9 2.9-3.2 1.1-2.7 4.6 1 2.6-2.6 2.5-2.8 4.6 1.2 2.5l-1.5 2.5c2-0.5 5.1-2.4 3.1-3.4l2-1.6h-2.6l1.1-1.4-1.4-0.6 0.8-1-2.3-0.4 1.4-1.1-1.9-0.8 1.9-1-2.1-1.3 1.6-1.7-1.6-0.8h1.6l-1.5-1z" fill="url(#SVGID_35_)"/>
  <path d="m62.5 107c1.5-1.3 3.9-3 3.9-3l-3.4 3.7-0.5-0.7zm-1.5-4c0.9-0.6 4.4-1.8 4.9-2l-4.4 3-0.5-1zm-0.4-2 4.3-1.4-3.8 2.1-0.5-0.7zm-0.5-2 4.3-1-3.9 1.7-0.4-0.7z" fill="currentColor"/>
  <path d="m65.1 107 2.4-0.6 2 1-3.9 2.2-0.5-2.6z" fill="currentColor"/>
  <path d="m90.5 108 1-0.4-0.5 1.6-0.5-1.2z" fill="currentColor"/>
  <path d="m56.2 82.9-5.1-5.2 6.4 6.2-1.8-0.5 0.9 1.6h-1.2l2.1 1.9-2.4-1.5-0.5-2.8 1.6 0.3zm-1 3.5-1.2 4.5 1.5-1.3-1 2 1.2-0.1-1.7 1.5 0.5 1h1.1l-1.1 1 0.5 0.4-1 0.6 0.9 0.7-1 0.2-3.4-0.5 3.5-0.8-1-0.6 1-0.4-0.5-0.7 0.5-1.4-0.5-0.6 0.9-1.8-0.3-1.1 0.8-2.5 0.3-0.1z" fill="currentColor"/>
  <path d="m45.6 78.2 9.4 6.7-1.5 1.5-7.9-8.2zm-1.5 5.3 10.4 6-1.1 0.5-9.3-6.5zm-3.1 1.9 13 5.6-0.4 0.9-12.6-6.5zm-0.5 1.6 13.4 3.9 0.3 1-13.7-4.9z" fill="currentColor"/>
  <path d="m40 93.9 13.7 0.6 0.3 1-14-1.6zm1 4.1 12.4-2.6 1.1 1.5-13.5 1.1zm1.5 5.5 13-3.5-0.9 1.6-12.1 1.9zm2.4 3.9c2.7-0.7 9.1-3.4 10.6-3.4l-10.5 4.4-0.1-1zm1.1 3.2c3.2-0.7 8-3.2 9.5-5l-0.6 1.8-8.3 3.7-0.6-0.5zm1.5 2.9c1.7-0.9 7.9-4.6 8.2-5.5l-1.7 3-5.9 3.4-0.6-0.9zm2.1 2.1 5.9-4c-0.8 1.3-3.5 3.9-3.9 5.3l-2-1.3z" fill="currentColor"/>
  <path d="m36.6 149.9 10.8-14.4 2.6-2.3-6 9.7-7.4 7z" fill="currentColor"/>
  <path d="m51.6 132.1 3.8-2.4-5.3 4.2 1.5-1.8z" fill="currentColor"/>
</svg>