<svg xmlns="http://www.w3.org/2000/svg" viewBox="0 0 150 141.7">
<!-- SVG created with Arrow, by QuiverAI (https://quiver.ai) -->
  <style type="text/css">.cls-0 {fill:#FCBF29;}
.cls-1 {fill:url(#SVGID_1_);}
.cls-2 {fill:none;stroke:#F0A80B;stroke-width:0.6619;stroke-linecap:round;stroke-linejoin:round;stroke-miterlimit:10;}
.cls-3 {fill:url(#SVGID_2_);}
.cls-4 {fill:url(#SVGID_3_);}
.cls-5 {fill:url(#SVGID_4_);}
.cls-6 {fill:url(#SVGID_5_);}
.cls-7 {fill:url(#SVGID_6_);}
.cls-8 {fill:#E49B12;}
.cls-9 {fill:url(#SVGID_7_);}
.cls-10 {fill:#FFD45C;}
.cls-11 {fill:url(#SVGID_8_);}
.cls-12 {fill:#031F66;}
.cls-13 {fill:#023191;}
.cls-14 {fill:#043BC6;}
.cls-15 {fill:url(#SVGID_9_);}
.cls-16 {fill:url(#SVGID_10_);}
.cls-17 {fill:url(#SVGID_11_);}
.cls-18 {fill:url(#SVGID_12_);}
.cls-19 {fill:url(#SVGID_13_);}
.cls-20 {fill:#DE0909;}
.cls-21 {fill:url(#SVGID_14_);}
.cls-22 {fill:#A50606;}
.cls-23 {fill:#893919;}
.cls-24 {fill:url(#SVGID_15_);}
.cls-25 {fill:#FDC728;}
.cls-26 {fill:#043CD7;}
.cls-27 {fill:#0032AF;}
.cls-28 {fill:#FAC019;}
.cls-29 {fill:#EB0017;}
.cls-30 {fill:#FFFFFF;}
.cls-31 {fill:url(#SVGID_16_);}
.cls-32 {fill:#DD890E;}
.cls-33 {fill:url(#SVGID_17_);}
.cls-34 {fill:url(#SVGID_18_);}
.cls-35 {fill:url(#SVGID_19_);}
.cls-36 {fill:#6B2E09;}
.cls-37 {fill:#FFCA38;}
.cls-38 {fill:#EDBD85;}
.cls-39 {fill:#F5E8CE;}
.cls-40 {fill:#602B0A;}
.cls-41 {fill:#140A05;}
.cls-42 {fill:url(#SVGID_20_);}
.cls-43 {fill:none;stroke:#B76205;stroke-width:0.1248;stroke-linecap:round;stroke-linejoin:round;stroke-miterlimit:10;}
.cls-44 {fill:url(#SVGID_21_);}
.cls-45 {fill:url(#SVGID_22_);}
.cls-46 {fill:url(#SVGID_23_);}
.cls-47 {fill:#FA853C;}
.cls-48 {fill:#941705;}
.cls-49 {fill:none;stroke:#941705;stroke-width:0.2495;stroke-linecap:round;stroke-linejoin:round;stroke-miterlimit:10;}
.cls-50 {fill:url(#SVGID_24_);}
.cls-51 {fill:url(#SVGID_25_);}
.cls-52 {fill:url(#SVGID_26_);}
.cls-53 {fill:url(#Oval_3_);}</style>
  <path class="cls-0" d="m147.9 71.4c-3.9-1.4-23.6-6.4-29.4-7.4l1.5-7c4-3.3 15.5-15.3 18.9-19.5l0.5-0.7c0.4-1.2-1.4-0.8-1.4-0.8s-14.7 3-29.4 8l-1.6 0.6-2.1-5.6 8.6-28c0.2-1-0.7-1.4-1.2-1l-19.8 20.4-9.4-0.7-7.4-28c-0.2-0.8-1.3-0.8-1.5 0l-6.6 25.7c-1.2 0.4-6.5 1.5-9.6 3l-20.2-20.6c-0.6-0.4-1.5 0.1-1.2 1.1 1.4 5.1 6 20.5 9.1 30l0.2-0.3-7.1 2.8-0.7-0.4c-11-3.2-23.4-6.5-26.4-7s0.7 2.3 0.2 1.9c4 4.7 14.1 15.4 20 21.1v4.6c-5.4 1-25.8 6-29.9 7.8-0.8 0.3-0.9 1.5 0 1.6l23.5 7.1h1.2l0.7 9c-5.3 4.9-14.4 14.6-16.7 18.4l23.2-4.5 2.4 1 8.5-3-5.7 25.5-2.8 6.4c-0.1 0.6 0.6 1.2 1.2 0.6 3.2-2.9 11.5-11.8 14.5-15.5l6.9 4 8.7-11.5 6.7 29c0.2 1.1 1.2 1.1 1.4 0l8.5-33.1 0.4-2.4h11.5l4.9 16c3.2 4 8.4 9.4 11.4 12.9 1.2 1.3 1.6 0.6 1.4-0.3l-4.9-19.6 1.6-1c2.1 1.9 4.5 2.1 5.5 2 2.1-0.1 4.5-1 4.5-2l-1-9 18.5 5.7 1.1-1c-2.2-2.8-10.7-12.1-14.5-15.7l1.9-12.5 21.4-6.5c1-0.3 0.8-1.3 0-1.6z"/>
  <linearGradient id="SVGID_1_" x1="80.1" x2="80.1" y1="123.6" y2="93.8" gradientUnits="userSpaceOnUse">
    <stop stop-color="#FCBC19" offset="0"/>
    <stop stop-color="#AD6104" offset="1"/>
  </linearGradient>
  <polygon class="cls-1" points="84.1 99 84.9 105.1 75.5 139.8 75 94"/>
  <path class="cls-2" d="m75 2v137.5"/>
  <linearGradient id="SVGID_2_" x1="70.5" x2="83.19" y1="29.3" y2="29.3" gradientUnits="userSpaceOnUse">
    <stop stop-color="#FCBC19" offset="0"/>
    <stop stop-color="#DB8E08" offset="1"/>
  </linearGradient>
  <path class="cls-3" d="m75 1.7v27l-5-1.4-2.3-0.1 6.5-25.5z"/>
  <linearGradient id="SVGID_3_" x1="39.6" x2="49.3" y1="28.8" y2="24.5" gradientTransform="translate(-2e-4)" gradientUnits="userSpaceOnUse">
    <stop stop-color="#CC7F09" offset="0"/>
    <stop stop-color="#ED9C09" offset="1"/>
  </linearGradient>
  <path class="cls-4" d="m37 10.2 8.9 29.8 5.8-4.8-0.1-0.8-14-23.9z"/>
  <linearGradient id="SVGID_4_" x1="109.2" x2="103.6" y1="25.08" y2="27.68" gradientTransform="translate(-2e-4)" gradientUnits="userSpaceOnUse">
    <stop stop-color="#EEAA0A" offset="0"/>
    <stop stop-color="#CC820A" offset="1"/>
  </linearGradient>
  <path class="cls-5" d="m98.9 34.1 6 5 8.2-28.6-0.4-0.5z"/>
  <linearGradient id="SVGID_5_" x1="30.13" x2="25.03" y1="49.3" y2="38.7" gradientTransform="translate(-2e-4)" gradientUnits="userSpaceOnUse">
    <stop stop-color="#DF940A" offset="0"/>
    <stop stop-color="#BD7508" offset="1"/>
  </linearGradient>
  <path class="cls-6" d="m11.1 36.8 22.4 13.2-2 8.5c-4.9-4.4-17.8-17.9-20.6-21.4l0.2-0.3z"/>
  <linearGradient id="SVGID_6_" x1="125.1" x2="129.1" y1="46.8" y2="55.2" gradientTransform="translate(-2e-4)" gradientUnits="userSpaceOnUse">
    <stop stop-color="#CD8409" offset="0"/>
    <stop stop-color="#C07809" offset="1"/>
  </linearGradient>
  <path class="cls-7" d="m112.4 52.4 7.6 4.5c3.3-2.8 16.5-16.4 19-20v-0.4z"/>
  <path class="cls-8" d="m1.6 72.2h30.6l-6.6 8.3-23.6-7.5-0.4-0.8z"/>
  <linearGradient id="SVGID_7_" x1="137.8" x2="123.2" y1="75.85" y2="75.85" gradientUnits="userSpaceOnUse">
    <stop stop-color="#CF8509" offset="0"/>
    <stop stop-color="#E8A30A" offset="1"/>
  </linearGradient>
  <path class="cls-9" d="m123.8 72.4 3.2 7.1 21-6 0.8-0.5v-0.8z"/>
  <linearGradient id="SVGID_8_" x1="22.14" x2="26.14" y1="95.38" y2="102.5" gradientUnits="userSpaceOnUse">
    <stop stop-color="#BE7A09" offset="0"/>
    <stop stop-color="#CB8309" offset="1"/>
  </linearGradient>
  <path class="cls-10" d="m10.9 108.1 20.8-13.2 1.9 7.7-22.2 6.1z"/>
  <linearGradient id="SVGID_9_" x1="127.6" x2="130.2" y1="97.43" y2="105.8" gradientUnits="userSpaceOnUse">
    <stop stop-color="#CD8509" offset="0"/>
    <stop stop-color="#CF8309" offset="1"/>
  </linearGradient>
  <path class="cls-15" d="m122.4 96.8v0.7l-2.1 6.1 18.4 4.9z"/>
  <linearGradient id="SVGID_10_" x1="43.45" x2="46.95" y1="121.7" y2="114.5" gradientUnits="userSpaceOnUse">
    <stop stop-color="#EDA30A" offset="0"/>
    <stop stop-color="#BB7308" offset="1"/>
  </linearGradient>
  <polygon class="cls-16" points="42.4 110.9 36.5 132.9 49.7 117.1 50.5 115.9 48.7 112"/>
  <linearGradient id="SVGID_11_" x1="108.2" x2="109.3" y1="122.4" y2="115.6" gradientTransform="translate(-2e-4)" gradientUnits="userSpaceOnUse">
    <stop stop-color="#FAB811" offset="0"/>
    <stop stop-color="#CA8009" offset="1"/>
  </linearGradient>
  <polyline class="cls-17" points="104.4 117.1 113.3 133 113.6 133 108.5 112 103.9 115.6"/>
  <path class="cls-2" d="m2 72.1h145.9"/>
  <path class="cls-10" d="m37.6 9.9 14.5 24.8 5.4-4.1-19.8-20.8z"/>
  <path class="cls-10" d="m98.8 33.5 13.9-23-20 20"/>
  <path class="cls-10" d="m11.6 36.5 21.9 12.5 1.5-0.6z"/>
  <path class="cls-10" d="m112.9 51.6 25.5-14.8-25.3 9.6z"/>
  <path class="cls-10" d="m1.5 71.7 29.5-7.1 0.5-0.6z"/>
  <path class="cls-10" d="m124 65.5 24.1 6.5-24-5.4z"/>
  <path class="cls-10" d="m36.7 132.7 10.8-19.1-9.3 15.4z"/>
  <path class="cls-10" d="m105.4 117.9 8 14.8-6-12.9"/>
  <path class="cls-10" d="m124.4 92.5 14 14.9-15.5-10.4z"/>
  <path class="cls-10" d="m11.5 107.6 19.6-12.1-17.5 10.6"/>
  <path class="cls-2" d="m11.5 36.4s26.1 6.1 28.6 7.1"/>
  <path class="cls-2" d="m108.8 44.4c4.4-1.9 29.7-8 29.7-8"/>
  <path class="cls-2" d="m37 9.9 20.8 20.7"/>
  <path class="cls-2" d="m92.9 30.4 19.7-20.5"/>
  <linearGradient id="SVGID_12_" x1="43.96" x2="73.36" y1="39.7" y2="39.7" gradientUnits="userSpaceOnUse">
    <stop stop-color="#FFF4BA" offset="0"/>
    <stop stop-color="#FDCC43" offset="1"/>
  </linearGradient>
  <path class="cls-18" d="m44 42.4c3.1-5.8 13.6-14.8 23.7-15.3l1.8 1.4c-7.4-0.1-19.5 7.5-23.1 14.8l-2.4-0.9z"/>
  <linearGradient id="SVGID_13_" x1="45" x2="82.05" y1="39.83" y2="39.83" gradientUnits="userSpaceOnUse">
    <stop stop-color="#DB8D09" offset="0"/>
    <stop stop-color="#FCCC41" offset="1"/>
  </linearGradient>
  <path class="cls-19" d="m45 43.3c5.7-8.9 14.7-16 24.5-16.3 4.7-0.1 13.5 2.1 12.5 12.1-1-9.6-6.5-10-12.1-10-9.9 0.3-17.4 6.5-21.8 13.6l-3.1 0.6z"/>
  <path class="cls-20" d="m55.5 61c7.6-2.3 7.6-10.4 10.1-15.4 2.4-4.7 8.1-8.2 11.9-5 2.5 2 2.9 4.9 1.5 8.3h-0.5c-2.9-7.4-9.6-6.8-10.9 2.1-1 7.7-4.5 12.6-12.1 14.5v-4.5z"/>
  <linearGradient id="SVGID_14_" x1="48.5" x2="81.9" y1="39.91" y2="39.91" gradientUnits="userSpaceOnUse">
    <stop stop-color="#E99D08" offset="0"/>
    <stop stop-color="#CC8409" offset="1"/>
  </linearGradient>
  <path class="cls-21" d="m48.4 43.4c3.5-6.7 11.5-14.3 21.1-14.4 8.6 0 12.5 5.6 12.4 11.5l-0.3 6.4-1 1.8c1-9.5-6.7-12.8-12-8.8-5.5 4-5.5 13-10.5 19l-6.1-0.9-3.6-10v-4.6z"/>
  <path class="cls-25" d="m51 43.9c3.4-7 10.5-13.5 18.5-13.8 8.5-0.2 12.6 5.4 12.1 12.6-1.6-6.6-6.7-10.2-10.9-10.2-7.6 0-13.3 5-17 11.9l-2.7-0.5z"/>
  <path class="cls-25" d="m53.7 45c4-7 9-12.5 16.2-12.6 5 0 11.1 3.6 11.2 9.5-2-4.8-5.9-7.5-9.6-7.3-5.9 0.1-11 4.5-13.5 10.4h-4.3z"/>
  <path class="cls-37" d="m55.1 46.7c3.9-7.8 8.9-13.6 15.6-13.6 4.2-0.1 9.2 2.4 10.2 7.4-1.8-4.5-5.5-6.4-8.9-6.1-5.6 0.1-10.3 4.1-13.6 12.3h-3.3z"/>
  <path class="cls-37" d="m56.5 49.1c3-8.6 8.2-13.9 14.6-14.4 4.6-0.2 8.9 3.2 9.4 7.9-1.6-3.5-4.6-6.6-8-6.6-5.5 0.1-10.5 4-13.6 13.1h-2.4z"/>
  <path class="cls-38" d="m57.2 52.5c1.9-3.8 2.5-9 7.4-13.6 5.3-4.9 11.9-4.4 14.5 0.5-3.5-3.3-6.5-3.8-10-2.3-5.5 2.3-8 10-10.7 15.3l-1.2 0.1z"/>
  <path class="cls-37" d="m55.9 55.5c4.2-2.9 4.1-7.6 7.1-12.8 2.5-4.3 9.1-8.3 13.6-5.2-6-1.9-9.7 1.1-12.1 4.2-2.1 2.8-4 11-6.9 12.9l-1.7 0.9z"/>
  <linearGradient id="SVGID_15_" x1="55.08" x2="75.58" y1="50.9" y2="42.4" gradientUnits="userSpaceOnUse">
    <stop stop-color="#EEC027" offset="0"/>
    <stop stop-color="#FEF5AE" offset="1"/>
  </linearGradient>
  <path class="cls-24" d="m55.6 56c3.4-0.4 5.4-7.3 7-11 2.4-6 10.5-11.6 15.8-5.9-3.9-2.6-11.7-3.1-16 6.9-1.3 3.1-2.9 9-5.5 10.4l-1.3-0.4z"/>
  <path class="cls-22" d="m67.7 51.5c1.9-7.6 7.4-9.9 10.7-3.1l1.1 0.1c0-8-10.1-10.1-11.8 3z"/>
  <path class="cls-23" d="m67.7 51.5c1.2-1.4 3.3-2.5 4.4-2.5-3.1-0.6-4.2 1-4.2 1l-0.2 1.5zm0.4-2.4c2-1.6 4.4-1.6 6.3-0.7-1.4-2.2-5.8-1.9-6.3-0.5v1.2zm0.5-1.5c2.5-1.7 5.5-2.1 7 0.9l1.3-0.1c-1.4-4.4-7.2-4.9-8.3-1.7v0.9z"/>
  <radialGradient id="SVGID_16_" cx="77.7" cy="68.8" r="25.8" fx="77.6" fy="63.21" gradientTransform="matrix(1 .0099 -.0082 .8238 .6034 8.487)" gradientUnits="userSpaceOnUse">
    <stop stop-color="#FFCD3D" offset="0"/>
    <stop stop-color="#FFC42E" offset=".5364"/>
    <stop stop-color="#FABB23" offset=".7636"/>
    <stop stop-color="#EB9419" offset="1"/>
  </radialGradient>
  <path class="cls-31" d="m77.9 48.5c-5.4 0-13 2.2-25.9 16.5-2 6.9-1.6 24.2 9.1 31 5.1 3.4 11.4 6.5 17.3 6.5 4.5 0 14-3.4 18.1-7.9 6-5.5 7.1-12.2 7-21-0.5-10.7-6.9-25.1-22-25.1h-3.6z"/>
  <path class="cls-32" d="m51.5 76.5c0.9 8.4 4.5 18 13.6 22.2 4 1.8 8.9 3.8 12.8 3.8 5 0 12-2.6 17.1-6.5l1-1.1c-4.6 3.2-11.6 7.1-18.4 7.1-5.9 0-14-3.4-18.1-7-4.9-4.8-7.4-10.9-8-18.5z"/>
  <linearGradient id="SVGID_17_" x1="83.5" x2="98.1" y1="62.6" y2="62.6" gradientUnits="userSpaceOnUse">
    <stop stop-color="#6D3107" offset="0"/>
    <stop stop-color="#381403" offset="1"/>
  </linearGradient>
  <path class="cls-33" d="m84.5 64.9c3-1.3 7.5-3.8 13.6 0.1-3.5-5-8.4-5.1-11.6-3.6-3.4 1.2-3.4 3.6-2 3.5z"/>
  <linearGradient id="SVGID_18_" x1="55.3" x2="69.1" y1="65.65" y2="65.65" gradientUnits="userSpaceOnUse">
    <stop stop-color="#4F2106" offset="0"/>
    <stop stop-color="#5C2907" offset="1"/>
  </linearGradient>
  <path class="cls-34" d="m55.3 69.4c2.2-2.4 6.6-5.4 13.1-3.3 2 0.6 1.5-3.1-3.4-3-4.3 0.1-8.1 2.5-9.7 6.3z"/>
  <linearGradient id="SVGID_19_" x1="74.39" x2="80.17" y1="83.4" y2="83.4" gradientUnits="userSpaceOnUse">
    <stop stop-color="#F49720" offset="0"/>
    <stop stop-color="#FDAF32" offset="1"/>
  </linearGradient>
  <path class="cls-35" d="m77.1 81.3c-2.1 0.2-3.5 3.7-1.1 4.1 1 0.1 1.5-0.3 2.1-0.3 0.8 0 1.9-0.1 2-1.5 0-1.6-1.6-2.5-3-2.3z"/>
  <path class="cls-32" d="m76 84c-0.4-0.5-1.6 0.4-0.4 0.5 0.4 0 1 1.1 1 0.1l-0.6-0.6zm2.5 0.6v0.3c0.6-1.3 2-0.3 0.9-0.9-0.5-0.4-0.8 0.1-0.9 0.6z"/>
  <radialGradient id="SVGID_20_" cx="77.35" cy="82.55" r="1" gradientUnits="userSpaceOnUse">
    <stop stop-color="#FFE47D" offset="0"/>
    <stop stop-color="#FEC438" offset="1"/>
  </radialGradient>
  <path class="cls-42" d="m78.4 82.5c0 1.1-1.9 1.1-1.9 0-0.4-0.5 1.6-0.9 1.9 0z"/>
  <path class="cls-36" d="m84.5 64.9 0.5-0.3c2.1-2.7 6-4.1 10.4-2.1-3.8-2.4-9.3-1.4-10.9 2.4zm-16.9-1.3c-2.2-0.9-5.6-0.5-7.6 0.9 4-1.5 7.6 0.2 8.4 1.6l0.6-0.1c0.1-1-0.9-2-1.4-2.4z"/>
  <path class="cls-37" d="m62.1 70-0.4 0.4c3.3 0.2 8 1 8.7 6.6-0.7-3-2.5-7-8.3-7z"/>
  <path class="cls-38" d="m85 72c1-2.1 3.1-5.4 8.4-4.9-4.4 0-6.3 1.5-8.4 4.9z"/>
  <path class="cls-13" d="m78.9 30.6c1.2-1.2 4.1-1.7 5.5-1.2 8-1.4 18.2 4.6 21.6 10.6l-7-5z"/>
  <path class="cls-14" d="m81 34.1c2-3 5-4 8.5-3.7 5.6 1.1 13.6 4.6 19.4 13.1 1.7 3.1 3.5 8.9 9 11.4 4.5 1.6 7.5 6 6.2 13.6l-1 7.1-2.6-2.1-19.5-11.5c-4.4-1.6-7.4-5-9-10-1-5.6-5.9-10.1-10.5-3.5l-0.4-2.5 0.5-5.4z"/>
  <linearGradient id="SVGID_21_" x1="81" x2="114.5" y1="42.95" y2="42.95" gradientUnits="userSpaceOnUse">
    <stop stop-color="#024BD6" offset="0"/>
    <stop stop-color="#0339CB" offset=".4364"/>
    <stop stop-color="#0139CA" offset=".6242"/>
    <stop stop-color="#A3BBEF" offset="1"/>
  </linearGradient>
  <path class="cls-44" d="m81 34.1c2-3.1 5-4 8.5-3.7 3.6 0.7 12.1 3 18.4 12.6 2.7 4 4 9.9 8.2 11.1-4.7-0.1-7.1-6.5-9.1-10.1-4.1-7.5-13-13.5-18.5-13.5-3.5-0.5-6.5 1.1-7.5 3.6z"/>
  <linearGradient id="SVGID_22_" x1="81.1" x2="124" y1="42.84" y2="42.84" gradientUnits="userSpaceOnjoin:bevel">
    <stop stop-color="#002881" offset="0"/>
    <stop stop-color="#043AC5" offset=".4606"/>
    <stop stop-color="#0539C5" offset=".5939"/>
    <stop stop-color="#042984" offset="1"/>
  </linearGradient>
  <path class="cls-45" d="m81.6 36c1.4-2.1 4.5-4.1 7.9-3.9 6.5 0.5 13.1 3.3 18 11.9 2.4 4.1 4.6 9.9 9.1 10-4.5 1.5-7.5-3.9-10.1-8.6-3.6-6.5-9.4-12.4-16.4-12.3-3.7-0.1-7 0.9-8.5 3.4v-0.5z"/>
  <linearGradient id="SVGID_23_" x1="82.2" x2="117.1" y1="45.25" y2="45.25" gradientUnits="userSpaceOnUse">
    <stop stop-color="#012884" offset="0"/>
    <stop stop-color="#043BC6" offset=".4848"/>
    <stop stop-color="#0339C5" offset=".6242"/>
    <stop stop-color="#002881" offset="1"/>
  </linearGradient>
  <path class="cls-46" d="m82.4 38c1.1-2 3.6-4 7-4.1 4.2-0.3 9.5 2.2 13.7 7.1 3.8 4.6 5 12 10.5 13 5 1.5-4.5 4.5-10.5-7.4-2.6-5.6-7.5-11-13.5-11.1-3-0.1-5.6 0.9-7.2 3.1v-0.6z"/>
  <path class="cls-13" d="m82.2 39.6-0.2 2.3c1.1-1.5 4-3.5 7.1-3.5 4 0 8.8 2.2 12.3 8.7 4.1 8.4 8.1 11.5 13.7 10.5 5.8-0.5 9.3 3.4 8.5 9.8l-0.2 2.6-0.3-0.9c-0.8-2.8-3.5-7.5-8.5-7.5l-13.6 0.4c-4.4-1.6-7.4-5-9-10-1-5.6-6.1-10.1-10.5-3.5l-0.4-1.5c1.3-6.1 6.4-7.4 9.3-6.5-3.3-1.4-6.4 0-8.2 2.1v-3z"/>
  <path class="cls-14" d="m82 40.1 0.4-0.6c3-3.1 5.6-4 8.2-3.9 4 0.3 8.4 2.5 12.9 8.9 2.9 4.5 4.1 11.5 12.1 11.5 5.3 0.5 9 4 8 10 0-5-4.1-8.5-9.1-8-5.9 1-10.1-0.4-13.9-7-2.5-3.9-3.7-8.5-9.1-10.1-3.9-1.4-7.6-0.5-9.5 2.1v-2.9z"/>
  <path class="cls-25" d="m81.5 46c2.5-5 7.6-6.9 12.9-3.4 5.1 3.4 6.1 10 9.7 12.9 3.8 3.5 7 3 11 2.5 4.1-0.4 8.5 1.4 8.8 8.1-1.3-4.6-4.3-6.7-9.4-5.1-4.6 2-9.9 3.5-14.5 0-4.1-3-5.6-7-6.6-10.5-2-6.6-7.5-9.5-11.4-2.9l-0.5 0.3v-1.9z"/>
  <linearGradient id="SVGID_24_" x1="82.1" x2="113.6" y1="51.7" y2="51.7" gradientUnits="userSpaceOnUse">
    <stop stop-color="#F1AB17" offset="0"/>
    <stop stop-color="#FFDA69" offset="1"/>
  </linearGradient>
  <path class="cls-50" d="m82.1 45.5c2.4-5 8.9-5.5 12.9-1.5 4.1 3.5 4.7 12.5 11.5 14.6 2.6 0.9 4.6 0.4 7.1-0.1-5.5 2.6-10 1.6-13.2-2-3.8-3.9-4.8-12.4-11.3-13.9-3-0.5-5.1-0.1-7 2.9z"/>
  <linearGradient id="SVGID_25_" x1="82.7" x2="116" y1="52" y2="52" gradientUnits="userSpaceOnUse">
    <stop stop-color="#EBA919" offset="0"/>
    <stop stop-color="#FFDD6B" offset="1"/>
  </linearGradient>
  <path class="cls-51" d="m82.7 44.4c3.4-3.8 9.7-2.8 12.3 1.1 3.1 3.6 5.5 14.5 14.1 14.5 3 0.5 5.4-1.6 6.9-1.1-4.5 2.2-9.4 3.2-13.9 0-3.5-2.4-4.6-6.9-7.1-11.4-3.5-5.5-9.5-7-12.3-3.1z"/>
  <path class="cls-22" d="m81.6 48 0.4 0.5c3.6-3.5 7.1-6 10 3.9l-0.1-0.9c-1-5.5-5.9-10.1-10.3-3.4v-0.1z"/>
  <path class="cls-23" d="m83.5 48.1c2-1.5 4.1-1.7 6.6 0.4-3.2-1-4.5 0-4.5 0l-2.1-0.4zm2.5-1.1c1.1-0.5 4.4 0 5.1 2l-1.5-0.6c-1-0.5-2.7-0.9-3.6-0.8v-0.6z"/>
  <path class="cls-23" d="m91.9 51.6c-1-2.1-4.3-3-5-3.1 2-0.6 4.7 1 4.7 1l0.3 2.1z"/>
  <linearGradient id="SVGID_26_" x1="99.8" x2="124" y1="65.72" y2="65.72" gradientUnits="userSpaceOnUse">
    <stop stop-color="#15154F" offset="0"/>
    <stop stop-color="#033BC6" offset=".5273"/>
    <stop stop-color="#00247F" offset="1"/>
  </linearGradient>
  <path class="cls-52" d="m101 62c3 1.5 6.4 2.5 10.5 0.9 3.9-1.4 5.9-2.4 8.9-0.5 3.2 1.7 3.7 5.1 3.6 8.6l0.1 4.4-3.6-1.9-17.4-8-2.1-3.5z"/>
  <path class="cls-13" d="m102.9 63.4c2.6 1.5 5.1 1.6 8 0.6 3.5-1 8.7-2.9 12 2.1 1 1.5 1 2.9 0.7 6.4l-0.2-2c-1.3-4.4-4.8-6.4-9.8-6-3.5 0.5-8.6-0.5-10.1-1l-0.6-0.1z"/>
  <path class="cls-14" d="m103.4 64c1.7 1.9 5.7 2.4 8 1.5 6.7-1.5 11.5 1 11.7 6.5l-0.5 3-2.2-2.4-16.5-6.5-0.5-2.1z"/>
  <path class="cls-12" d="m101 62c2.1 8 5.6 12.5 9 13 3.4 1.7 6.9 5.5 5.4 10.1-0.9 6.8 6.7 8.5 4.1 17.4l-2 6.2c0.2 1.7 2.1 3.3 3 3.7-1.4 2-6.4 2.6-10-0.4-0.8-1.9-3.8-8-8.9-17-3.5-6.5 0.7-20.9 1.8-26l-2.4-7z"/>
  <path class="cls-14" d="m102 62.9c2 4.2 5.7 6 11.4 7.1 3 0.1 5 1 7.2 3l2 2c-3.1 1.5-11.1 2-15.6-2.1-3.1-2.5-4.4-6.5-5-10z"/>
  <path class="cls-20" d="m101.9 61.9c2.6 4.7 6.6 7 12.2 7.6 3 0.5 5 1.5 7 3.5 3.8 3 8.4 6.4 7.5 12.5-1 5.5-5.6 6.5-6 10.5l-3.2 9c-3.9 3.5-1.8 8 1.1 7-3.6 2.4-7.4-1.6-5.5-5 1.6-3.5 5.1-4.4 4.1-11-0.5-3.5-5.7-7.6-3.6-12.4 0.6-4.6-3.6-7-5.5-8.2-4.5-2-7.6-8.3-8.1-13.5z"/>
  <linearGradient id="Oval_3_" x1="103.2" x2="126.5" y1="79.3" y2="79.3" gradientUnits="userSpaceOnUse">
    <stop stop-color="#9C1007" offset="0"/>
    <stop stop-color="#ED1914" offset=".4848"/>
    <stop stop-color="#FF6259" offset=".6242"/>
    <stop stop-color="#EC1914" offset=".7455"/>
    <stop stop-color="#EC8A7F" offset="1"/>
  </linearGradient>
  <path class="cls-53" d="m103.2 65.5c2.3 4.9 5.3 7.1 11.2 7.9 3.7 0.5 10.7 5.2 10.2 11.2-0.6 4.5-3.1 5.5-2 8.5 0-2.1 4.5-4.5 4-9.6-0.2-4.1-4.2-8.5-7.5-10.6-4.6-3.5-12.2-0.9-15.9-7.4z"/>
  <path d="m102.1 64c1.9 4.5 6 8.5 12.3 9.4 4.3 0.7 9.2 5.1 9.6 9.1 0.5 6.1-4 7-1.4 11.5" fill="none" stroke="url(#Oval_3_)" stroke-linecap="round" stroke-linejoin="round" stroke-miterlimit="10" stroke-width=".3309"/>
  <path class="cls-13" d="m99 90.1c-3.6 5.5-4.6 9.4 1 15l3.9 6.9-2.9 8.6c5-0.1 10.4-6.1 10.1-10.9l-3.5-9.3-8.6-10.3z"/>
  <path class="cls-14" d="m97.6 91.6c-4 7.1 0.5 11.4 3.4 13.8 4.5 3.3 6.6 8.7 1.6 14.6 3.8-1 6.5-7 4.4-12-2-5.6-9.5-5.5-8.9-13.5l0.4-4-0.9 1.1z"/>
  <path class="cls-20" d="m96 93.1c-2.4 7 0.9 10.3 3.9 12.8 6.1 4.6 4.7 12.6-0.4 15.1-3.1 1.6-6.4 1.1-7.6-0.1 3.2 0 4.1-3.9 0.1-6.4-2.9-1.4-8.6-3.9-7.6-12.5l2.5-3 9.1-5.9z"/>
  <linearGradient id="SVGID_28_" x1="85.66" x2="96.14" y1="109.6" y2="109.6" gradientUnits="userSpaceOnUse">
    <stop stop-color="#AB2707" offset="0"/>
    <stop stop-color="#F49720" offset=".4485"/>
    <stop stop-color="#E79020" offset=".6242"/>
    <stop stop-color="#B43809" offset="1"/>
  </linearGradient>
  <path d="m86.6 99.6c-3.1 7.8 1 11.4 5 13.5 3.5 1.9 5.9 6.9 0.3 8" fill="none" stroke="url(#SVGID_28_)" stroke-linecap="round" stroke-linejoin="round" stroke-miterlimit="10" stroke-width=".3309"/>
  <linearGradient id="SVGID_29_" x1="87.41" x2="101.6" y1="107.2" y2="107.2" gradientUnits="userSpaceOnUse">
    <stop stop-color="#A82207" offset="0"/>
    <stop stop-color="#ED1914" offset=".4909"/>
    <stop stop-color="#ED1914" offset=".7455"/>
    <stop stop-color="#EE8059" offset="1"/>
  </linearGradient>
  <path d="m89 98c-2.4 5-0.9 9.6 3.6 12.4 4.5 2.7 5.5 7.2 1.5 10.1 3.9-1.1 5.8-6.5 0.3-10.5-5.5-3.6-6.8-7-4.9-11.9l-0.5-0.1z" fill="none" stroke="url(#SVGID_29_)" stroke-linecap="round" stroke-linejoin="round" stroke-miterlimit="10" stroke-width=".3309"/>
  <path class="cls-47" d="m70.1 87.9c1.5 1.1 2.9 5 7.3 5 4 0.1 5.4-3.4 8.1-6.4-3 1.5-11 3.6-15.4 1.4z"/>
  <path class="cls-48" d="m70.1 87.6c2.4 0.9 3.9 0.3 6 0 0.8 0 0.8 0.3 1.6 0.3 0.7 0 1-0.4 1.7-0.4 2 0.4 4.5 0.4 6.1-1-1.5 2.4-5.5 4.5-8.1 4.5h-1.3c-3.1-0.5-5.2-2.4-6-3.4z"/>
  <path class="cls-49" d="m69.4 87.5c1.6 1.5 5.6 1 7.5 1.5h1.1c1.9 0 5.6-0.6 7.6-2.5"/>
  <linearGradient id="SVGID_30_" x1="74.67" x2="80.93" y1="89.15" y2="89.15" gradientUnits="userSpaceOnUse">
    <stop stop-color="#F38A34" offset="0"/>
    <stop stop-color="#FF8B3B" offset="1"/>
  </linearGradient>
  <path d="m74.7 90.5c2.2 0.1 3.7 0.4 6.3-0.1-0.9 1.1-4.5 1.2-6.3 0.1z" fill="url(#SVGID_30_)"/>
  <path class="cls-32" d="m85.5 86c0.4 0 0.5-0.5 0.9 0.5v-0.4l-0.3-0.5-0.2 0.4h-0.4zm-16.4 1.6v0.3l0.5-0.5 0.4 0.2-0.4-0.7c-0.5 0-0.7 0.6-0.5 0.7z"/>
  <path class="cls-22" d="m60 94.5c3.5 6.1 2.9 10.6-2.5 15-5.4 4-4.6 12.5 1.4 12.5 1.7 0 3.5-0.5 4-2-1.5 0.6-4-1-3-3.4 1-2.6 4.6-2.2 7.6-5.6 2.6-2.6 2.6-8.9 0.2-11l-0.3-1-7.4-4.5z"/>
  <path class="cls-48" d="m63 97c4.1 6 2 10.9-2 14-3.5 3-5 8-0.1 9.6-4-2.5-1.9-6 1.6-7.6 3.6-1.5 7.4-5.4 5.1-12.5l-0.5-1-4.1-2.5z"/>
  <linearGradient id="SVGID_31_" x1="60.2" x2="66.5" y1="109.1" y2="103.5" gradientTransform="translate(-2e-4)" gradientUnits="userSpaceOnUse">
    <stop stop-color="#EA2E14" offset="0"/>
    <stop stop-color="#ED1914" offset=".4788"/>
    <stop stop-color="#F15242" offset=".7818"/>
    <stop stop-color="#E31513" offset="1"/>
  </linearGradient>
  <path d="m60.6 95c4 4.5 5.4 11-0.2 15.5-3.3 2.5-6 6.5-2 10.5" fill="none" stroke="url(#SVGID_31_)" stroke-linecap="round" stroke-linejoin="round" stroke-miterlimit="10" stroke-width=".2978"/>
  <linearGradient id="SVGID_32_" x1="54.93" x2="64.28" y1="110.1" y2="110.1" gradientUnits="userSpaceOnUse">
    <stop stop-color="#CC150A" offset="0"/>
    <stop stop-color="#ED1914" offset=".5394"/>
    <stop stop-color="#F15243" offset=".7212"/>
    <stop stop-color="#E31513" offset="1"/>
  </linearGradient>
  <path d="m63.5 97c2.5 4.9 2.5 8.6-2.5 13.5-2.5 2.1-7.4 6.4-2.9 10.5" fill="none" stroke="url(#SVGID_32_)" stroke-linecap="round" stroke-linejoin="round" stroke-miterlimit="10" stroke-width=".2978"/>
  <path class="cls-13" d="m52.5 66.9-1.5 14.7-2.5 1.5c-3.9 6-8.4 9.5-4 13.8 3.5 3.1 7.5 8 3 15.2l5.2 6.9c1.8 1.4 3.8 3.1 6.3 3-3-1-6.5-7-1.5-11.5 3.5-3 6.6-6.6 3.5-13.6l-5.4-7.9-3.7-10 0.6-12.1z"/>
  <path class="cls-12" d="m52.1 73.1c-1.7 2.9-5.1 8.8-8.5 13.4-3.6 5.1-2.2 7.5 1.8 11.4 5.6 5.2 4.7 12.5-1.4 16l-3.6 0.1c4.5 0.4 12.6-2.9 12.2-10.1l-4.2-9.9 2.5-13.5 1.2-7.4z"/>
  <path class="cls-20" d="m50.6 74.6c-0.7 2.9-4 6.4-9.1 7.5-4.9 1.3-9.5 2.8-10.1 8.4-0.3 4.6 2 6 4 8.5 1.7 3.6 0.5 10.5-4 12.6 5.2 2.5 12.2 3.4 15.2 0.5 3.5-3 7-8 3.5-12.2-3.6-4.8-10.1-6.3-5.1-12.9 2-2.5 5.9-9 5.6-12.4z"/>
  <path class="cls-22" d="m34 97c2.5 2.9 2.1 10-4 9.6 2.1 2.9 6.6 2.9 8.6 0.8l0.4-5.3-3.6-4.1-1.4-1z"/>
  <path class="cls-13" d="m33.1 69c-1.6 6-8.1 4.4-8.1 13.9 0.4 5.7 3.1 7.6 5.6 10.6 3.8 4.4 4.4 12.1-0.6 13.1 1 1.5 5.1 0.4 5.9-4l-1.9-7.6-4-8 5.4-11-2.3-7z"/>
  <path class="cls-14" d="m45 59.4c-3.9-1.8-9.4-2.9-13 0.5-1.4 1.6-2 3-1 3.6-1.4 2 0 4.1 1 3.4-1 1.7 0.5 2.6 1.1 2.5v0.6c1 2.5 2.8 1.6 3.3 1 1.1 1 2.6 0 3-1.6l5.6-9v-1z"/>
  <linearGradient id="SVGID_33_" x1="31" x2="44" y1="62.07" y2="62.07" gradientUnits="userSpaceOnUse">
    <stop stop-color="#0043D2" offset="0"/>
    <stop stop-color="#0438C8" offset=".4303"/>
    <stop stop-color="#0339C9" offset=".6242"/>
    <stop stop-color="#718BED" offset="1"/>
  </linearGradient>
  <path d="m31.5 63c2.5-2 7.5-4.1 12.5-4l0.4-0.4-0.9-0.2c-5.5-1.8-9-0.5-10.4 0.6-1.1 0.9-2.5 2.5-2.1 3.6l0.5 0.4z" fill="url(#SVGID_33_)"/>
  <linearGradient id="SVGID_34_" x1="32.01" x2="44.5" y1="64.44" y2="64.44" gradientUnits="userSpaceOnUse">
    <stop stop-color="#0435BE" offset="0"/>
    <stop stop-color="#0339C5" offset=".5273"/>
    <stop stop-color="#335BE7" offset=".7939"/>
    <stop stop-color="#0435BE" offset="1"/>
  </linearGradient>
  <path d="m32 66c3-3 7.5-6.4 12.4-6.6l0.1-0.4c-4.4-0.4-10.1 2-12.5 5-0.5 0.7-0.5 1.5 0 2z" fill="url(#SVGID_34_)"/>
  <path class="cls-13" d="m33.1 69c1.3 1 2.4 1 2.9 0.4l8-9.4 0.4-0.6c-3.8 0.6-10 4.6-11.3 9.6z"/>
  <linearGradient id="SVGID_35_" x1="33.6" x2="44" y1="67.15" y2="67.15" gradientTransform="translate(-2e-4)" gradientUnits="userSpaceOnUse">
    <stop stop-color="#0032B0" offset="0"/>
    <stop stop-color="#0438C8" offset=".4909"/>
    <stop stop-color="#184CD5" offset=".6545"/>
    <stop stop-color="#0432B0" offset="1"/>
  </linearGradient>
  <path d="m35 70.1c0.6 0.3 1.4 0 2-0.7l7-9v-0.4c-3.4-0.1-9.6 7-9 10.1z" fill="url(#SVGID_35_)"/>
  <path class="cls-14" d="m36.1 70.5c0.9 1.1 2.4-0.1 2.9-1.5l5-9c-2.4 1.1-8 5.9-7.9 10.5z"/>
  <linearGradient id="SVGID_36_" x1="25.26" x2="52.18" y1="76.7" y2="76.7" gradientUnits="userSpaceOnUse">
    <stop stop-color="#1C5DD3" offset="0"/>
    <stop stop-color="#0339C6" offset=".4303"/>
    <stop stop-color="#0339C6" offset=".6242"/>
    <stop stop-color="#00256F" offset="1"/>
  </linearGradient>
  <path d="m25.4 82.9c1.6-4.8 4.2-7.2 9.1-8.3 5.4-1.5 5.6-3.6 7.6-7.5l9.4-5.6 0.7 3.1c0.2 4.5-3.2 14-12.2 15.4-7.6 1-12.5 6-10 12l0.5 1c-2.9-2.4-5.1-7.1-5.1-10.1z" fill="url(#SVGID_36_)"/>
  <path class="cls-12" d="m25.5 84.1c0.5-4.5 3.1-8.1 9.5-9 5.1-1 6.1-3.1 9-8.1l1-0.4c-1.6 4.4-4.5 8.4-9.6 9.4-4.3 1-9.3 3.4-9.9 9v-0.9z"/>
  <path class="cls-14" d="m27.5 89.1c-1.6-5.2 1.4-11.1 8.1-12.1 6-0.5 8.8-4 10.9-9.1l1.5-0.4c-2.1 5-5 8.4-10.5 9.5-6 1-10.9 4-10 12.1z"/>
  <path class="cls-13" d="m29.5 91.6c-2.9-6.6 0.1-10.6 6.4-11.6 10.1-1.5 11.5-7 13.1-9.4l1.4-0.5c-2 4.9-5.5 9-11.9 9.9-5.9 1-11.1 4-9 11.6z"/>
  <path class="cls-20" d="m42 82c-5.5 0.9-11 3.5-10.6 9 0.6 5 4.6 7.4 5.1 8.4 2.5 4.6 0.9 11.6-5.1 12.1 1.6 1.5 8.2 2.9 11.6 0.9 3-2.3 7-7.4 2.9-12.5-3.9-4.3-7.9-7.3-3-12 3-2.4 6.7-5.9 8.5-12.9-2.3 6-7.3 6.4-9.4 7z"/>
  <linearGradient id="SVGID_37_" x1="32.5" x2="50.5" y1="88.85" y2="88.85" gradientUnits="userSpaceOnUse">
    <stop stop-color="#D40C0B" offset="0"/>
    <stop stop-color="#ED1914" offset=".4364"/>
    <stop stop-color="#FF6259" offset=".6242"/>
    <stop stop-color="#C21513" offset="1"/>
  </linearGradient>
  <path d="m50.1 77c-1.2 4.6-5.1 6.5-9.1 8-6 2.1-9.5 8-4.5 13.1" fill="none" stroke="url(#SVGID_37_)" stroke-linecap="round" stroke-linejoin="round" stroke-miterlimit="10" stroke-width=".2978"/>
  <linearGradient id="SVGID_38_" x1="36.5" x2="49.6" y1="92.6" y2="92.6" gradientUnits="userSpaceOnUse">
    <stop stop-color="#D40C0B" offset="0"/>
    <stop stop-color="#ED1914" offset=".4364"/>
    <stop stop-color="#FF6259" offset=".6242"/>
    <stop stop-color="#C21513" offset="1"/>
  </linearGradient>
  <path d="m48.1 82c-1.1 2.4-3.5 3.5-7 5.4-6.1 3.2-5.1 9-2 12.2" fill="none" stroke="url(#SVGID_38_)" stroke-linecap="round" stroke-linejoin="round" stroke-miterlimit="10" stroke-width=".2978"/>
  <linearGradient id="SVGID_39_" x1="34.5" x2="44.04" y1="104.8" y2="104.8" gradientUnits="userSpaceOnUse">
    <stop stop-color="#CC1509" offset="0"/>
    <stop stop-color="#DF1B12" offset=".4909"/>
    <stop stop-color="#F15243" offset=".7212"/>
    <stop stop-color="#C21513" offset="1"/>
  </linearGradient>
  <path d="m38.9 97c2.2 3.1 6.1 7.5 1.6 12.5-1.4 1.5-3.4 3.1-6 2.6" fill="none" stroke="url(#SVGID_39_)" stroke-linecap="round" stroke-linejoin="round" stroke-miterlimit="10" stroke-width=".2978"/>
  <linearGradient id="SVGID_40_" x1="33.5" x2="45.49" y1="106.1" y2="106.1" gradientUnits="userSpaceOnUse">
    <stop stop-color="#CC1509" offset="0"/>
    <stop stop-color="#DF1B12" offset=".4909"/>
    <stop stop-color="#F15243" offset=".7212"/>
    <stop stop-color="#C21513" offset="1"/>
  </linearGradient>
  <path d="m40.4 99c1.6 2 4.6 5.4 0 10.9-1.9 2.1-4.8 3.6-6.9 2.5" fill="none" stroke="url(#SVGID_40_)" stroke-linecap="round" stroke-linejoin="round" stroke-miterlimit="10" stroke-width=".2978"/>
  <path class="cls-23" d="m103.4 75.5 1.5-3.6 0.5 0.5z"/>
  <linearGradient id="SVGID_41_" x1="101.5" x2="108.4" y1="77.6" y2="77.6" gradientUnits="userSpaceOnUse">
    <stop stop-color="#D8790D" offset="0"/>
    <stop stop-color="#FABC45" offset="1"/>
  </linearGradient>
  <path d="m103.5 77c0.5-2 1.9-4.5 1.9-4.5 1.6 0.9 3.5 1.5 3 5.5-0.3 3.4-3 8.5-6.9 7l2-8z" fill="url(#SVGID_41_)"/>
  <linearGradient id="SVGID_42_" x1="102.5" x2="107" y1="77.65" y2="77.65" gradientUnits="userSpaceOnUse">
    <stop stop-color="#B64E08" offset="0"/>
    <stop stop-color="#EDA52D" offset="1"/>
  </linearGradient>
  <path d="m103.1 81c0.9-1.4 1.5-2 0.4-3.4 0.9-2.1 2.4-4.5 3.1-4.1 1.5 1.1 1.5 4.5-0.1 7-1.1 2.5-2.5 2.1-4 1.4l0.6-0.9z" fill="url(#SVGID_42_)"/>
  <path class="cls-32" d="m104 78c0.5-2 2.6-3.9 3-4 1.1 1.4 0.6 7.1-1.4 7-1 0-2.5 0.4-0.5-1.4 1 0.4 1.8-3-1.1-1.6z"/>
  <linearGradient id="SVGID_43_" x1="49.6" x2="54.3" y1="82.4" y2="82.4" gradientUnits="userSpaceOnUse">
    <stop stop-color="#D8790D" offset="0"/>
    <stop stop-color="#FFB442" offset="1"/>
  </linearGradient>
  <path d="m48.9 80c0.7-1.4 1.1-1.4 2.1-3l3.4 9.9c-3.4 1.7-5.4-2.9-5.8-4.9l0.3-2z" fill="url(#SVGID_43_)"/>
  <linearGradient id="SVGID_44_" x1="48.49" x2="52.5" y1="81.6" y2="81.6" gradientUnits="userSpaceOnUse">
    <stop stop-color="#B64E08" offset="0"/>
    <stop stop-color="#EFA831" offset="1"/>
  </linearGradient>
  <path d="m50.4 79c-0.9 1.4-2.4 3-1.9 4 0.9 3.5 3 3.5 3.9 2.5l0.1-1.5c-2-1-1.6-3-0.9-3.5l-1.2-1.5z" fill="url(#SVGID_44_)"/>
  <path class="cls-32" d="m49 82.5 1.4-2.5c0.6 1 2 1 1.6 1.4-1.9 0.6 0.4 2.6 0.1 2.6-1.5 0.4-3-1.5-3.1-1.5z"/>
  <path class="cls-41" d="m63 70.5c-2.4 0-5.8 1.7-7.5 0.9 0.4 1.6 1.6 2 2 1.6-0.6 0.9-2.9 0.5-3.4-0.1 0 0.7 0.9 2.2 1.9 1.7-0.6 0.8-2 1.4-3 0.4 0.1 1.5 1 2.6 2.9 2.6-0.4 1 0.6 1 0.6 1.4-0.6-0.4-1.5 0-1.5 0.4 1.5-0.3 1.9 0.7 1.5 1 1-0.5 1.6-0.5 1.6-0.3-0.6 0.9-1.2 0-1.6 0.9 1.6-1 1.9 0.4 1.6 0.6 0.5-0.5 1.4-1.2 1.4-0.6l-0.5 0.5c0.5-0.5 1.6-1 1.6-0.5l-0.2 0.9 1.2-1 1.4-0.4h3.6l2.4-1.5 0.6-4c-1.5-3-4-4.5-6.6-4.5z"/>
  <path class="cls-39" d="m57.1 77c1-2.5 3.4-4.1 6.4-4.6 3-0.4 5.9 2.1 7 6.7 0 1.4 0.4 1.4-1.4 1.4l-7 0.1c-2.1-0.1-5.5-1.5-5-3.6z"/>
  <linearGradient id="SVGID_45_" x1="57" x2="67.07" y1="76.5" y2="76.5" gradientUnits="userSpaceOnUse">
    <stop stop-color="#CD8C3E" offset="0"/>
    <stop stop-color="#F5E8CE" offset=".6788"/>
  </linearGradient>
  <path d="m57.1 77c0.8-2 3-4.1 5.5-4.5 4.3-0.5 5.5 2.5 6.5 4l1 2c-1.5-2.5-3.7-4.9-6-4.9-2.5 0-6 2.9-4.6 5.4l1.5 1.5c-1.5-0.5-4-1.9-3.9-3.5z" fill="url(#SVGID_45_)"/>
  <linearGradient id="SVGID_46_" x1="60.05" x2="68.75" y1="76.56" y2="76.56" gradientUnits="userSpaceOnUse">
    <stop stop-color="#522406" offset="0"/>
    <stop stop-color="#975006" offset="1"/>
  </linearGradient>
  <path d="m63.1 72.5c2.4-0.5 5.5 0.5 5.5 4 0.4 4.5-3 4.4-4.5 4.1-2 0.4-4.7-3-4-5.6 0.4-1 0.9-2 3-2.5z" fill="url(#SVGID_46_)"/>
  <path class="cls-41" d="m64.5 72.9c-3.5-0.4-5 7-0.9 7.7l1-0.1h1.3c1.7-0.6 3.5-7.4-1.4-7.6z"/>
  <path class="cls-30" d="m66.9 74.1c0.5 1.5-1.8 1.9-2.3 0.9-0.5-1.9 1.8-2.5 2.3-0.9zm-4 3.9c-0.7 0-0.9 2 0.2 0.6l-0.2-0.6z"/>
  <circle cx="58.6" cy="83.9" r=".5" fill="#fff"/>
  <circle cx="61.3" cy="84.6" r=".5" fill="#fff"/>
  <circle cx="63.4" cy="83.9" r=".4" fill="#fff"/>
  <circle cx="64.9" cy="85.5" r=".2" fill="#fff"/>
  <circle cx="61.8" cy="86" r=".2" fill="#fff"/>
  <circle cx="57.5" cy="85.2" r=".2" fill="#fff"/>
  <circle cx="56.6" cy="82.6" r=".2996" fill="#fff"/>
  <path class="cls-41" d="m61 71c-1.6 0-2.1-1-2.1-1.5-0.5 2 1.2 2.9 3.1 3h1.4l-1.4-1.9 0.4-0.6-0.3 0.1-0.1 0.4 0.1 0.5h-1.1zm3.1 9.5-0.1 0.9 0.5-0.8-0.4-0.1zm-2.1 0.1-1 1.3 1.6-1.3h-0.6z"/>
  <path class="cls-41" d="m83.9 77.5c-0.3-3.9 2.1-9.1 6.7-9.5 3.4 0 6 2.6 7.5 4l0.3 3-4 3.6-6.3 0.4-3.7 0.6-0.5-2.1z"/>
  <path class="cls-39" d="m84 77c0.5-4.1 3-6.9 7.6-6.9 2.3 0.3 5 1.4 5.5 3.8 0.5 3.2-4.2 5-6.6 5.1l-6.1 0.6c-0.5 0-0.4-1.6-0.4-2.6z"/>
  <linearGradient id="SVGID_47_" x1="85" x2="97.1" y1="73.68" y2="73.68" gradientUnits="userSpaceOnUse">
    <stop stop-color="#CD8C3E" offset="0"/>
    <stop stop-color="#F5E8CE" offset="1"/>
  </linearGradient>
  <path d="m85 74.6c1.1-2.7 3.6-4.6 6.5-4.2 2.5 0 5 2.2 5.6 3.1l-0.1 1.5-1-1.5c-1-1.5-4-2.9-6.4-2.1-3.2 0.6-4.1 2.2-5.1 4.6l0.5-1.4z" fill="url(#SVGID_47_)"/>
  <linearGradient id="SVGID_48_" x1="85.04" x2="94.04" y1="74.57" y2="74.57" gradientUnits="userSpaceOnUse">
    <stop stop-color="#4E2306" offset="0"/>
    <stop stop-color="#975006" offset="1"/>
  </linearGradient>
  <path d="m85.5 73.5c0.5-1.5 2-3 4.9-3.4 2.1 0.3 4.1 2 3.6 5 0 2.4-1.5 3.3-3.6 3.5l-1.8 0.3c-2.2-0.3-4.2-2.9-3.1-5.4z" clip-rule="evenodd" fill="url(#SVGID_48_)" fill-rule="evenodd"/>
  <path class="cls-41" d="m89 70.9c-3.6 0.6-2.9 8.1 0.6 7.7 4 0.4 4.4-8.6-0.6-7.7z"/>
  <path class="cls-30" d="m92 71.9c0 1.5-2.4 2.1-2.6 0.1-0.4-1.5 2.6-2 2.6-0.1zm-4.1 4.1c-0.9 0-0.5 1.1 0.2 0.6l-0.2-0.6z"/>
  <ellipse cx="93.5" cy="82.1" rx=".5" ry=".5" fill="#fff"/>
  <ellipse cx="95.6" cy="81.1" rx=".4" ry=".4" fill="#fff"/>
  <ellipse cx="96.5" cy="82.6" rx=".2" ry=".2" fill="#fff"/>
  <circle cx="95" cy="84.1" r=".1" fill="#fff"/>
  <circle cx="97.9" cy="80" r=".2" fill="#fff"/>
  <circle cx="90.6" cy="82.5" r=".4" fill="#fff"/>
  <path class="cls-41" d="m91.4 67.5c2 0.5 2.7-1 2.7-1.1 0.5 1.1-0.1 2.1-2.2 2.6h-0.9v-1.5z"/>
  <path class="cls-41" d="m92.6 68.4c1.9 0.6 2.9-0.4 3 0 0.4 0.5-0.5 1.6-2 1.6h-3.2l0.6-1.9 1.6 0.3z"/>
  <path class="cls-41" d="m93.9 69c2.2 0 4.1-1.4 4.2-1.9 0.5 1.3-1 2.8-2.6 3l-4-0.1 1.1-1.6 1.3 0.6z"/>
  <path class="cls-41" d="m95.6 69.5c2 0.5 3.9-0.9 4-0.6 0 1.1-1.5 2.1-2.5 2.6h-3.2l1.7-2z"/>
  <path class="cls-41" d="m97.5 70.6c1.5 0.4 2.5-0.6 2.5-1.7 0.1 2.2-1.4 3.6-2.9 3.6l-2.1-0.6 2.5-1.3z"/>
  <path class="cls-41" d="m97.5 71.5c2.1 0.5 3.6-1.1 3.6-1.1 0 2.6-2.5 3.7-3.7 3.6l-0.4-2.1 0.5-0.4z"/>
  <path class="cls-41" d="m98.1 73.5c0.8 0.5 1.5 1 1.9 1.5-0.4-0.5-1.1 0-1.9 0.4l-0.6-1.5 0.6-0.4z"/>
  <path class="cls-41" d="m97.9 74.6c0.2 0.4 1.5 0.4 1.5 1-0.8-0.2-1.5 0.4-2 0.4l-0.8-1 1.3-0.4z"/>
  <path class="cls-41" d="m97.4 75.6c0.5 0.4 1 0.9 1 1.4-0.5-0.5-1.5-0.6-2-0.5l0.1-1.1 0.9 0.2z"/>
  <path class="cls-41" d="m96.6 76.5c0.4 0.5 0.4 1.1 0.4 1.1-1-1-1.9 0-2.4-0.6l0.9-1 1.1 0.5z"/>
  <path class="cls-41" d="m95.1 77.1 0.5 1.3c-0.6-0.8-2-0.3-2.2-0.5l0.6-0.9 1.1 0.1z"/>
  <path class="cls-41" d="m93.1 78 0.9 1.4-1.6-0.8 0.7-0.6zm-2.5 0.6-0.2 0.5 0.7-0.5v-0.2l-0.5 0.2z"/>
  <path class="cls-43" d="m84 77.1c0-4.2 2.5-8.2 7-8.7m-7 11.1 4.6-0.5"/>
  <radialGradient id="SVGID_49_" cx="45.4" cy="58.4" r="2.3" gradientUnits="userSpaceOnUse">
    <stop stop-color="#834609" offset=".2182"/>
    <stop stop-color="#E09807" offset=".8121"/>
  </radialGradient>
  <path d="m44 58.4a1.4 1.5 0 1 1 2.8 0 1.4 1.5 0 1 1-2.8 0" fill="url(#SVGID_49_)"/>
  <path class="cls-25" d="m44.4 42c-0.5 0.4-0.5 0-1.4-0.4-1 0-3 0.4-3 1.9-2.5-0.5-3 1.5-2.9 2-1.1 0-1.6 1.5-1 3-2.6-0.9-4 0.6-3.7 2.1-1.9 0.5-2.4 3.4-1.4 4-1 0.4-0.5 3 0.5 2.9-0.5 1.6 1.5 2.1 2.5 1.5 1.9-1 5.5-2 10-0.6l0.4 0.2 0.6-0.6c2.1 0 0.5 0.1 2.1 0 2.5-4.5 5.9-3 8.8-3.6 1-0.4 0.7-1.4 0.2-1.4 1.9 0 1.9-2 0.9-3 1.4-0.4 0.6-3.4-0.5-3.4 0.5-1.6-1.5-2.6-2-2.2-1.4-1.3-3.5-0.9-4.5-0.4 0.4-0.9 0-2-1-2-0.9-1-2.1-0.5-2.1 0-0.4-1-1.8-1.4-2.5 0z"/>
  <path d="m44.9 58c-5.3-4-14.3-5.1-14-3-0.4 2.6 1.1 4 1.6 3.9 2.5-1.8 6.9-2.3 12.4-0.9z" fill="#FFCA08" stroke="#F8BD16" stroke-width=".185"/>
  <path d="m44.9 58c-4.4-4.6-12.5-8.5-12.9-7-2 0.5-1.6 3.9-0.5 3.5 1.9-0.5 7-0.1 13.4 3.5z" fill="#FFCA08" stroke="#F8BD16" stroke-width=".185"/>
  <path d="m45 58.1c-5.1-6.5-12.5-10.5-12.6-7.5-0.4-1.1 1.5-3.5 4.2-2 3.3 1.8 5.4 5 8.4 9.5z" fill="#FFCA08" stroke="#F8BD16" stroke-width=".185"/>
  <path d="m44.9 58c-2.9-3.4-4.9-14.9-5.5-14.4-1.3-0.2-2.4 1-2 2 2.5 1.9 4.6 8.4 7.5 12.4z" fill="#FFCA08" stroke="#F8BD16" stroke-width=".185"/>
  <path d="m44.9 58c-4.9-5.6-9.5-11.4-8.3-12.4-1.5-0.1-1.2 3.3-0.1 3 2.5 1.8 5.1 5.4 8.4 9.4z" fill="#FFCA08" stroke="#F8BD16" stroke-width=".185"/>
  <path d="m45 57.9c-1-2.9-5-13.5-5-14.4 1.1-2 3-2.4 3.5-1.1-1.1 2.1 0 8 1.5 15.5z" fill="#FFCA08" stroke="#F8BD16" stroke-width=".185"/>
  <path d="m45 58c-2.5-6.1-2-16.4 0-16.9 1.5 0 1.6 0.4 2 0.9-2 2.9-2 9.4-2 16z" fill="#FFCA08" stroke="#F8BD16" stroke-width=".185"/>
  <path d="m46 57.9c-1.5-2.9-1-15.5 1-15.9 0.5-0.5 2-0.4 2 0.5 1.4 0.9 0.6 1.5 0.5 2.4-3.5 3.6-4 9.6-3.5 13z" fill="#FFCA08" stroke="#F8BD16" stroke-width=".185"/>
  <path d="m46 58c0-6.9 1.6-12.9 4.1-14.6 0.4-0.4 0.3 1.6 0 1.7-4.1 4.9-4.1 11.9-4.1 12.9z" fill="#FFD425" stroke="#F8BD16" stroke-width=".185"/>
  <path d="m46.6 58 2.4-11.9c1.5-2.7 5.1-3.2 5-1.2-6.5 3.1-7.4 11.5-7.4 13.1z" fill="#FFD425" stroke="#F8BD16" stroke-width=".185"/>
  <path d="m46.5 57.9c1.9-6.3 7-13.9 8.9-13.4 1.6 0.5 1.1 2 0.6 2-6 1.5-9 7.5-9.5 11.4z" fill="#FFD425" stroke="#F8BD16" stroke-width=".185"/>
  <path d="m46.5 57.4c2.5-5.8 9.5-11.4 10-10.9 1.6 0 1.5 3 0.1 3-5 1-9 4.6-10.1 7.9z" fill="#FFD425" stroke="#F8BD16" stroke-width=".185"/>
  <path d="m46.6 57.4c2.9-4.5 9-7.4 10.4-7.4 0.5 1.1 0.6 3-1.9 2.6-4.1-0.6-7.1 2.9-8.5 4.8z" fill="#FFD425" stroke="#F8BD16" stroke-width=".185"/>
  <path d="m46.6 57.6c2.3-4 8-5 9.4-4.6-1 3-4.4 1-7 4l-2.4 0.6z" fill="#FFD425" stroke="#F8BD16" stroke-width=".185"/>
  <path class="cls-32" d="m40 51.1c-0.1-0.1-0.6-1.1 0-1.5 1 0 1.4 1 0.4 1.4l4.5 6.4-0.4 0.5-4.1-5.4-0.4 0.9c-1.5 0-1-1.5-0.5-1.4l-1.5 0.4c-0.9-0.9 1-1.4 0.4-1.4-1.4 0-0.4-1.5 0-1l0.6 1-0.6-1.5c0.1-1.5 1.5 0.5 1.1 1.1l0.4-0.1v-1.5c1 0 1.1 1.5 0.1 2.1z"/>
  <path class="cls-28" d="m40.4 51.5c-0.3-0.9 1.6-0.9 0.7 0zm-0.5-1.1c-0.5-1 1-1 0.5 0zm-0.8-0.4c-0.7-1 0.5-0.6 0.4 0.4l-0.4-0.4zm-0.1 1c-1.1 0-1.1-1 0-0.4v0.4zm0 0.4c-0.6 1-0.6 1.6 0.4 1l-0.4-1zm0.9 0.7c0.5 1.3 1.1 0.9 0.6-0.1l-0.6 0.1z"/>
  <path class="cls-29" d="m47 57.6c2-3 6-4.5 9-2.6 2 1.4 0.5 2.6 0.5 2.6 1.5 0.8 1.6 3 0.5 3.4 1 1.4-0.4 2-1 2 0.6 1.4-0.6 2.5-1.4 2.5 0.4 1.5-2.1 2.4-3.1 1.1-0.4 1.3-1.9 0.9-3-1.1l-2.1-5.5h-1.3c-5.6 2.6-6.5 8-5.7 10 0.1 0 0.6-0.4 0.6 0 0 1.9 1.4 2.9 2 2 0.4 1.9 3 2.1 3 0.5 1 1.5 2.4 0.1 2 0 1.4 0.5 3.1-1 1.5-2.4 1.5 0.5 2.5-0.5 1.5-3.5l-3-6.6h0.1c0.4 1.5 2.9 7 4.4 7.4 2.9 0.6 1-1.9 1-1.9s1.5 2 2 1.5c1.5-0.6 0-2.4 0-2.4 1.5 0.4 3.6-0.6 1.4-2.1 2.1 0.5 2.2-2 0.6-2.1 1.6-0.5 0.9-2.5-0.6-2.8 1.7-1 0.1-2.6-2.3-3-3-0.6-6.2 3-6.6 3z"/>
  <path class="cls-29" d="m46.6 58.4c3.4-1.8 7-1.9 10 0.6 1.3 1-0.2 1.6-0.2 1.6 1.7 0 0.6 2.5-0.5 1.8 1 1.5-2 3.6-3 1l-4.3-3.4h-2.2l-0.3-1 0.5-0.6z"/>
  <path class="cls-20" d="m46.6 58.6c3.8 0.8 9 5.4 9.4 5.4 0.6 0-0.1 1.5-1.5 1.5l-3.1-2.5-3.9-3-0.9-1v-0.4zm0-0.2c2.4 0.5 8.4 4.1 9.3 4.2l1.2-1.5c-3-2.2-6.5-2.6-10.5-3.1v0.4zm0-0.4c4-1 7.4-1.4 10.3-0.1l-0.4-0.9c-3.6-1-6.4-1-9.9 1z"/>
  <path class="cls-29" d="m44.6 60.6c-1.6 2.8-1.7 12.3-0.1 12.4-1.4 1-2.5-0.5-2.5-1-2 2-2.5-3-2-2.5-1 1.1-1-5.5 4.6-8.9z"/>
  <path class="cls-20" d="m42 72c0.4-6.1 0.9-9.5 3-12-2.5 2.6-5.5 5-5 9.5 0-0.4 0.5 0 0.5 0-0.5 1.5 1 3.5 1.5 2.5z"/>
  <path class="cls-20" d="m45 72.5 1.9 0.1c-0.9 1.8-2.3 0.4-1.9-0.1z"/>
  <path class="cls-20" d="m47 72.4c1 0.6 2.6-1 1.5-1.9l1-0.5c1.1 1.5-0.9 3.6-2 2.4h-0.5z"/>
  <path class="cls-20" d="m48.5 65c2 2.9 1.9 5.5 0.4 5l1.1 0.9c1.4-0.4 1-3.3-1.5-5.9z"/>
  <path class="cls-20" d="m46.4 60c0.1 3.1 2 7.6 5.1 7 0 0.9-1.9-0.6-2.5-1.5z"/>
  <path d="m51 88v-2h1v1.9m-1 1.1v1.4h0.6l-0.1-1.4" fill="#8b3a10" stroke="#b55f0d" stroke-linecap="round" stroke-width=".3"/>
  <path d="m50 86.5a1.1 1.1 0 1 1 2.2 0 1.1 1.1 0 1 1-2.2 0" fill="#C4780C"/>
  <path d="m50.4 86.4a0.7 0.6 0 1 1 1.4 0 0.7 0.6 0 1 1-1.4 0" fill="#FEC61C"/>
  <path d="m50.5 89.6v-0.7h0.9v0.7" fill="#8B3A10" stroke="#b55f0d" stroke-linecap="round" stroke-width=".2"/>
  s
  <path d="m49.7 89.1a1.1 1.1 0 1 1 2.2 0 1.1 1.1 0 1 1-2.2 0" fill="#C4780C"/>
  <path d="m50.1 89a0.7 0.6 0 1 1 1.4 0 0.7 0.6 0 1 1-1.4 0" fill="#FEC61C"/>
  <path d="m51 90.4c-3-2.4-6.4-0.5-5.9 3.2 0.5 3.4 4.8 6.8 5.4 7.4 0.5 0 5.9-3.4 5.9-7.6 0-3.4-4-4.8-5.4-3z" fill="#B14A09"/>
  <path d="m51.1 91.4c-1.8-2.6-5.6-1.6-5.1 2.2 0.4 3 3.9 5.6 4.9 6.4 1.1-0.5 4.6-3.1 5.1-5.9 0.2-3.6-3.5-5.5-4.9-2.7z" fill="#ffcb13"/>
  <path d="m45.5 93.9 10 0.3c-0.5 1.8-4.1 4.8-5 5.7-2-0.9-5-4.3-5-6z" fill="#003CBA"/>
  <path d="m47.4 97.5 6.4 0.2c-0.8 0.9-3.2 2.3-3.2 2.3-1.2-0.5-3.2-2.5-3.2-2.5z" fill="#dc181c"/>
  <path d="m103.9 86 0.1-2h1v2" fill="#8b3a10" stroke="#b55f0d" stroke-linecap="round" stroke-width=".3"/>
  <path d="m102.9 84.5a1.1 1.1 0 1 1 2.2 0 1.1 1.1 0 1 1-2.2 0" fill="#C4780C"/>
  <path d="m103.4 84.4a0.7 0.6 0 1 1 1.4 0 0.7 0.6 0 1 1-1.4 0" fill="#FEC61C"/>
  <path d="m104.1 89v-0.9h1v0.9" fill="#8B3A10" stroke="#b55f0d" stroke-linecap="round" stroke-width=".2"/>
  <path d="m103 87.5a1.1 1.1 0 1 1 2.2 0 1.1 1.1 0 1 1-2.2 0" fill="#C4780C"/>
  <path d="m103.4 87.4a0.7 0.6 0 1 1 1.4 0 0.7 0.6 0 1 1-1.4 0" fill="#FEC61C"/>
  <path d="m104.6 89.4c-3-2.4-6.2 0.5-5.1 4 1 3.2 5.1 6 5.5 6.6 0.5 0 5.5-3.6 5.5-7.1 0-3.9-4.1-5.3-5.9-3.5z" fill="#B14A09"/>
  <path d="m104.6 90.4c-2.1-2.6-5-1.1-4.5 2.4 0.4 2.7 3.9 5.2 4.9 6.2 1 0 4.5-3 5-5.6 0.4-4-2.9-6-5.4-3z" fill="#ffcb13"/>
  <path d="m99.6 93.1 9.9-0.6c0.5 1.5-2.5 5.5-4.5 6.5-1.6-0.9-5-3.5-5.4-5.9z" fill="#003CBA"/>
  <path d="m101.5 96.1 6.5-0.2c-0.3 1.1-2.5 3-3 3.1-1.5-0.9-3.5-2.9-3.5-2.9z" fill="#dc181c"/>
</svg>