<svg xmlns="http://www.w3.org/2000/svg" viewBox="0 0 150 142.6">
<!-- SVG created with Arrow, by QuiverAI (https://quiver.ai) -->
  <style type="text/css">.cls-0 {fill:#FDFDFD;}
.cls-1 {fill:url(#SVGID_1_);stroke:#E79907;stroke-width:0.8;stroke-linejoin:round;stroke-miterlimit:10;}
.cls-2 {fill:url(#SVGID_2_);}
.cls-3 {fill:url(#SVGID_3_);}
.cls-4 {fill:url(#SVGID_4_);}
.cls-5 {fill:url(#SVGID_5_);}
.cls-6 {fill:url(#SVGID_6_);}
.cls-7 {fill:url(#SVGID_7_);}
.cls-8 {fill:url(#SVGID_8_);}
.cls-9 {fill:url(#SVGID_9_);}
.cls-10 {fill:url(#SVGID_10_);}
.cls-11 {fill:url(#SVGID_11_);}
.cls-12 {fill:url(#SVGID_12_);}
.cls-13 {fill:url(#SVGID_13_);}
.cls-14 {fill:#FFC73B;stroke:#EDA520;stroke-width:0.5;stroke-miterlimit:10;}
.cls-15 {fill:url(#SVGID_14_);}
.cls-16 {fill:url(#SVGID_15_);}
.cls-17 {fill:#A95600;}
.cls-18 {fill:url(#SVGID_16_);}
.cls-19 {fill:url(#SVGID_17_);}
.cls-20 {fill:#6A3500;}
.cls-21 {fill:url(#SVGID_18_);}
.cls-22 {fill:url(#SVGID_19_);}
.cls-23 {fill:#2A1300;}
.cls-24 {fill:#492505;}
.cls-25 {fill:#FFFFFF;}
.cls-26 {fill:#7A4405;}
.cls-27 {fill:#AF5F00;}
.cls-28 {fill:#FFCD33;}
.cls-29 {fill:url(#CV_J-YR_2_);}
.cls-30 {fill:#AA2900;}
.cls-31 {fill:url(#XMLID_3_);}
.cls-32 {fill:#FB1F1D;}
.cls-33 {fill-rule:evenodd;clip-rule:evenodd;fill:#FED32B;}
.cls-34 {fill:url(#XMLID_4_);}
.cls-35 {fill:#DBAC26;stroke:#CC8B09;stroke-width:0.5;stroke-miterlimit:10;}
.cls-36 {fill:url(#XMLID_5_);}
.cls-37 {fill:#DC1117;}
.cls-38 {fill:#093EC5;}
.cls-39 {fill:#FCFF9E;}
.cls-40 {fill:#FBC116;stroke:#CA7A00;stroke-width:0.25;stroke-miterlimit:10;}
.cls-41 {fill:#CE8B0E;}
.cls-42 {fill:url(#XMLID_6_);}
.cls-43 {fill:url(#XMLID_7_);}
.cls-44 {fill:url(#XMLID_8_);}</style>
  <linearGradient id="SVGID_1_" x1="5.626" x2="144.3" y1="71.3" y2="71.3" gradientUnits="userSpaceOnUse">
    <stop stop-color="#DE8B06" offset="0"/>
    <stop stop-color="#FECD39" offset=".29"/>
    <stop stop-color="#EEA109" offset=".53"/>
    <stop stop-color="#EBA922" offset=".76"/>
    <stop stop-color="#DD8A08" offset="1"/>
  </linearGradient>
  <path class="cls-1" d="m143.9 60.6c0.5-0.2 0.2-0.8-0.1-0.7-1.6 0.1-8.4 0.9-11.8 0.8s-5.6-0.8-9 0.4c-2.4 0.8-4.8 2.3-5.8 1.5l0.7 0.5c-1.7-7.7-5.4-20.2-16.9-27.3 1.1-2.6 2.9-4.4 4.6-5.7 5.2-4.3 12.9-11.4 15.3-14.3 0.4-0.5 0.9 0 0.6 0.5l-9.7 18.7c-1.9 3.8-3.4 4.9-5.4 6h-0.4v-0.2l0.6 0.1c0.7 0.6 3.3-0.3 5.4-4.4l9.5-20.4c-1.9 2.5-11.1 9.8-16.3 14.1-1.7 1.6-3.3 3.6-4.1 5.8-4.6-3.1-9.5-5.4-14.8-7 1.6-0.9 3.1-2.3 3.3-5 0.4-5.3 8.1-5.9 9.9-12.6 0.9-3.3-1.4-5.3-1.7-3.3 0.3 1.6-1.4 4.7-6 6.5-2.5 0.9-7.2 2.8-7.9 8.4-0.5 3.3-2.8 4.1-4.4 6.7l-1.9 0.9-0.3-0.6c1.6-2.4 1.6-5.4 1.2-7.5l-3-20.5c-0.1-0.7-0.8-0.6-0.8 0l-2.4 15.1c-0.6 3.4-1.8 7.3-0.3 10.6v0.9l-3.3-0.1c-1.3-1.4-2.7-2.6-2.9-4.9-0.5-4.2-4-6.9-7-8-4.6-1.7-6.2-4.9-5.8-7.1-0.1-1.8-2.5-0.1-2.5 2.8 0 3.6 2.3 6.1 0.9 9.7-0.8 2.3-2.4 3.9-2.1 7.6 0.2 2.3 1.6 4.4 3.5 6.4-3.5 2.2-5.2 4.1-5.2 4.1l2-2.5-0.6-1.1c-0.9-1.9-2.4-3.9-4.7-5.7l-15.2-14.2c-0.3-0.2-0.8 0.1-0.6 0.5l9.9 18.5c2 4.1 4.1 6 5 5.4l0.1 0.6c-1.5 1.2-4 3.1-5.7 0-3.3-2.5-6.4-3.7-10.9-3.1-3.6 0.5-8.8 2.3-12.2-2.7-1.1-0.7-1.8 2.5 0.4 6.8 2.5 4.3 5 2.5 6.6 9.4 1.8 6.9 7.2 10.2 10.9 10.9l2.3 1.7-5.4-1.7c-2.5-0.8-4.5-1.3-7.9-1.2-3.4 0.3-10.2-0.3-15.5-0.8-0.5 0-0.5 0.6-0.2 0.7l7.2 3.2c5.3 2.3 7.3 5.2 11.3 5.9-3.5 1.6-5.5 4.8-6.9 7.4-1.5 2.8-3.9 4.8-8.1 3.4-2.1-0.6-5.5-3-7.3 1.5-0.2 0.4 0 0.9 0.4 0.6 5.3-3 7.5 8.3 15.9 8.3 6.4 0 7.4-3.3 11.8-3.9l2.6 0.6c-2.2 0.3-6.9 3-8.2 8.9-1.7 7.7-7.2 9.9-11 8.1-1.8-0.6-0.5 3.5 4 5.4l5 1.8c2.9 1.2 8 2.4 12.9-1.9 4-3.4 5.3-2.8 8-3.3 2.3-0.2 4.9-1 7.4-3l0.5-0.6-3.3 3.1c-1.7 1-3.5 2.9-4.7 5l-10 15.4c-0.1 0.2 0.1 0.4 0.2 0.1l10.2-9.5 8.1-6.6 3.1-4.6-1.4 3.6c-1.5 1.9-5.2 5.4-4.7 10 0.6 6 6.2 7.9 4.2 13.9-0.6 1.5-2.1 2.7-2.7 3.2-1.3 2.5 9.1 1.3 11.7-3.2 1.9-2.8 1.8-5.8 1.5-7.5-0.2-3.4 3.3-3.3 6.3-7.5l2.1-3.6 2.9-4.8 0.6-1.1-0.6 2.6c-0.9 2.1-1.9 4.6-1.3 7.9l3.3 21.1c0 0.4 0.6 0.4 0.6 0l3.4-20c0.9-4.4 0.1-7.9-2-12.4l0.2-0.7 2.5-0.3c0 2.9 1.4 7.4 3.3 10.4 4 5.6 9.7 4.5 9.9 10.1-1.2 9.5 9.8 10.9 10.8 10 0.8-0.1 0.3-1-0.5-1.5-3.5-3.2-3.1-6.6 0.4-10.6 2.4-2.9 3.5-5.9 3.5-8.5l0.5-0.5 10.4 10.1 0.2-0.1-9-15.5c-2.5-4-5.1-4.9-7.2-7.6l0.6-1.3c3 4.4 7.4 3.7 9.4 4.5 3.6 1.3 3.6 6.3 9.6 6.3 3.1 0 4.9-1.3 8-2.4 2.9-1.1 5.1-3.1 6-5.1 0.1-0.4-0.1-1-1-0.8-3.4 2-8 0-9.5-7-1.2-6.5-6.4-10-9.4-10l3.8-0.2c3.2 0.2 4.6 3.5 10.5 3.5 7.7-0.3 10.6-7.8 13.9-8.8 1.1-0.2 1.8 0 2.1 0.4 0.5 0.4 0.2-0.5 0.1-0.9-1.6-3.2-3.6-2.5-5.6-1.7-4.4 1.7-6.8 0.1-8.4-2l-1.6-2.5-0.4-0.8c-0.1-2.2-1.2-5.1-2.6-6.2l0.7-0.3c4-2.7 6.5-4.1 13.8-7.5z"/>
  <radialGradient id="SVGID_2_" cx="77.3" cy="65.98" r="29.43" gradientTransform="matrix(1 0 0 .978 -.0009933 5.766)" gradientUnits="userSpaceOnUse">
    <stop stop-color="#FFCF3F" offset=".5135"/>
    <stop stop-color="#FFBB24" offset="1"/>
  </radialGradient>
  <path class="cls-2" d="m106.6 67.4c-3.1-10.5-16-18.3-29.7-18.4-5.9 0.5-21.8 0-29 17.4-2.8 6.6-1.5 22.5 6.6 30.7 6 6 14.1 10.8 23 10.8 7.1 0 17.4-4.5 22-9.9 6.1-6.1 9.9-16.6 7.1-30.6z"/>
  <path fill="none" stroke="#C5942A" stroke-width="1.4" stroke-linecap="round" stroke-linejoin="round" d="m106.6 67.4c-3.1-10.5-16-18.3-29.7-18.4-5.9 0.5-21.8 0-29 17.4-2.8 6.6-1.5 22.5 6.6 30.7 6 6 14.1 10.8 23 10.8 7.1 0 17.4-4.5 22-9.9 6.1-6.1 9.9-16.6 7.1-30.6z"/>
  <path fill="none" stroke="#B87A13" stroke-width="1.8" stroke-linecap="round" stroke-linejoin="round" d="M47.2 94.5c8.5 7.5 19.3 11.8 28.3 11.8 9.1 0 20.3-4.6 28.6-12.2"/>
  <linearGradient id="SVGID_3_" x1="86.11" x2="99.13" y1="18.74" y2="18.74" gradientUnits="userSpaceOnUse">
    <stop stop-color="#EDA520" offset="0"/>
    <stop stop-color="#FFE286" offset=".5"/>
    <stop stop-color="#EDA520" offset="1"/>
  </linearGradient>
  <path class="cls-3" d="m84.8 28.9c1.7-1.3 2.1-2.9 2.3-4.3 1.3-8 8.5-8 10.8-12.5 1-1.7 1.5-3 0.7-4.7 1.3-0.7 1 4.6-3.1 8-2.6 2.1-6.4 3.5-7.4 9.1-0.5 3.5-2.2 4-3.3 5v-0.6z"/>
  <linearGradient id="SVGID_4_" x1="52" x2="65.05" y1="15.97" y2="15.97" gradientUnits="userSpaceOnUse">
    <stop stop-color="#EDA520" offset=".09"/>
    <stop stop-color="#FFE88A" offset=".52"/>
    <stop stop-color="#EFAD24" offset=".91"/>
  </linearGradient>
  <path class="cls-4" d="m52.5 7.4c-2 2.7 0.1 7.6 3.4 10 2.5 2 3.6 5 3.1 7.6-0.4 3.4 2.4 5.1 2.4 5.1h3.1c-1.1-1.2-2.6-2.2-2.7-5.7-0.8-7.3-7.3-7.7-8.8-11.5-1.6-2.4-1.1-5.3-0.5-5.5z"/>
  <linearGradient id="SVGID_5_" x1="14.15" x2="37.46" y1="38.54" y2="38.54" gradientUnits="userSpaceOnUse">
    <stop stop-color="#EAB236" offset=".04"/>
    <stop stop-color="#FFF1A6" offset=".52"/>
    <stop stop-color="#FDCE47" offset=".94"/>
  </linearGradient>
  <path class="cls-5" d="m14.6 34.9c-0.5 1.5 1.2 5.6 6.5 5.2 4.3-0.2 8.5-2 13.8 1.4l2.6 1v-2c-1.5-1.1-4.1-3.1-9-3-4.4 0.1-10.7 3-13.9-2.6z"/>
  <linearGradient id="SVGID_6_" x1="109.5" x2="136.2" y1="43.01" y2="43.01" gradientUnits="userSpaceOnUse">
    <stop stop-color="#EDA520" offset=".04"/>
    <stop stop-color="#FFECA4" offset=".48"/>
    <stop stop-color="#FFCB3E" offset=".87"/>
  </linearGradient>
  <path class="cls-6" d="m109.4 43 0.1 3.4c1.9 0.2 3.4-0.9 5-2.7 7.5-8.2 13.5-1.7 18-5 3.4-1.8 3.4-4.1 3.6-3.8-0.5-0.9-1.5 4.6-8.1 3.2-5.5-0.7-9-3-15.9 2.4-1.5 1.1-2.6 1.5-3.6 1.9l0.9 0.6z"/>
  <linearGradient id="SVGID_7_" x1="112" x2="136.1" y1="89.83" y2="89.83" gradientUnits="userSpaceOnUse">
    <stop stop-color="#C98216" offset="0"/>
    <stop stop-color="#FFDA68" offset=".46"/>
    <stop stop-color="#FFBF2A" offset="1"/>
  </linearGradient>
  <path class="cls-7" d="m111.9 84.5c0.5 4.4 6.1 5.4 7.5 6.1 7.2 3.9 4.6 6.8 8.6 12 2 2.5 6.4 4 8.1 2.5-1.1 2.3-9.1 2.5-11.7-4-1.3-3.2-3-8.2-8.4-10.2-2.9-1-5.4-3-4.5-6.4h0.4z"/>
  <linearGradient id="SVGID_8_" x1="14.15" x2="46.3" y1="94.18" y2="94.18" gradientUnits="userSpaceOnUse">
    <stop stop-color="#FFDA68" offset="0"/>
    <stop stop-color="#EDAE2A" offset=".45"/>
    <stop stop-color="#C48015" offset="1"/>
  </linearGradient>
  <path class="cls-8" d="m14.1 105c2 1.6 7.3 1.5 9.9-2 3.6-5.1 1.1-10.4 9.9-15.1l5.1-0.5 7.3-5.3-1.7 4.3c-2 3.7-3.7 4-6.8 4.1-5.3 1-9.2 3.6-10.9 8.5-2.8 8.1-10.5 8.6-12.8 6z"/>
  <linearGradient id="SVGID_9_" x1="103.1" x2="132.1" y1="65.92" y2="65.92" gradientUnits="userSpaceOnUse">
    <stop stop-color="#EDA520" offset=".11"/>
    <stop stop-color="#FFE17D" offset=".52"/>
    <stop stop-color="#EDA520" offset=".9"/>
  </linearGradient>
  <path class="cls-9" d="m103.1 59.4c2.4 6 9.3 10.6 15.4 10 4.5-0.4 7.5-1.5 13.6 4.1-1.5-6.1-6-8-10.2-8.1-7.8 0.2-11-2.8-12.4-6h-6.4z"/>
  <linearGradient id="SVGID_10_" x1="2.142" x2="46.82" y1="75.99" y2="75.99" gradientUnits="userSpaceOnUse">
    <stop stop-color="#FFDB69" offset=".12"/>
    <stop stop-color="#EDA520" offset=".5"/>
    <stop stop-color="#FFE887" offset=".77"/>
    <stop stop-color="#EDA520" offset=".96"/>
  </linearGradient>
  <path class="cls-10" d="m2.1 82.1c0.9-2.7 3-3.2 5.8-2.1 8.2 3.6 9.5-4 11.6-7 3.6-5.1 8.9-5.5 13-4.6l14.3 2.2c-2.7 5.4-8.3 8.4-14.4 6.3-6.6-2.4-11-2.4-15.4 4.1-2.4 3.4-5.9 4-9.1 2-2.5-1.6-4.5-2.9-5.8-0.9z"/>
  <linearGradient id="SVGID_11_" x1="106.9" x2="148" y1="81.69" y2="81.69" gradientUnits="userSpaceOnUse">
    <stop stop-color="#FFEB96" offset=".11"/>
    <stop stop-color="#FFBD2A" offset=".5"/>
    <stop stop-color="#FFE791" offset=".84"/>
  </linearGradient>
  <path class="cls-11" d="m106.9 66.6c2.2 4.4 6.6 10.8 14.2 10.3 4.3-0.4 8.8-0.3 12.5 5.1 1.9 2.6 5.4 2.5 8.5 0.6 1.9-1.2 3.9-3 5.9-1-0.5-1.6-1.9-3-5-1.6-4.9 2.1-6.9 1-8.9-1.9l-1.6-2.7c-1.4-1.8-5.1-7-10.9-5.5-8.5 1.1-11.6-0.9-14.7-3.3z"/>
  <linearGradient id="SVGID_12_" x1="49.68" x2="75.45" y1="121.8" y2="121.8" gradientUnits="userSpaceOnUse">
    <stop stop-color="#F0AD26" offset=".09"/>
    <stop stop-color="#FFDF78" offset=".5"/>
    <stop stop-color="#CF8B15" offset=".93"/>
  </linearGradient>
  <path class="cls-12" d="m50.4 137c3.6-1.4 5-3.9 3.6-7.6-6.6-10.4-4.1-14 0.4-18.8 2.5-2.7 2-8.1 0.6-10 3.6 3.3 7.5 4.5 3.6 10.3-4.1 5.2-8.6 9-3 17.1 1.4 2.1 2 7.5-5.2 9z"/>
  <linearGradient id="SVGID_13_" x1="81.51" x2="105.9" y1="121.8" y2="121.8" gradientUnits="userSpaceOnUse">
    <stop stop-color="#F0AD26" offset=".09"/>
    <stop stop-color="#FFDF78" offset=".5"/>
    <stop stop-color="#E7A31C" offset=".93"/>
  </linearGradient>
  <path class="cls-13" d="m81.5 107.4c0 4.5 3.4 11.6 7.9 14 3.5 1.7 6.6 3.2 6 6.5-0.8 7.1 6.2 9.6 10.5 9.6-4.4-1-8-3.9-6-9.6 1-2.8 0.2-7.8-5.9-11.3-4.6-2.5-7.6-9.1-5.5-13l-7 3.8z"/>
  <linearGradient id="SVGID_14_" x1="98.49" x2="109.2" y1="118.9" y2="118.9" gradientUnits="userSpaceOnUse">
    <stop stop-color="#EDA520" offset=".04"/>
    <stop stop-color="#FFE37D" offset=".52"/>
    <stop stop-color="#FFE889" offset=".94"/>
  </linearGradient>
  <path class="cls-15" d="m98.4 98.1c-1.5 2.8-3.3 7.3 2.6 13.3 8.4 7.6 2.9 13 0.1 17.6-2 3.6 1 7.9 4.8 8.5-4.8-3.6-3.5-7.5 0.2-12 2.8-3.4 4.3-8.6 1.4-13.1-2.9-5-7.9-6-4.4-15.3l-4.7 1z"/>
  <linearGradient id="SVGID_15_" x1="46.06" x2="112.1" y1="41.65" y2="41.65" gradientUnits="userSpaceOnUse">
    <stop stop-color="#B36406" offset="0"/>
    <stop stop-color="#FFCD51" offset=".49"/>
    <stop stop-color="#E59A1B" offset="1"/>
  </linearGradient>
  <path class="cls-16" d="m45.8 38.1 6.1-4.7c5.6-3.5 12-5.8 17-5.4 3.6 0 8.1 2.6 8.5 2.6 10.5-4.2 27.2 2.8 34.7 19v1.8c-4.2 1.6-12.6-0.5-15.7-4.3l-13.8-7.2-15.2 1.7-16 1-5.3-3.5-0.3-1z"/>
  <path d="m64.9 50.6c1.5-1 7.7-3.2 12.6-1.2l1.6-0.9c3.4-1.4 8-1 11.3 2l-4-4.9h-16l-3.8-0.6-1.7 5.6z" fill="#9E5605"/>
  <radialGradient id="SVGID_16_" cx="76.98" cy="47.58" r="4.808" fx="76.91" fy="47.59" gradientTransform="matrix(1 0 0 1.38 0 -18.52)" gradientUnits="userSpaceOnUse">
    <stop stop-color="#994903" offset="0"/>
    <stop stop-color="#AC5B07" offset="1"/>
  </radialGradient>
  <path class="cls-18" d="m67.6 45.6c0.8-0.2 6.3-2.1 7.9 3.3h2c-1-6-6.4-5.9-7.5-4.8l-2.4 1.5z"/>
  <radialGradient id="SVGID_17_" cx="84.74" cy="47.84" r="3.288" gradientTransform="matrix(1 0 0 1.03 0 -1.476)" gradientUnits="userSpaceOnUse">
    <stop stop-color="#994903" offset="0"/>
    <stop stop-color="#AC5B07" offset="1"/>
  </radialGradient>
  <path class="cls-19" d="m79.1 48.5 2.3-0.5c2.2 0.1 3.1-1.6 7 1.1l-1.5-2.5-4-1.1-3.8 3z"/>
  <path class="cls-20" d="m52.1 69.5c2.3-4.6 8.4-7.5 13.3-5.9 2.5 0.9 3.1 3 1.5 2.9-4.4-1.1-9-1.6-14.8 3z"/>
  <linearGradient id="SVGID_18_" x1="62.78" x2="67.68" y1="63.81" y2="63.81" gradientUnits="userSpaceOnUse">
    <stop stop-color="#753F0A" offset="0"/>
    <stop stop-color="#8C4A08" offset="1"/>
  </linearGradient>
  <path class="cls-21" d="m62.8 63.4c0.8 0.2 3.6 0.7 4.8 3.1-0.5-0.1-2.7-0.5-4.8-0.9v-2.2z"/>
  <path class="cls-20" d="m84.4 64.9c-0.5-2.3 4-4.4 8.2-4.2 3.9 0.3 6.9 2.7 7.9 4.7-4.1-2.8-7.9-3.5-15.1-0.4-0.5 0.4-0.8 0.4-1-0.1z"/>
  <linearGradient id="SVGID_19_" x1="84.48" x2="87.31" y1="63.38" y2="63.38" gradientUnits="userSpaceOnUse">
    <stop stop-color="#753F0A" offset="0"/>
    <stop stop-color="#8C4A08" offset="1"/>
  </linearGradient>
  <path class="cls-22" d="m87.3 61.4c-0.3 1.1-2.3 1.7-1.9 4-1 0-2.3-1.3 1-3.4l0.9-0.6z"/>
  <path d="m71.6 93.4c1.2 2.1 5.9 6.2 10.3 1.2l1.7-2.2-12 1z" fill="#EEA017"/>
  <radialGradient id="SVGID_20_" cx="-127.9" cy="53.09" r="7.654" gradientTransform="matrix(-.9433 0 0 1 -59.29 0)" gradientUnits="userSpaceOnUse">
    <stop stop-color="#FC961D" offset="0"/>
    <stop stop-color="#FFBC34" offset="1"/>
  </radialGradient>
  <path d="m68.4 90.4c3.1 1.5 4 5.8 8.9 5.9 4.6 0.1 6.6-5.3 8.6-6.9l-6.3 2.6-11.2-1.6z" fill="url(#SVGID_20_)"/>
  <path d="m70.4 91.6c2 1.3 6.6 2.8 11.1 1.4l0.9-1-8.9-0.4h-3.1z" fill="#F67D28"/>
  <path d="m77.6 94.4c1.2 0.2 3-0.3 2.9-0.8-0.1-0.6-0.6 0.4-2.9 0.8z" fill="#FAA452"/>
  <path d="m68.4 90.4c2.1 1.2 4.2 1.5 7.1 1.2 1.1-0.1 1.4 0.4 3.5 0 3.4-0.6 5.9-1.2 7.1-2.2l-4.5 2.7c-2.5 1.3-5.5 2.4-13.2-1.7z" fill="#9E4002"/>
  <path d="m69.6 91.1c1.3 0.5 4.8 0 6 0 1-0.1 1.5 0.5 3 0 1.3-0.5 4.8-0.1 6.5-1.2l0.8-0.5c-1.9 1-4.3 0.5-5.9 0.5-1.2 0.1-1.9 1.2-3.9 0.6-1.5-0.4-4.1 1.4-7.5-0.1l1 0.7z" fill="#BF6004"/>
  <path d="m73.6 85.6c0.4-1 1.5-2.2 3.8-2.5 2.2 0 3.2 1.4 2.7 3.5-0.7 1.3-2.2 0.3-2.7 1-1.5 0.4-1.8-0.7-2.8-0.5-0.7 0-1.1-0.7-1-1.5z" fill="#FFBA3B"/>
  <path d="m76 84.9c0.1-0.5 2.4-1 2.4 0.1 0 1-2.4 0.5-2.4-0.1z" fill="#FFD666"/>
  <path d="m74.7 86.4c0.3 0 0.4 0 0.8 0.7-0.6 0.3-1-0.2-0.8-0.7z" fill="#C96705"/>
  <path d="m79.5 86.1-0.9 0.8c0.4 0.2 1.3 0.1 0.9-0.8z" fill="#C96705"/>
  <path d="m67.6 90.9c-0.2-0.8 0.8-1.5 1.3-0.5 0.2 0.6-0.8-0.4-0.8 0.6l-0.5-0.1z" fill="#662B00"/>
  <path d="m85.6 88.9c0.4-0.5 1.8-0.8 1.5 0.6-0.5 0.5-0.2-0.5-1.2 0l-0.3-0.6z" fill="#662B00"/>
  <radialGradient id="SVGID_21_" cx="47.04" cy="83.42" r="5.634" gradientUnits="userSpaceOnUse">
    <stop stop-color="#FAB422" offset="0"/>
    <stop stop-color="#D48509" offset="1"/>
  </radialGradient>
  <path d="m43.9 77.5c-2 4.4-1.3 9.1 2.6 12.1 1.4 1.3 3.6 2 4.9 0.8-1.5-3.4-1.9-7-2.4-9.8l-2.5-4.5-2.6 1.4z" fill="url(#SVGID_21_)"/>
  <path d="m43.4 79.9 3 1.1c-3.4 0-1.8 4.9 0.7 5.6-1.5 0.5 0.4 2 1.5 2.5-1.1 1.4-4.6-1.5-6.1-6l0.9-3.2z" fill="#C47407"/>
  <linearGradient id="SVGID_22_" x1="43.82" x2="47.09" y1="81.06" y2="81.06" gradientUnits="userSpaceOnUse">
    <stop stop-color="#BB7007" offset=".04"/>
    <stop stop-color="#EBA51F" offset="1"/>
  </linearGradient>
  <path d="m44 78.6 3.1 2.3 0.3 2.6c-1.3-1.9-2.8-3.9-3.6-1.9l0.2-3z" fill="url(#SVGID_22_)"/>
  <radialGradient id="SVGID_23_" cx="107.7" cy="80.32" r="5.673" gradientUnits="userSpaceOnUse">
    <stop stop-color="#FAB422" offset="0"/>
    <stop stop-color="#D48509" offset="1"/>
  </radialGradient>
  <path d="m106.1 78.1 3.3-4.1 3.2 2.4c1 6-1.2 12.5-8.1 11.6l1.1-4 0.5-5.9z" fill="url(#SVGID_23_)"/>
  <path d="m107.1 84.4 0.4-4 2.4-2.8c1.1 1.5 1.5 6.4-2.8 6.8z" fill="#C47407"/>
  <path d="m106.9 84.1c1.6-1.1 2.1-2.2 0-4.2l0.2 4.2h-0.2z" fill="#F2A31E"/>
  <path d="m107.5 80.1c1.1-1.7 3-4.2 3.5-2.7-2 0.5-2.1 2.7-3.5 2.7z" fill="#D68708"/>
  <radialGradient id="SVGID_24_" cx="106.2" cy="81.77" r="1.728" gradientUnits="userSpaceOnUse">
    <stop stop-color="#FAB422" offset="0"/>
    <stop stop-color="#D48509" offset="1"/>
  </radialGradient>
  <path d="m106.1 84.1c0-3.5 2.5-3.7 1.5-1.7l-1.5 1.7z" fill="url(#SVGID_24_)"/>
  <linearGradient id="SVGID_25_" x1="47.1" x2="48.9" y1="84.65" y2="84.65" gradientUnits="userSpaceOnUse">
    <stop stop-color="#D48509" offset="0"/>
    <stop stop-color="#FAB422" offset="1"/>
  </linearGradient>
  <path d="m46.9 82c1.1 1.6 2.7 5 1.2 5.4-1-0.3 0.9-2.4-1.2-5.4z" fill="url(#SVGID_25_)"/>
  <radialGradient id="SVGID_26_" cx="38.58" cy="27.4" r="9.139" gradientUnits="userSpaceOnUse">
    <stop stop-color="#FFE286" offset="0"/>
    <stop stop-color="#EDAD26" offset="1"/>
  </radialGradient>
  <polygon points="29 16 45.9 37.5 46.6 38.4 47.5 37 48.1 35.6 46.9 32.9" fill="url(&quot;#SVGID_26_&quot;)"/>
  <linearGradient id="SVGID_27_" x1="117.4" x2="104.2" y1="28.24" y2="29.42" gradientUnits="userSpaceOnUse">
    <stop stop-color="#DA8908" offset="0"/>
    <stop stop-color="#FFCC37" offset=".56"/>
    <stop stop-color="#FFEAA2" offset="1"/>
  </linearGradient>
  <path d="m103.5 38.1c2.4 0 17-20.5 18.1-22.5l-17.5 16.3-3 3.7 2.4 2.5z" fill="url(#SVGID_27_)"/>
  <linearGradient id="SVGID_28_" x1="28.04" x2="20.88" y1="64.4" y2="64.08" gradientUnits="userSpaceOnUse">
    <stop stop-color="#EDA520" offset="0"/>
    <stop stop-color="#ffa" offset=".61"/>
    <stop stop-color="#FDAE21" offset=".98"/>
  </linearGradient>
  <path d="m25.5 61.1-19.6-1.1 23 6 3.6-0.5-2.4-3.4-4.6-1z" fill="url(#SVGID_28_)"/>
  <linearGradient id="SVGID_29_" x1="139.5" x2="130" y1="62.32" y2="64.03" gradientUnits="userSpaceOnUse">
    <stop stop-color="#E59C19" offset=".03"/>
    <stop stop-color="#FFEA92" offset=".5"/>
    <stop stop-color="#EDA521" offset="1"/>
  </linearGradient>
  <path d="m121.6 62.6-2.6 0.4 3.4 2.9 21.7-5.9-13.6 0.6h-4.9l-4 2z" fill="url(#SVGID_29_)"/>
  <linearGradient id="SVGID_30_" x1="41.2" x2="50.11" y1="114.7" y2="111.8" gradientUnits="userSpaceOnUse">
    <stop stop-color="#EDAE27" offset=".03"/>
    <stop stop-color="#FFE482" offset=".5"/>
    <stop stop-color="#EEA820" offset="1"/>
  </linearGradient>
  <path d="m33.6 125.9 18.3-15 3-5.8-3.3-0.1c-3 1.9-5.1 2.1-8 6.5l-10 15.1" fill="url(#SVGID_30_)"/>
  <linearGradient id="SVGID_31_" x1="106.6" x2="116.9" y1="115.1" y2="114.8" gradientUnits="userSpaceOnUse">
    <stop stop-color="#B36507" offset=".03"/>
    <stop stop-color="#FEC839" offset=".5"/>
    <stop stop-color="#FFDD7D" offset="1"/>
  </linearGradient>
  <path d="m104.1 103 2.3 2.9c3.1 1.7 5 4.2 6 6l8 14.1-11.5-10 0.6-3.1-5.4-7.3v-2.6z" fill="url(#SVGID_31_)"/>
  <path class="cls-23" d="m96.1 67.4c-0.6 1.1-2 1.6-2.7 1.6-3.8 0-10 2.6-9.3 12.6 0 1 0.5 0.5 0.8 0.5 2.2-0.5 4.1-0.7 7.5-0.2 2.6-0.5 3.7-1.3 5.5-1.3 1.2-0.6 3.7-4.2 3-5.6l-2.5-4.4-2.4-0.6 0.1-2.6z"/>
  <linearGradient id="SVGID_32_" x1="84.22" x2="99.63" y1="78.12" y2="78.12" gradientUnits="userSpaceOnUse">
    <stop stop-color="#DDB15A" offset="0"/>
    <stop stop-color="#FFEABB" offset=".52"/>
    <stop stop-color="#FFF2CE" offset="1"/>
  </linearGradient>
  <path d="m84.4 81.6c0.1 0.9 0.5 0.5 1.1 0.4 2.5-0.4 5.6-0.9 6.6-0.4 2-1 6.3-0.2 7.5-5-0.7-2.6-3.6-5.7-6.7-5.1-6 0.4-9 5.1-8.5 10.1z" fill="url(&quot;#SVGID_32_&quot;)"/>
  <ellipse cx="91.4" cy="76.6" rx="4.9" ry="5.4" fill="#6B3400"/>
  <circle cx="91" cy="76.6" r="2.6" fill="#251301"/>
  <ellipse cx="94" cy="75.1" rx=".6" ry=".5" fill="#804704"/>
  <circle cx="92.8" cy="73.6" r="1.5" fill="#FFFBFB"/>
  <circle cx="88.9" cy="78.5" r=".5" fill="#FFFBFB"/>
  <ellipse cx="89" cy="74.6" rx=".5" ry=".4" fill="#804704"/>
  <path class="cls-23" d="m95.6 69.4c2 1 3.9 1.2 5.8-0.9 0.2 1.4-0.3 2.5-1 3.1 0.7 0.3 2-0.5 2.2-1 0 0.9-1 1.4-0.5 2 1 0.3 1.9 0 2.4-0.7 0 3-1.4 4.1-3.1 4.5l1 1.1c-0.8-0.1-1.9 0.4-1.5 0.5 0.7 0.1 1.1 1 1.1 0.4-1.1-0.4-2.6 0.5-3 1 0.4 0.1 1.5 0.6 1.6 0.6-1.2-0.4-1.6-0.6-1.7-0.1l0.5 1.2c-0.4-0.5-1.3-1.1-2-0.6l0.2 1.4c-0.7-0.9-2.2-1.4-3.1-0.8l1.5-1.5 4-3.1-1.6-3.6-2.8-3.5z"/>
  <radialGradient id="SVGID_33_" cx="94.06" cy="69.17" r="4.315" gradientUnits="userSpaceOnUse">
    <stop stop-color="#FFBE39" offset="0"/>
    <stop stop-color="#FCB031" stop-opacity="0" offset="1"/>
  </radialGradient>
  <path d="m85 73.6c3.9-6.6 7.4-8.1 11.9-5.2l2.6 2.1-1.1 0.1-2.8-1.2-3.5 0.2-3.2 0.9-3.9 3.1z" fill="url(#SVGID_33_)"/>
  <radialGradient id="SVGID_34_" cx="94.57" cy="86.93" r="6.481" gradientUnits="userSpaceOnUse">
    <stop stop-color="#FFB133" offset="0"/>
    <stop stop-color="#FCB031" stop-opacity="0" offset="1"/>
  </radialGradient>
  <path d="m88.4 88.1c0.6 4.3 7 6 10.5 3.5 4-3 5.5-6 3.7-10.1-1.6-3.5-9.5-1.5-9.5-0.5-3 0.6-5 3.6-4.7 7.1z" fill="url(#SVGID_34_)"/>
  <path class="cls-24" d="m105.9 87.9c1.1 1.1 3.6 0.5 4.1-0.9l-0.9-1.5-3.2 2.4z"/>
  <circle cx="107.9" cy="87" r="1.5" fill="#C18410"/>
  <radialGradient id="SVGID_35_" cx="107.8" cy="86.71" r="1.47" gradientUnits="userSpaceOnUse">
    <stop stop-color="#FEE481" offset="0"/>
    <stop stop-color="#CB7A06" offset="1"/>
  </radialGradient>
  <circle cx="107.9" cy="87" r="1.4" fill="url(#SVGID_35_)"/>
  <path d="m69.1 82.9c0.4-0.4 0.5-11.5-8.5-12.8-4.7-0.1-9.6 4.9-10.7 5.9l0.6 6.4c1.4-1 3.4-0.8 4 0 0.4 0.1 2.5 0.2 3.5 1.2 3.9-1 8.4-1.2 11.1-0.7z" fill="#301C00"/>
  <linearGradient id="SVGID_36_" x1="53.64" x2="69.14" y1="78.47" y2="78.47" gradientUnits="userSpaceOnUse">
    <stop stop-color="#E3BD73" offset="0"/>
    <stop stop-color="#FFEABB" offset=".52"/>
    <stop stop-color="#FFF1D0" offset="1"/>
  </linearGradient>
  <path d="m53.6 78.9c1.3 3.6 7.8 4.1 15.5 4 0.5 0.2 0-6.9-2.5-8.3-1-1-5-2-7.7-0.7l-4.4 3.1-0.9 1.9z" fill="url(&quot;#SVGID_36_&quot;)"/>
  <ellipse cx="61.9" cy="78.1" rx="4.1" ry="4.9" fill="#6B3400"/>
  <circle cx="62.4" cy="78.1" r="2.6" fill="#210E01"/>
  <circle cx="64.1" cy="75.9" r="1.5" fill="#fff"/>
  <ellipse transform="matrix(.7217 -.6922 .6922 .7217 -41.01 64.18)" cx="59.9" cy="80.1" rx=".6" ry=".5" fill="#fff"/>
  <circle cx="59.8" cy="75.5" r=".5" fill="#804704"/>
  <radialGradient id="XMLID_1_" cx="61.69" cy="71.55" r="3.852" gradientUnits="userSpaceOnUse">
    <stop stop-color="#FCB032" offset="0"/>
    <stop stop-color="#FCB032" stop-opacity="0" offset="1"/>
  </radialGradient>
  <path d="m55.9 70.9c3.1-1.8 9-2.9 13.1 5.7-3.1-5.7-9.4-6.7-10.1-4.6l-3-1.1z" fill="url(#XMLID_1_)"/>
  <path class="cls-23" d="m56.6 70c0 0.9 0.4 1.5 0.5 1.9l-1.7 0.7-1.3-0.6c-0.1 0.9-0.7 0-1.6-0.4 0 0.8 0.5 1.8 1.1 1.8l-1.5 1.1-1.6-0.9c0.1 0.9 0.6 1.8 1.6 2.5-1.1 0.8-2.5 0.5-3.5-0.2 0.4 0.7 0.8 3 3.8 3.2 0.1 0.5 0.5 0.5 1.1 0.9-0.4 0.4-1.9 0.5-2.1 1.4 1.1-0.5 2.7-0.3 2.1 0.6-1 1 0.9-0.6 2.5 0.4-0.9 0.2-2.1 0.7-3.1 0.6 1.6-0.1 2.1-0.6 3.6-0.4-0.5 0.5-0.1 1 0 1.3 0.6-0.9 2.5-1.3 2.1 0.1l0.8-0.1c-1.4-1.5 2.2-0.8 2.6-1v0.5l0.9-0.4-0.9-1-6.6-2.5-1-3.4 2.7-2.6 3-1c-1.1-1.1-2.2-0.5-3.5-2.5z"/>
  <radialGradient id="SVGID_37_" cx="56.38" cy="86" r="6.833" gradientUnits="userSpaceOnUse">
    <stop stop-color="#FC981E" offset=".1027"/>
    <stop stop-color="#FCB032" stop-opacity="0" offset="1"/>
  </radialGradient>
  <path d="m47.4 80c1.5 6 3 15.5 9.5 20 4.7 2.9 10.2 6 10.6 10 0.9 5.5-6 8.1-7.9 11.5-2.6 5 1.9 9.1-3.5 14.5-3.5 1.5-6 1.6-5 0.9 5.9-2.9 5.5-5.8 4.3-8.3-9.5-14 2.1-16.7 0.7-23l-6.2-10.5-3.8-8.1 1.3-7z" fill="url(#SVGID_37_)"/>
  <ellipse cx="53.3" cy="84.9" rx=".3" ry=".3" fill="#FFA42C"/>
  <circle cx="55.6" cy="86.1" r=".5" fill="#fff"/>
  <circle cx="58.7" cy="87.1" r=".6" fill="#fff"/>
  <circle cx="61" cy="86.1" r=".5" fill="#fff"/>
  <circle cx="54.1" cy="87.6" r=".3" fill="#FFECB6"/>
  <circle cx="59.1" cy="88.5" r=".3" fill="#fff"/>
  <circle cx="62.9" cy="88" r=".2" fill="#FFECB6"/>
  <radialGradient id="SVGID_38_" cx="100.2" cy="82.92" r=".3221" gradientUnits="userSpaceOnUse">
    <stop stop-color="#fff" offset="0"/>
    <stop stop-color="#FDEDCC" offset="1"/>
  </radialGradient>
  <circle cx="100.5" cy="82.6" r=".3" fill="url(#SVGID_38_)"/>
  <circle cx="97.9" cy="83.8" r=".6" fill="#fff"/>
  <circle cx="95.5" cy="84.9" r=".6" fill="#fff"/>
  <circle cx="92.2" cy="85.1" r=".6" fill="#fff"/>
  <circle cx="98.9" cy="85.5" r=".2" fill="#FFECBB"/>
  <linearGradient id="SVGID_39_" x1="45.4" x2="78.27" y1="45.29" y2="45.29" gradientUnits="userSpaceOnUse">
    <stop stop-color="#F2B023" offset="0"/>
    <stop stop-color="#FFDF79" offset=".52"/>
    <stop stop-color="#FAC234" offset=".96"/>
  </linearGradient>
  <path d="m45.4 38.9 6.1-4.8c7.4-5.2 19.6-8.1 25.6-3.1v1.4c-6.2-4.4-14.5-4.9-22.6 0.7-2.9 1.5-7.6 5.4-9.1 7.5v-1.7z" fill="url(#SVGID_39_)"/>
  <linearGradient id="SVGID_40_" x1="76.85" x2="111.7" y1="41.3" y2="41.3" gradientUnits="userSpaceOnUse">
    <stop stop-color="#DA8A0A" offset=".04"/>
    <stop stop-color="#FACA44" offset=".52"/>
    <stop stop-color="#DB8D0D" offset="1"/>
  </linearGradient>
  <path d="m76.9 30.5c11.5-4.1 29 2.5 35 19.4v1.5c-5.4-7.5-14.5-22.5-28.3-21.5-2.6 0-5.1 0.6-6.7 1.2v-0.6z" fill="url(#SVGID_40_)"/>
  <linearGradient id="SVGID_41_" x1="49.6" x2="78.25" y1="40.11" y2="40.11" gradientUnits="userSpaceOnUse">
    <stop stop-color="#D88909" offset="0"/>
    <stop stop-color="#FFD966" offset=".52"/>
    <stop stop-color="#F9BE32" offset="1"/>
  </linearGradient>
  <path d="m49.5 40.9 2.4-2.4c8-7.4 20.7-10.4 26.2-2.9l0.2 3.5c-5.7-8.7-17.2-8.1-25.8 1.5l-2.9 1.4-0.1-1.1z" fill="url(#SVGID_41_)"/>
  <linearGradient id="SVGID_42_" x1="78.65" x2="109.1" y1="41.54" y2="41.54" gradientUnits="userSpaceOnUse">
    <stop stop-color="#EAAA20" offset=".04"/>
    <stop stop-color="#FFDD70" offset=".5"/>
    <stop stop-color="#F7BD31" offset=".96"/>
  </linearGradient>
  <path d="m78.4 36c5.7-7 18-3 26.2 7l4.8 7.5-0.3 1c-5.1-3.6-12.7-18.4-23.5-18.5-4.1 0-7 1.9-7.2 2.9v0.1z" fill="url(#SVGID_42_)"/>
  <linearGradient id="SVGID_43_" x1="52.82" x2="77.99" y1="40.35" y2="40.35" gradientUnits="userSpaceOnUse">
    <stop stop-color="#E19712" offset=".04"/>
    <stop stop-color="#FFDD70" offset=".52"/>
    <stop stop-color="#F6B72A" offset=".96"/>
  </linearGradient>
  <path d="m52.8 41.4 2.6-2.8c6.5-6.1 18-9 22.5-1.2l0.2 2.2c-6-8-14.2-7.5-21.6-0.7l-3.5 3.1-0.2-0.6z" fill="url(#SVGID_43_)"/>
  <linearGradient id="SVGID_44_" x1="78.65" x2="101.6" y1="43.24" y2="43.24" gradientUnits="userSpaceOnUse">
    <stop stop-color="#ECAA21" offset=".04"/>
    <stop stop-color="#FFE98E" offset=".52"/>
    <stop stop-color="#F7BD31" offset=".96"/>
  </linearGradient>
  <path d="m78.6 41c5.5-9.6 15.3-5.5 23 4.9l-0.1 1.1c-8-9.1-16.9-14.6-22.9-6.4v0.4z" fill="url(#SVGID_44_)"/>
  <linearGradient id="SVGID_45_" x1="56.4" x2="77.99" y1="41.17" y2="41.17" gradientUnits="userSpaceOnUse">
    <stop stop-color="#EDA91E" offset="0"/>
    <stop stop-color="#FFE383" offset=".52"/>
    <stop stop-color="#F9BD30" offset=".96"/>
  </linearGradient>
  <path d="m56.4 43 2-2.5c6.2-5.9 14.5-8.1 19.6-0.5l0.1 1.4c-4.2-5.8-11.7-8.5-19.7-0.8l-1.8 1.5v0.9z" fill="url(#SVGID_45_)"/>
  <linearGradient id="SVGID_46_" x1="56.11" x2="77.99" y1="43.87" y2="43.87" gradientUnits="userSpaceOnUse">
    <stop stop-color="#EDA91E" offset="0"/>
    <stop stop-color="#FFE383" offset=".52"/>
    <stop stop-color="#F9BD30" offset=".96"/>
  </linearGradient>
  <path d="m56.1 44 1.4-1.4c6-6.2 15.4-9.7 20.4-1.6l0.1 2c-5-6.5-11.9-8.1-19.6-0.5-1 0.9-1 1.1-2 2.4l-0.3-0.9z" fill="url(#SVGID_46_)"/>
  <linearGradient id="SVGID_47_" x1="78.65" x2="101.6" y1="44.59" y2="44.59" gradientUnits="userSpaceOnUse">
    <stop stop-color="#ECAA21" offset=".04"/>
    <stop stop-color="#FFE98E" offset=".52"/>
    <stop stop-color="#F7BD31" offset=".96"/>
  </linearGradient>
  <path d="m78.6 43.6c4.4-7.7 12.5-6.5 18.8-0.1l4.1 4.1-0.1 1.4c-8.4-8.4-14.4-13.5-22.5-6.6l-0.3 1.7v-0.5z" fill="url(#SVGID_47_)"/>
  <linearGradient id="SVGID_48_" x1="57.02" x2="77.99" y1="47.64" y2="47.64" gradientUnits="userSpaceOnUse">
    <stop stop-color="#E8A31A" offset="0"/>
    <stop stop-color="#FFDB71" offset=".52"/>
    <stop stop-color="#F7B62B" offset=".96"/>
  </linearGradient>
  <path d="m57 54c3.1-1.5 3.6-7.6 6.6-11.4 4.4-5 12.5-5.5 14.4 0.9v2.9c-5.4-9.4-13.5-5.9-16.4 2.5-0.7 3.6-2.2 7.5-3.7 8.5l-0.9-3.4z" fill="url(#SVGID_48_)"/>
  <linearGradient id="SVGID_49_" x1="78.58" x2="100.6" y1="47.64" y2="47.64" gradientUnits="userSpaceOnUse">
    <stop stop-color="#ECAA21" offset=".04"/>
    <stop stop-color="#FFE48B" offset=".52"/>
    <stop stop-color="#F7BD31" offset=".96"/>
  </linearGradient>
  <path d="m79 46.4c3.5-8.8 11.1-5.4 14.4-2.8l7.2 6.3-0.2 1.6c-5.5-3.5-12.3-12.6-19-7.9-1.5 0.8-2 1.9-2.8 3.5l0.4-0.7z" fill="url(#SVGID_49_)"/>
  <linearGradient id="SVGID_50_" x1="58.56" x2="78.12" y1="49.82" y2="49.82" gradientUnits="userSpaceOnUse">
    <stop stop-color="#E9A41B" offset="0"/>
    <stop stop-color="#FFD964" offset=".52"/>
    <stop stop-color="#F7B72B" offset=".96"/>
  </linearGradient>
  <path d="m58.6 60.6c5-3 5-8.6 6.8-13.6 3.6-6.5 10.6-7.6 12.7-0.9l-0.1 1.9c-1-4.6-7.4-7.5-10.9-0.6-1.6 4-1 10.5-8.1 13.7l-0.4-0.5z" fill="url(#SVGID_50_)"/>
  <linearGradient id="SVGID_51_" x1="78.65" x2="102.7" y1="49.94" y2="49.94" gradientUnits="userSpaceOnUse">
    <stop stop-color="#ECAA21" offset=".04"/>
    <stop stop-color="#FFE88D" offset=".58"/>
    <stop stop-color="#F7BD31" offset=".87"/>
  </linearGradient>
  <path d="m78.6 48c4-7.6 10.9-4.9 15 0 2.4 1.6 6 6 8.9 5.9l0.1 1c-3.1-0.4-6.6-3-10-6.9-4.1-3.9-9.5-7.5-12.7-1.6l-1.3 1.6z" fill="url(#SVGID_51_)"/>
  <linearGradient id="SVGID_52_" x1="58.62" x2="77.56" y1="52.7" y2="52.7" gradientUnits="userSpaceOnUse">
    <stop stop-color="#DE9815" offset="0"/>
    <stop stop-color="#FFC937" offset=".56"/>
    <stop stop-color="#FAC032" offset="1"/>
  </linearGradient>
  <path d="m58.6 60c4-2.4 5-7 6.4-11.4 2.5-6.7 10.6-9.5 12.6-1.5v1.9c-2-7.5-9.1-7.1-11.7 0.6-0.9 4.4-2 8.5-7 11.3l-0.3-0.9z" fill="url(#SVGID_52_)"/>
  <linearGradient id="SVGID_53_" x1="78.65" x2="114.7" y1="52.95" y2="52.95" gradientUnits="userSpaceOnUse">
    <stop stop-color="#EDA91E" offset=".04"/>
    <stop stop-color="#FFDA62" offset=".7"/>
    <stop stop-color="#F2B228" offset=".96"/>
  </linearGradient>
  <path d="m78.9 48.6c2.5-6.2 7.6-5.2 12.1-0.7l3.6 4.2c4.3 4.5 12.9 8.8 19.5-1.6h0.5c0 3.5-5 9.4-11.1 9-10.4-0.6-13.4-9.9-16.5-12.4s-5.5-2.6-8.1 0.9v0.6z" fill="url(#SVGID_53_)"/>
  <linearGradient id="SVGID_54_" x1="79.65" x2="114.2" y1="54.01" y2="54.01" gradientUnits="userSpaceOnUse">
    <stop stop-color="#E8A31A" offset="0"/>
    <stop stop-color="#FFDB71" offset=".52"/>
    <stop stop-color="#F7B72B" offset="1"/>
  </linearGradient>
  <path d="m79.6 48c1.4-3.1 4.8-4.5 8.5-1.4 4.3 3.4 6.5 11 15.5 11.8 5.5 0.1 9.5-3.8 10.5-6.9-0.2 3.4-5.2 8-10.6 7-9.6-0.5-12.5-9.5-16.4-12.1-2.2-1.9-5.6-2.3-7.5 0.6v1z" fill="url(#SVGID_54_)"/>
  <linearGradient id="SVGID_55_" x1="98.16" x2="102.4" y1="23.31" y2="23.31" gradientUnits="userSpaceOnUse">
    <stop stop-color="#D61810" offset="0"/>
    <stop stop-color="#ED2E25" offset="1"/>
  </linearGradient>
  <path d="m99.1 13c-2.1 3.5-2.1 6-1.1 9.6 1 3.8-1.9 7.4-2.9 8.9l3.5 2.4c6.5-6.5 3.8-12 2.4-14.3-1.4-2.6-2-5.1-1.1-7.6l-0.8 1z" fill="url(#SVGID_55_)"/>
  <linearGradient id="SVGID_56_" x1="49.6" x2="55.76" y1="24.96" y2="24.96" gradientUnits="userSpaceOnUse">
    <stop stop-color="#C1180D" offset="0"/>
    <stop stop-color="#EE2D25" offset="1"/>
  </linearGradient>
  <path d="m50.5 12.5c-0.1 3.4 2.9 5.9 0.9 10-2.4 4.5-2.5 7.6 0.1 11.1h0.5l3.8-2c-3.8-3.7-0.9-8.5-1.2-11.6l-1.5-3.5-2.6-4z" fill="url(#SVGID_56_)"/>
  <linearGradient id="SVGID_57_" x1="13.52" x2="31.02" y1="46.33" y2="46.33" gradientUnits="userSpaceOnUse">
    <stop stop-color="#C6170D" offset="0"/>
    <stop stop-color="#F12019" offset=".49"/>
    <stop stop-color="#8F0C09" offset="1"/>
  </linearGradient>
  <path d="m13.5 37.4c0.5 3.1 2.5 6.2 4.1 7.2 2.5 1.5 3.3 2.9 4 6l2.3 6.4 4.1 2.9 3 1.1v-10.5l-2.9-4.5c-2.2-2.5-5-3-7.7-3-3-0.5-6.8-2.5-6.9-5.6z" fill="url(#SVGID_57_)"/>
  <linearGradient id="SVGID_58_" x1="114.5" x2="136" y1="49.61" y2="49.61" gradientUnits="userSpaceOnUse">
    <stop stop-color="#900E0A" offset="0"/>
    <stop stop-color="#ED1C24" offset=".44"/>
    <stop stop-color="#CD181F" offset="1"/>
  </linearGradient>
  <path d="m114.4 49.6 1.5 7.3 0.6 5.1 3.5-0.6c2-1.4 5-3.4 6.4-9.5 1.5-7 5.7-6 7.6-9.3 1-1.2 2.6-5.6 1.9-5.7-1.9 5.1-5.3 5.1-10 5.7-5.3 0.5-7 1.4-11.5 7z" fill="url(#SVGID_58_)"/>
  <linearGradient id="SVGID_59_" x1="12.97" x2="42.99" y1="85.45" y2="85.45" gradientUnits="userSpaceOnUse">
    <stop stop-color="#CF090E" offset="0"/>
    <stop stop-color="#FA1E1E" offset=".49"/>
    <stop stop-color="#8E0C0A" offset="1"/>
  </linearGradient>
  <path d="m6.6 83.4c3.3 3.2 6.9 8 13.3 7.2 4.5-0.1 6.1-3.5 9.6-3.7 7 0.5 11.4-1.9 13.5-9.5l-5.9 1.5-8.5-2.3-6 0.3-6.5 5.7-5.1 1.8-4.4-1z" fill="url(#SVGID_59_)"/>
  <linearGradient id="SVGID_60_" x1="112.2" x2="143.9" y1="85.19" y2="85.19" gradientUnits="userSpaceOnUse">
    <stop stop-color="#9B100D" offset="0"/>
    <stop stop-color="#FA1E1E" offset=".51"/>
    <stop stop-color="#B51218" offset="1"/>
  </linearGradient>
  <path d="m112.2 76c2.8 3.5 4.7 7.6 9.3 8 4.9 0.5 4 5.6 9.9 6.4 5.2 0.5 9.1-3.5 12.6-7.8l-4.5 1.4-5-0.4-5.5-5.1-6.4-2.9-4.1 1.5-6.3-1.1z" fill="url(#SVGID_60_)"/>
  <linearGradient id="SVGID_61_" x1="14.43" x2="52.42" y1="104.5" y2="104.5" gradientUnits="userSpaceOnUse">
    <stop stop-color="#D31911" offset="0"/>
    <stop stop-color="#F2211B" offset=".49"/>
    <stop stop-color="#75130E" offset="1"/>
  </linearGradient>
  <path d="m14.4 106.6c2.2 2.3 5.6 4.4 9.2 5.4 8.9 1.9 10.8-2.5 14.4-4.4 3.1-1.6 8.5 0.4 13.1-4.2l1.3-3.9-6.5-4.1-9.5 0.5-6.5 6.1-5.8 5-5.7 1.1-4-1.5z" fill="url(#SVGID_61_)"/>
  <linearGradient id="SVGID_62_" x1="104.3" x2="135.6" y1="102.6" y2="102.6" gradientUnits="userSpaceOnUse">
    <stop stop-color="#89100C" offset="0"/>
    <stop stop-color="#ED201E" offset=".54"/>
    <stop stop-color="#D61B1F" offset="1"/>
  </linearGradient>
  <path d="m104.5 96.1-0.2 3c0.7 3.9 3.7 6.4 8.7 6.9 4.5 0.5 3.9 6.1 11.1 6.4 5-0.5 10.3-4 11.5-5.4l-6.1 1.4-8.1-2.9-4.9-7.5-7-3-5 1.1z" fill="url(#SVGID_62_)"/>
  <linearGradient id="SVGID_63_" x1="52.9" x2="66.53" y1="117.4" y2="117.4" gradientUnits="userSpaceOnUse">
    <stop stop-color="#CC1710" offset="0"/>
    <stop stop-color="#FC2222" offset=".55"/>
    <stop stop-color="#D0201B" offset="1"/>
  </linearGradient>
  <path d="m55 136.6c4.4-1.6 7.1-4.5 8.6-7.7-0.7-4.9 1-6.3 3-7.9 2.9-2 6.8-9 6.3-11.6l-3.4-3-8.9-4.9c2.9 8.9-5.7 12.5-6.6 18-1.4 5.5 3.5 11.4 1 17.1z" fill="url(#SVGID_63_)"/>
  <linearGradient id="XMLID_3_" x1="91.39" x2="97.89" y1="24.28" y2="24.28" gradientUnits="userSpaceOnUse">
    <stop stop-color="#032296" offset="0"/>
    <stop stop-color="#0B40BE" offset=".51"/>
    <stop stop-color="#243984" offset="1"/>
  </linearGradient>
  <path class="cls-31" d="m89.5 29.9c2.6-2.9 1.9-6.9 4-9.8 1.5-2.1 3.4-2.7 4.5-5.6-0.6 4.5 1.6 7.5-0.1 12.6-0.7 1.8-2 3.3-3.5 4.9l-4.4-1.9-0.5-0.2z"/>
  <linearGradient id="XMLID_4_" x1="53.39" x2="58.64" y1="24.28" y2="24.28" gradientUnits="userSpaceOnUse">
    <stop stop-color="#2E284D" offset="0"/>
    <stop stop-color="#243984" offset=".51"/>
    <stop stop-color="#433327" offset="1"/>
  </linearGradient>
  <path class="cls-34" d="m54.4 17.4c1.1 3.5 0.6 4.5-0.4 8.2-0.5 2 0.4 4.4 1.6 5.8l3-1.4c-1-1.6-1.2-4.6-1.1-6-0.4-4-2.6-6-3.1-6.6z"/>
  <linearGradient id="XMLID_5_" x1="6.811" x2="43.06" y1="82.65" y2="82.65" gradientUnits="userSpaceOnUse">
    <stop stop-color="#032296" offset="0"/>
    <stop stop-color="#0B40BE" offset=".51"/>
    <stop stop-color="#1E184C" offset="1"/>
  </linearGradient>
  <path class="cls-36" d="m7 83c2.6 3.4 8.9 6.5 14 2.9 2-1.4 3.6-4.9 7.6-5.9 3.3-0.6 7 3.4 13.3-2l1.1-1c-1.4 1-5.9 3-9.5 1.5-6.9-2.6-11.5-2.5-15 3.5-2.1 3-6.5 5.6-11.5 1z"/>
  <linearGradient id="XMLID_6_" x1="113.1" x2="141.6" y1="82.03" y2="82.03" gradientUnits="userSpaceOnUse">
    <stop stop-color="#430806" offset="0"/>
    <stop stop-color="#EB1E1E" offset=".51"/>
    <stop stop-color="#BB1416" offset="1"/>
  </linearGradient>
  <path class="cls-42" d="m113.1 77.5c3.5 4.4 6.4 3.9 8.5 3.9 6.3 0 6.4 4.5 10.8 6 4 1.1 6.7-0.9 9.2-3.4-4.6 3-8.5 2.5-11.1-0.6-2-2-4.4-4.9-8.9-4.8-3.1 0.3-6 0.3-8.5-1.6v0.5z"/>
  <linearGradient id="XMLID_7_" x1="14.64" x2="52.14" y1="103.6" y2="103.6" gradientUnits="userSpaceOnUse">
    <stop stop-color="#032296" offset="0"/>
    <stop stop-color="#0B40BE" offset=".51"/>
    <stop stop-color="#1E1849" offset="1"/>
  </linearGradient>
  <path class="cls-43" d="m14.6 107.4c4.8 3.2 11.8 2.8 15.3-0.5 2.6-2.4 3.5-4.8 6.5-5.9 2.6-1 6.1-1 8.6-0.5l5.5 1.5c-2.4 3.4-6.9 3.4-10.1 3.5-4.9 0.6-6.5 5.5-12 6.4-3.3 0.6-8.9-1.4-13.8-4.5z"/>
  <linearGradient id="XMLID_8_" x1="103.8" x2="135.6" y1="102.5" y2="102.5" gradientUnits="userSpaceOnUse">
    <stop stop-color="#032296" offset="0"/>
    <stop stop-color="#0B40BE" offset=".51"/>
    <stop stop-color="#1E1849" offset="1"/>
  </linearGradient>
  <path class="cls-44" d="m104 97.6 0.1 2c2.3 3.9 4.9 3.9 7.9 4.4 7 1.1 6.6 6 11.5 7 3.5 0.5 7.5-0.5 11.9-3.5-4.3 1.5-9.9 2.4-13.4-0.6-2.5-2.3-3.5-6-7-7-3.1-1.5-7.5-0.9-11-2.3z"/>
  <linearGradient id="SVGID_64_" x1="89.52" x2="104" y1="116.9" y2="116.9" gradientUnits="userSpaceOnUse">
    <stop stop-color="#2E284E" offset="0"/>
    <stop stop-color="#243984" offset=".51"/>
    <stop stop-color="#0B3FB9" offset="1"/>
  </linearGradient>
  <path d="m89.6 105c-0.2 5.6 2.9 9 5.9 11 3 2.1 4.9 5.1 3.5 10-1.6 4.5 0 9.5 4.5 10.4-3.5-1.9-4-5-2-8.9 4.1-7.4 1.9-10.9-3.4-15.6-4.6-4.4-6-7.9-4.6-12.3l-3.9 2.3v3.1z" fill="url(#SVGID_64_)"/>
  <path class="cls-37" d="m50 64.5c1.5 1.9 5.9 2.6 6.4-0.9 1.6 0 3-2.1 2.1-4.5 2.1-3-2.1-8.1-6.6-6.7-2.9 0.6-5.5 3.6-6.3 4.1-1.6-0.9-3.5-0.9-3.5 0.5l1.5 0.6c-7.6 3.8-8.1 11.4-4.7 13.4h1.1c0.9 1.5 3.4 1.6 4 0.5 0.5 1.1 1.9 0.6 2-0.6 2.1 0.2 5-2.3 4-6.4z"/>
  <path d="m42.9 57c-3.9-2.1-12.5-2.4-14.9 1-1.1-3.5 0-4.1 0-5-1.1-0.4-0.1-4.1 1.6-4 0.3-2.5 3.4-4.1 6-2.4-2.6-3.6 1.3-7.2 2.8-6.6 0.2-1.9 3.1-3.4 4-1.6 2-1.4 3.2-0.5 3.6 0.2 1.9-1.2 4.6 2 3.5 4.4 2.1-1.6 5.5-2 5.5-0.4 1-0.1 3.4 0.8 2.9 2.3 1.7 0.2 1.2 4.1 0.6 5.6l-2.1 2c-3.3-1.4-6.5-0.6-10.4 3.5l-0.1 1-3-0.5v0.5z" fill="#FBC116" stroke="#CA7A00" stroke-miterlimit="10" stroke-width=".25"/>
  <path class="cls-38" d="m43.4 56.9c-7-2.9-13.3-0.4-14 3.6-0.4 1 0.2 1.9 0.2 1.9-0.7 1.5-0.5 3.2 1 3.7 0 1.4 1.3 2 1.8 2 0 2 4.2 2.5 5.6 0.5-0.1-4.1 2-8 5.6-10.2l-0.2-1.5z"/>
  <path class="cls-33" d="m44.6 55c0.3-5 1.8-8.9 4.5-11.6 1.3-3.4-1.6-5.5-2.7-4.4-0.8-1.6-2.5-1.9-4-0.6-1-1-3.3-0.8-4 1.6-2.5-0.6-6 3.9-2.9 6.6l1.6 1.4 3 2.5 4.5 4.5z"/>
  <linearGradient id="XMLID_2_" x1="38.32" x2="37.66" y1="49.54" y2="50.88" gradientUnits="userSpaceOnUse">
    <stop stop-color="#BB770A" offset="0"/>
    <stop stop-color="#FBBD22" offset="1"/>
  </linearGradient>
  <path d="m39 48.9c-1-1-1.6 0.1-0.6 1.1-1.9 1.9 1.2 1 0.6-0.5v-0.6z" fill="url(#XMLID_2_)"/>
  <linearGradient id="XMLID_12_" x1="39.59" x2="39.46" y1="48.32" y2="49.38" gradientUnits="userSpaceOnUse">
    <stop stop-color="#BB770A" offset="0"/>
    <stop stop-color="#FBBD22" offset="1"/>
  </linearGradient>
  <path d="m39.1 49c-1-0.1-1.6-1.6-0.7-1.6-0.4-0.5 1.1-0.8 0.5 1.6h0.2z" fill="url(#XMLID_12_)"/>
  <linearGradient id="XMLID_13_" x1="39.87" x2="40.14" y1="48.08" y2="48.75" gradientUnits="userSpaceOnUse">
    <stop stop-color="#BB770A" offset="0"/>
    <stop stop-color="#CC8A0C" offset="1"/>
  </linearGradient>
  <path d="m39.1 48.6 0.8-1.1c0.7 0 0.7 1.9-1 1.4l0.2-0.3z" fill="url(#XMLID_13_)"/>
  <linearGradient id="XMLID_14_" x1="39.34" x2="40.67" y1="50.39" y2="50.39" gradientUnits="userSpaceOnUse">
    <stop stop-color="#CA880C" offset=".02"/>
    <stop stop-color="#EAB236" offset="1"/>
  </linearGradient>
  <path d="m39.9 49.4c1.6 0.5 0.7 2-0.4 1.6-0.6-0.5-0.1-1.6 0.4-1.6z" fill="url(#XMLID_14_)"/>
  <linearGradient id="XMLID_15_" x1="39.05" x2="43.52" y1="53.16" y2="53.16" gradientUnits="userSpaceOnUse">
    <stop stop-color="#CD9116" offset=".04"/>
    <stop stop-color="#CD8710" offset=".5"/>
    <stop stop-color="#E8AF30" offset=".98"/>
  </linearGradient>
  <polygon points="39.1 51 41 53 43.5 55.5 43.9 55.1 42 53.1 40 51" fill="url(#XMLID_15_)"/>
  <radialGradient id="XMLID_16_" cx="44.5" cy="56.41" r="1.667" gradientUnits="userSpaceOnUse">
    <stop stop-color="#FFF9C7" offset="0"/>
    <stop stop-color="#BB770A" offset=".5"/>
    <stop stop-color="#B86708" offset="1"/>
  </radialGradient>
  <circle cx="44.5" cy="56.4" r="1.7" fill="url(#XMLID_16_)"/>
  <path class="cls-39" d="m44.5 55.4c-0.4 0.6 0.6 1.1 0.9 0.5 0.1-0.5-0.8-0.9-0.9-0.5z"/>
  <path d="m37.1 52c-3.2-1.9-5.2-2.6-7.5-3 1.8-0.1 3.4 0 7.5 2.6v0.4z" fill="#FFDB45"/>
  <path d="m39.5 41c0 1.5 0.4 3.5 1.5 6-1.1-1-2-4-1.5-6z" fill="#FFE357"/>
  <path class="cls-39" d="m35.6 42c0.3 0.9 1.3 2.5 2.5 4-0.7-0.4-2.5-3-2.5-4z"/>
  <path class="cls-39" d="m43 38.9c-0.5 2-0.4 7.5 0.6 11-1.1-2.5-2.1-8.4-0.6-11z"/>
  <path d="m30.6 56c1.4-0.9 7.3-1.5 9.4-0.5-1.9-0.5-7.5-0.5-9.4 0.5z" fill="#FFDB45"/>
  <path class="cls-40" d="m38.9 48.6c0.1-0.6 0.6 0 0.2 0.4l-0.2-0.4z"/>
  <path class="cls-39" d="m43.4 53.4c-1.4-2-2.5-4.4-2.8-5.9 0.8 1.5 1.9 3.9 2.8 5.9z"/>
  <path class="cls-39" d="m45.6 39.4c-0.7 2.7-2.2 7.5-1.6 13.2 0-4.6 1-10.5 2-13l-0.4-0.2z"/>
  <path class="cls-39" d="m48.4 39.5c-1.5 1.9-2.8 5.5-3 6.9 0.5-1.9 1.7-4.9 3.5-6.5l-0.5-0.4z"/>
  <path class="cls-39" d="m53.9 42.4c-2.4 0.6-4.9 2.1-5.9 4.1 1.5-1.9 3.5-3.5 6.4-3.9l-0.5-0.2z"/>
  <path d="m56 43.9c-2.1 0-8 3.1-9.1 5.6 2.2-2.9 6.1-5.1 9.5-5.6h-0.4z" fill="#FFED93"/>
  <path d="m46.4 53.4c1.5-4 8-7 11.1-7.4-3.9 0.9-9.5 3.6-11.1 7.4z" fill="#FFD640"/>
  <path class="cls-39" d="m57.9 48.5c-2.3-0.1-7.8 1.4-9.9 4 2-1.9 6.5-4 9.9-3.6v-0.4z"/>
  <path d="m58.1 49c-0.7 0-1.5 0.4-2 1 0.8-0.1 1.5 0 2 0.4l0.3-1-0.3-0.4z" fill="#FFEE98"/>
  <path class="cls-39" d="m29.5 52.9c2-0.4 5.5 0.1 7.5 1-2.4-0.5-5.1-1-7.5-1z"/>
  <path class="cls-41" d="m38.5 50c-0.5-0.5 0.4-0.9 0.5-0.4l-0.5 0.4z"/>
  <linearGradient id="XMLID_17_" x1="37.95" x2="38.33" y1="50.42" y2="51" gradientUnits="userSpaceOnUse">
    <stop stop-color="#E39D18" offset="0"/>
    <stop stop-color="#CA880C" offset="1"/>
  </linearGradient>
  <path d="m38.1 50.4c-0.1 0.6 0.8 0.5 0.5 0h-0.5z" fill="url(#XMLID_17_)"/>
  <linearGradient id="XMLID_18_" x1="39.64" x2="40.49" y1="49.95" y2="50.72" gradientUnits="userSpaceOnUse">
    <stop stop-color="#FCD140" offset="0"/>
    <stop stop-color="#CE9013" offset="1"/>
  </linearGradient>
  <path d="m40.4 50c0.2-0.4-1.3-0.5-0.8 0.4 0.4 0.2 0.8 0 0.8-0.4z" fill="url(#XMLID_18_)"/>
  <linearGradient id="XMLID_19_" x1="39.67" x2="39.94" y1="48.39" y2="48.14" gradientUnits="userSpaceOnUse">
    <stop stop-color="#F8C32E" offset="0"/>
    <stop stop-color="#D49314" offset="1"/>
  </linearGradient>
  <path d="m39.9 48c0 0.5 0.6 0.5 0 0z" fill="url(#XMLID_19_)"/>
  <linearGradient id="SVGID_65_" x1="41.24" x2="52.33" y1="98.14" y2="98.14" gradientUnits="userSpaceOnUse">
    <stop stop-color="#ED1C24" offset="0"/>
    <stop stop-color="#CD181F" offset="1"/>
  </linearGradient>
  <path d="m46.7 94.4c-1.8-2.9-6.2-1.3-5.3 3.1 0.6 2.9 4.6 6.4 5.5 6.9 2.6-1 6.2-4.8 5.5-8.4-0.8-3.9-4.4-3.4-5.7-1.6z" fill="url(#SVGID_65_)"/>
  <path class="cls-33" d="m46.9 94.9c-1.9-2.4-5.3-1.8-5.5 2.5l10.7 0.6c1.3-3.9-2.5-5.9-5.2-3.1z"/>
  <path class="cls-38" d="m42.6 99.9 8.4 0.6c0.6-0.9 1.1-2.1 1.4-2.6l-11-0.5c0 1 0.7 2.1 1.2 2.5z"/>
  <path class="cls-39" d="m42.6 95.9c0.3-2.5 2.4-2.5 3.5-1.4-1.6-0.4-2.7-0.1-3.5 1.4z"/>
  <path class="cls-39" d="m48.4 94.5c1.7-1 3.2 0.5 3 1.9-0.5-1.5-1.5-2-3-1.9z"/>
  <linearGradient id="SVGID_66_" x1="103.4" x2="113.8" y1="95.95" y2="95.95" gradientUnits="userSpaceOnUse">
    <stop stop-color="#ED1C24" offset="0"/>
    <stop stop-color="#CD181F" offset="1"/>
  </linearGradient>
  <path d="m108.5 91.9c-2.9-2.5-5.9 0-4.6 4.2 0.7 3 3.7 5.3 4.6 5.9 2-0.5 6-5 5.3-8.5-0.8-3.6-3.9-3.4-5.3-1.6z" fill="url(#SVGID_66_)"/>
  <path class="cls-33" d="m108.9 92.5c-1.5-1.6-5.4-1.5-5.3 2.9l10-1c0.4-3.8-3-4.8-4.7-1.9z"/>
  <path class="cls-38" d="m105.1 98 7.8-0.5c0.5-0.9 1-2.1 0.9-3.1l-10.3 1c0.1 1 1.1 2.2 1.6 2.6z"/>
  <path class="cls-37" d="m105 98c1.4 2 2.9 3.4 3.5 3.6l4.5-4.2-8 0.6z"/>
  <path class="cls-39" d="m104.9 94.5c0-2.9 2.2-3.9 3.6-2.4-1.6-0.5-2.6-0.1-3.6 2.4z"/>
  <path class="cls-39" d="m109.9 91.9c1.7-1.3 3.1 0.1 3.1 1.1-0.9-1.1-2.1-1.5-3.1-1.1z"/>
  <g fill="none" stroke-miterlimit="10" stroke-width=".5">
    <linearGradient id="SVGID_67_" x1="45.7" x2="48.53" y1="89.34" y2="89.34" gradientUnits="userSpaceOnUse">
      <stop stop-color="#AD6608" offset="0"/>
      <stop stop-color="#F2C450" offset="1"/>
    </linearGradient>
    <circle cx="47.1" cy="89.3" r="1.2" stroke="url(#SVGID_67_)"/>
    <linearGradient id="SVGID_68_" x1="45.87" x2="48.37" y1="92.26" y2="92.26" gradientUnits="userSpaceOnUse">
      <stop stop-color="#AD6608" offset="0"/>
      <stop stop-color="#F2C450" offset="1"/>
    </linearGradient>
    <circle cx="47.1" cy="92.3" r="1" stroke="url(#SVGID_68_)"/>
    <polyline points="47 93.1 46.9 94.1 47.4 94.4 47.1 93.5" stroke="#C47407"/>
  </g>
  <g fill="none" stroke-miterlimit="10" stroke-width=".5">
    <linearGradient id="SVGID_69_" x1="106.7" x2="109.2" y1="87.1" y2="87.1" gradientUnits="userSpaceOnUse">
      <stop stop-color="#AD6608" offset="0"/>
      <stop stop-color="#F2C450" offset="1"/>
    </linearGradient>
    <circle cx="107.9" cy="87.1" r="1" stroke="url(#SVGID_69_)"/>
    <linearGradient id="SVGID_70_" x1="106.8" x2="109.3" y1="89.5" y2="89.5" gradientUnits="userSpaceOnUse">
      <stop stop-color="#AD6608" offset="0"/>
      <stop stop-color="#F2C450" offset="1"/>
    </linearGradient>
    <circle cx="108" cy="89.5" r="1" stroke="url(#SVGID_70_)"/>
    <polyline points="107.9 89.9 107.9 91 108.4 91.4 108.1 90.5" stroke="#C47407"/>
  </g>
</svg>